<?plantuml 1.2026.2?><svg xmlns="http://www.w3.org/2000/svg" xmlns:xlink="http://www.w3.org/1999/xlink" contentStyleType="text/css" data-diagram-type="CLASS" height="398px" preserveAspectRatio="none" style="width:518px;height:398px;background:#FFFFFF;" version="1.1" viewBox="0 0 518 398" width="518px" zoomAndPan="magnify"><defs/><g><!--class export_mtls_profile.DeviceSpec--><g class="entity" data-qualified-name="export_mtls_profile.DeviceSpec" data-source-line="2" id="ent0002"><rect fill="#F1F1F1" height="105.2038" rx="2.5" ry="2.5" style="stroke:#181818;stroke-width:0.5;" width="106.3677" x="16.86" y="54.66"/><ellipse cx="31.86" cy="70.66" fill="#ADD1B2" rx="11" ry="11" style="stroke:#181818;stroke-width:1;"/><path d="M31.9694,66.1913 Q31.0475,66.1913 30.3131,66.5038 Q29.5944,66.8163 29.0944,67.41 Q28.5944,67.9881 28.3131,68.8631 Q28.0475,69.7381 28.0475,70.8319 Q28.0475,72.2694 28.485,73.3163 Q28.9381,74.3631 29.7819,74.91 Q30.6413,75.4569 31.9538,75.4569 Q32.735,75.4569 33.4225,75.3319 Q34.1256,75.1913 35.1256,74.8788 L35.1256,76.7538 Q34.2663,77.0819 33.5006,77.2069 Q32.7506,77.3319 31.735,77.3319 Q29.8131,77.3319 28.5006,76.535 Q27.2038,75.7225 26.5475,74.2538 Q25.8913,72.7694 25.8913,70.8006 Q25.8913,69.3788 26.2819,68.2069 Q26.6881,67.0194 27.4694,66.1444 Q28.2506,65.2694 29.3913,64.8006 Q30.5319,64.3163 32.0006,64.3163 Q32.9538,64.3163 33.8444,64.5194 Q34.7506,64.7069 35.6881,65.1756 L34.86,66.9569 Q34.0788,66.5819 33.4225,66.3944 Q32.7663,66.1913 31.9694,66.1913 Z " fill="#000000"/><text fill="#000000" font-family="sans-serif" font-size="14" lengthAdjust="spacing" textLength="74.3677" x="45.86" y="76.092">DeviceSpec</text><line style="stroke:#181818;stroke-width:0.5;" x1="17.86" x2="122.2277" y1="86.66" y2="86.66"/><text fill="#000000" font-family="sans-serif" font-size="14" lengthAdjust="spacing" textLength="66.0658" x="22.86" y="105.6259">name : str</text><text fill="#000000" font-family="sans-serif" font-size="14" lengthAdjust="spacing" textLength="85.8617" x="22.86" y="124.6939">platform : str</text><text fill="#000000" font-family="sans-serif" font-size="14" lengthAdjust="spacing" textLength="57.2738" x="22.86" y="143.7618">type : str</text><line style="stroke:#181818;stroke-width:0.5;" x1="17.86" x2="122.2277" y1="151.8638" y2="151.8638"/></g><!--class export_mtls_profile.ExtraP12--><g class="entity" data-qualified-name="export_mtls_profile.ExtraP12" data-source-line="7" id="ent0003"><rect fill="#F1F1F1" height="143.3396" rx="2.5" ry="2.5" style="stroke:#181818;stroke-width:0.5;" width="135.0595" x="158.51" y="35.6"/><ellipse cx="193.6222" cy="51.6" fill="#ADD1B2" rx="11" ry="11" style="stroke:#181818;stroke-width:1;"/><path d="M193.7316,47.1313 Q192.8097,47.1313 192.0753,47.4438 Q191.3566,47.7563 190.8566,48.35 Q190.3566,48.9281 190.0753,49.8031 Q189.8097,50.6781 189.8097,51.7719 Q189.8097,53.2094 190.2472,54.2563 Q190.7003,55.3031 191.5441,55.85 Q192.4034,56.3969 193.7159,56.3969 Q194.4972,56.3969 195.1847,56.2719 Q195.8878,56.1313 196.8878,55.8188 L196.8878,57.6938 Q196.0284,58.0219 195.2628,58.1469 Q194.5128,58.2719 193.4972,58.2719 Q191.5753,58.2719 190.2628,57.475 Q188.9659,56.6625 188.3097,55.1938 Q187.6534,53.7094 187.6534,51.7406 Q187.6534,50.3188 188.0441,49.1469 Q188.4503,47.9594 189.2316,47.0844 Q190.0128,46.2094 191.1534,45.7406 Q192.2941,45.2563 193.7628,45.2563 Q194.7159,45.2563 195.6066,45.4594 Q196.5128,45.6469 197.4503,46.1156 L196.6222,47.8969 Q195.8409,47.5219 195.1847,47.3344 Q194.5284,47.1313 193.7316,47.1313 Z " fill="#000000"/><text fill="#000000" font-family="sans-serif" font-size="14" lengthAdjust="spacing" textLength="58.3658" x="212.0915" y="57.032">ExtraP12</text><line style="stroke:#181818;stroke-width:0.5;" x1="159.51" x2="292.5695" y1="67.6" y2="67.6"/><text fill="#000000" font-family="sans-serif" font-size="14" lengthAdjust="spacing" textLength="118.4256" x="164.51" y="86.5659">display_name : str</text><text fill="#000000" font-family="sans-serif" font-size="14" lengthAdjust="spacing" textLength="111.9996" x="164.51" y="105.6339">identity_slug : str</text><text fill="#000000" font-family="sans-serif" font-size="14" lengthAdjust="spacing" textLength="112.6856" x="164.51" y="124.7018">p12_bytes : bytes</text><text fill="#000000" font-family="sans-serif" font-size="14" lengthAdjust="spacing" textLength="123.0595" x="164.51" y="143.7697">p12_file_name : str</text><text fill="#000000" font-family="sans-serif" font-size="14" lengthAdjust="spacing" textLength="103.9496" x="164.51" y="162.8376">passphrase : str</text><line style="stroke:#181818;stroke-width:0.5;" x1="159.51" x2="292.5695" y1="170.9396" y2="170.9396"/></g><!--class export_mtls_profile.IdentityPaths--><g class="entity" data-qualified-name="export_mtls_profile.IdentityPaths" data-source-line="14" id="ent0004"><rect fill="#F1F1F1" height="200.5433" rx="2.5" ry="2.5" style="stroke:#181818;stroke-width:0.5;" width="183.1914" x="328.45" y="7"/><ellipse cx="372.1113" cy="23" fill="#ADD1B2" rx="11" ry="11" style="stroke:#181818;stroke-width:1;"/><path d="M372.2206,18.5313 Q371.2988,18.5313 370.5644,18.8438 Q369.8456,19.1563 369.3456,19.75 Q368.8456,20.3281 368.5644,21.2031 Q368.2988,22.0781 368.2988,23.1719 Q368.2988,24.6094 368.7363,25.6563 Q369.1894,26.7031 370.0331,27.25 Q370.8925,27.7969 372.205,27.7969 Q372.9863,27.7969 373.6738,27.6719 Q374.3769,27.5313 375.3769,27.2188 L375.3769,29.0938 Q374.5175,29.4219 373.7519,29.5469 Q373.0019,29.6719 371.9863,29.6719 Q370.0644,29.6719 368.7519,28.875 Q367.455,28.0625 366.7988,26.5938 Q366.1425,25.1094 366.1425,23.1406 Q366.1425,21.7188 366.5331,20.5469 Q366.9394,19.3594 367.7206,18.4844 Q368.5019,17.6094 369.6425,17.1406 Q370.7831,16.6563 372.2519,16.6563 Q373.205,16.6563 374.0956,16.8594 Q375.0019,17.0469 375.9394,17.5156 L375.1113,19.2969 Q374.33,18.9219 373.6738,18.7344 Q373.0175,18.5313 372.2206,18.5313 Z " fill="#000000"/><text fill="#000000" font-family="sans-serif" font-size="14" lengthAdjust="spacing" textLength="87.4997" x="392.4804" y="28.432">IdentityPaths</text><line style="stroke:#181818;stroke-width:0.5;" x1="329.45" x2="510.6414" y1="39" y2="39"/><text fill="#000000" font-family="sans-serif" font-size="14" lengthAdjust="spacing" textLength="102.8996" x="334.45" y="57.9659">cert_path : Path</text><text fill="#000000" font-family="sans-serif" font-size="14" lengthAdjust="spacing" textLength="99.9596" x="334.45" y="77.0339">key_path : Path</text><text fill="#000000" font-family="sans-serif" font-size="14" lengthAdjust="spacing" textLength="102.0736" x="334.45" y="96.1018">p12_path : Path</text><text fill="#000000" font-family="sans-serif" font-size="14" lengthAdjust="spacing" textLength="152.8234" x="334.45" y="115.1697">passphrase_path : Path</text><text fill="#000000" font-family="sans-serif" font-size="14" lengthAdjust="spacing" textLength="112.9096" x="334.45" y="134.2376">serial_path : Path</text><text fill="#000000" font-family="sans-serif" font-size="14" lengthAdjust="spacing" textLength="56.1538" x="334.45" y="153.3055">slug : str</text><text fill="#000000" font-family="sans-serif" font-size="14" lengthAdjust="spacing" textLength="153.0194" x="334.45" y="172.3734">staged_p12_path : Path</text><text fill="#000000" font-family="sans-serif" font-size="14" lengthAdjust="spacing" textLength="171.1914" x="334.45" y="191.4414">staged_profile_path : Path</text><line style="stroke:#181818;stroke-width:0.5;" x1="329.45" x2="510.6414" y1="199.5433" y2="199.5433"/></g><!--class export_mtls_profile.Ownership--><g class="entity" data-qualified-name="export_mtls_profile.Ownership" data-source-line="24" id="ent0005"><rect fill="#F1F1F1" height="124.2717" rx="2.5" ry="2.5" style="stroke:#181818;stroke-width:0.5;" width="126.0856" x="7" y="267.54"/><ellipse cx="32.007" cy="283.54" fill="#ADD1B2" rx="11" ry="11" style="stroke:#181818;stroke-width:1;"/><path d="M32.1164,279.0713 Q31.1945,279.0713 30.4602,279.3838 Q29.7414,279.6963 29.2414,280.29 Q28.7414,280.8681 28.4602,281.7431 Q28.1945,282.6181 28.1945,283.7119 Q28.1945,285.1494 28.632,286.1963 Q29.0852,287.2431 29.9289,287.79 Q30.7883,288.3369 32.1008,288.3369 Q32.882,288.3369 33.5695,288.2119 Q34.2727,288.0713 35.2727,287.7588 L35.2727,289.6338 Q34.4133,289.9619 33.6477,290.0869 Q32.8977,290.2119 31.882,290.2119 Q29.9602,290.2119 28.6477,289.415 Q27.3508,288.6025 26.6945,287.1338 Q26.0383,285.6494 26.0383,283.6806 Q26.0383,282.2588 26.4289,281.0869 Q26.8352,279.8994 27.6164,279.0244 Q28.3977,278.1494 29.5383,277.6806 Q30.6789,277.1963 32.1477,277.1963 Q33.1008,277.1963 33.9914,277.3994 Q34.8977,277.5869 35.8352,278.0556 L35.007,279.8369 Q34.2258,279.4619 33.5695,279.2744 Q32.9133,279.0713 32.1164,279.0713 Z " fill="#000000"/><text fill="#000000" font-family="sans-serif" font-size="14" lengthAdjust="spacing" textLength="71.8477" x="48.2308" y="288.972">Ownership</text><line style="stroke:#181818;stroke-width:0.5;" x1="8" x2="132.0856" y1="299.54" y2="299.54"/><text fill="#000000" font-family="sans-serif" font-size="14" lengthAdjust="spacing" textLength="49.1818" x="13" y="318.5059">gid : int</text><text fill="#000000" font-family="sans-serif" font-size="14" lengthAdjust="spacing" textLength="112.4056" x="13" y="337.5739">group_name : str</text><text fill="#000000" font-family="sans-serif" font-size="14" lengthAdjust="spacing" textLength="114.0856" x="13" y="356.6418">owner_name : str</text><text fill="#000000" font-family="sans-serif" font-size="14" lengthAdjust="spacing" textLength="49.2238" x="13" y="375.7097">uid : int</text><line style="stroke:#181818;stroke-width:0.5;" x1="8" x2="132.0856" y1="383.8117" y2="383.8117"/></g><!--class export_mtls_profile.SetupError--><g class="entity" data-qualified-name="export_mtls_profile.SetupError" data-source-line="30" id="ent0006"><rect fill="#F1F1F1" height="48" rx="2.5" ry="2.5" style="stroke:#181818;stroke-width:0.5;" width="103.4977" x="168.29" y="305.67"/><ellipse cx="183.29" cy="321.67" fill="#ADD1B2" rx="11" ry="11" style="stroke:#181818;stroke-width:1;"/><path d="M183.3994,317.2013 Q182.4775,317.2013 181.7431,317.5138 Q181.0244,317.8263 180.5244,318.42 Q180.0244,318.9981 179.7431,319.8731 Q179.4775,320.7481 179.4775,321.8419 Q179.4775,323.2794 179.915,324.3263 Q180.3681,325.3731 181.2119,325.92 Q182.0713,326.4669 183.3838,326.4669 Q184.165,326.4669 184.8525,326.3419 Q185.5556,326.2013 186.5556,325.8888 L186.5556,327.7638 Q185.6963,328.0919 184.9306,328.2169 Q184.1806,328.3419 183.165,328.3419 Q181.2431,328.3419 179.9306,327.545 Q178.6338,326.7325 177.9775,325.2638 Q177.3213,323.7794 177.3213,321.8106 Q177.3213,320.3888 177.7119,319.2169 Q178.1181,318.0294 178.8994,317.1544 Q179.6806,316.2794 180.8213,315.8106 Q181.9619,315.3263 183.4306,315.3263 Q184.3838,315.3263 185.2744,315.5294 Q186.1806,315.7169 187.1181,316.1856 L186.29,317.9669 Q185.5088,317.5919 184.8525,317.4044 Q184.1963,317.2013 183.3994,317.2013 Z " fill="#000000"/><text fill="#FF0000" font-family="sans-serif" font-size="14" lengthAdjust="spacing" textLength="71.4977" x="197.29" y="327.102">SetupError</text><line style="stroke:#181818;stroke-width:0.5;" x1="169.29" x2="270.7877" y1="337.67" y2="337.67"/><line style="stroke:#181818;stroke-width:0.5;" x1="169.29" x2="270.7877" y1="345.67" y2="345.67"/></g><?plantuml-src TP11Ri8m44NtdCBY0ArWYH2hikYgI1p0SfCXiUh4eva99QguUnsNE7LGLh7VVF__9moYMjC0eodW36Z8Y2VL-XPMXJFCQlq6Lnjc2CLQ6LPmGq-Y6t6iaVp5EdYP9EfdfQAXsYaM2XTqHYwUcWIant5w7pEEDo5pscmN4qP1z2yj1zTUPpcsX5Qiz9fTLqtfcwt-x0KuaFXziC4qVu-X2DPa-AdS-yFvPAJcnOQPAjOi86WmN8FXG0FwWdv6XZ8paehC1WnaZPl3_zkoc0fA_Umv3lwwPiEqviTt2yIrnSKLaoAkLzaoUDXMXZFv3lF_wGTnZhhq8eNk2-yyxGZAmncamoEHf_rhf8V58fCqDBd_0W00?></g></svg>
