<?plantuml 1.2026.2?><svg xmlns="http://www.w3.org/2000/svg" xmlns:xlink="http://www.w3.org/1999/xlink" contentStyleType="text/css" data-diagram-type="CLASS" height="398px" preserveAspectRatio="none" style="width:579px;height:398px;background:#FFFFFF;" version="1.1" viewBox="0 0 579 398" width="579px" zoomAndPan="magnify"><defs/><g><!--class export_mtls_profile.DeviceSpec--><g class="entity" data-qualified-name="export_mtls_profile.DeviceSpec" data-source-line="2" id="ent0002"><rect fill="#F1F1F1" height="143.3396" rx="2.5" ry="2.5" style="stroke:#181818;stroke-width:0.5;" width="177.4653" x="7" y="35.6"/><ellipse cx="54.2988" cy="51.6" fill="#ADD1B2" rx="11" ry="11" style="stroke:#181818;stroke-width:1;"/><path d="M54.4082,46.8813 Q53.4863,46.8813 52.752,47.1938 Q52.0332,47.5063 51.5332,48.1 Q51.0332,48.6781 50.752,49.5531 Q50.4863,50.4281 50.4863,51.5219 Q50.4863,52.9594 50.9238,54.0063 Q51.377,55.0531 52.2207,55.6 Q53.0801,56.1469 54.3926,56.1469 Q55.1738,56.1469 55.8613,56.0219 Q56.5645,55.8813 57.5645,55.5688 L57.5645,57.4438 Q56.7051,57.7719 55.9395,57.8969 Q55.1895,58.0219 54.1738,58.0219 Q52.252,58.0219 50.9395,57.225 Q49.6426,56.4125 48.9863,54.9438 Q48.3301,53.4594 48.3301,51.4906 Q48.3301,50.0688 48.7207,48.8969 Q49.127,47.7094 49.9082,46.8344 Q50.6895,45.9594 51.8301,45.4906 Q52.9707,45.0063 54.4395,45.0063 Q55.3926,45.0063 56.2832,45.2094 Q57.1895,45.3969 58.127,45.8656 L57.2988,47.6469 Q56.5176,47.2719 55.8613,47.0844 Q55.2051,46.8813 54.4082,46.8813 Z " fill="#000000"/><text fill="#000000" font-family="sans-serif" font-size="14" lengthAdjust="spacing" textLength="74.3677" x="74.7988" y="57.032">DeviceSpec</text><line style="stroke:#181818;stroke-width:0.5;" x1="8" x2="183.4653" y1="67.6" y2="67.6"/><text fill="#000000" font-family="sans-serif" font-size="14" lengthAdjust="spacing" textLength="66.0658" x="13" y="86.5659">name : str</text><text fill="#000000" font-family="sans-serif" font-size="14" lengthAdjust="spacing" textLength="159.2494" x="13" y="105.6339">notify_email : str | None</text><text fill="#000000" font-family="sans-serif" font-size="14" lengthAdjust="spacing" textLength="165.4653" x="13" y="124.7018">notify_phone : str | None</text><text fill="#000000" font-family="sans-serif" font-size="14" lengthAdjust="spacing" textLength="85.8617" x="13" y="143.7697">platform : str</text><text fill="#000000" font-family="sans-serif" font-size="14" lengthAdjust="spacing" textLength="57.2738" x="13" y="162.8376">type : str</text><line style="stroke:#181818;stroke-width:0.5;" x1="8" x2="183.4653" y1="170.9396" y2="170.9396"/></g><!--class export_mtls_profile.ExtraP12--><g class="entity" data-qualified-name="export_mtls_profile.ExtraP12" data-source-line="9" id="ent0003"><rect fill="#F1F1F1" height="143.3396" rx="2.5" ry="2.5" style="stroke:#181818;stroke-width:0.5;" width="135.0595" x="219.2" y="35.6"/><ellipse cx="254.3122" cy="51.6" fill="#ADD1B2" rx="11" ry="11" style="stroke:#181818;stroke-width:1;"/><path d="M254.4216,46.8813 Q253.4997,46.8813 252.7653,47.1938 Q252.0466,47.5063 251.5466,48.1 Q251.0466,48.6781 250.7653,49.5531 Q250.4997,50.4281 250.4997,51.5219 Q250.4997,52.9594 250.9372,54.0063 Q251.3903,55.0531 252.2341,55.6 Q253.0934,56.1469 254.4059,56.1469 Q255.1872,56.1469 255.8747,56.0219 Q256.5778,55.8813 257.5778,55.5688 L257.5778,57.4438 Q256.7184,57.7719 255.9528,57.8969 Q255.2028,58.0219 254.1872,58.0219 Q252.2653,58.0219 250.9528,57.225 Q249.6559,56.4125 248.9997,54.9438 Q248.3434,53.4594 248.3434,51.4906 Q248.3434,50.0688 248.7341,48.8969 Q249.1403,47.7094 249.9216,46.8344 Q250.7028,45.9594 251.8434,45.4906 Q252.9841,45.0063 254.4528,45.0063 Q255.4059,45.0063 256.2966,45.2094 Q257.2028,45.3969 258.1403,45.8656 L257.3122,47.6469 Q256.5309,47.2719 255.8747,47.0844 Q255.2184,46.8813 254.4216,46.8813 Z " fill="#000000"/><text fill="#000000" font-family="sans-serif" font-size="14" lengthAdjust="spacing" textLength="58.3658" x="272.7815" y="57.032">ExtraP12</text><line style="stroke:#181818;stroke-width:0.5;" x1="220.2" x2="353.2595" y1="67.6" y2="67.6"/><text fill="#000000" font-family="sans-serif" font-size="14" lengthAdjust="spacing" textLength="118.4256" x="225.2" y="86.5659">display_name : str</text><text fill="#000000" font-family="sans-serif" font-size="14" lengthAdjust="spacing" textLength="111.9996" x="225.2" y="105.6339">identity_slug : str</text><text fill="#000000" font-family="sans-serif" font-size="14" lengthAdjust="spacing" textLength="112.6856" x="225.2" y="124.7018">p12_bytes : bytes</text><text fill="#000000" font-family="sans-serif" font-size="14" lengthAdjust="spacing" textLength="123.0595" x="225.2" y="143.7697">p12_file_name : str</text><text fill="#000000" font-family="sans-serif" font-size="14" lengthAdjust="spacing" textLength="103.9496" x="225.2" y="162.8376">passphrase : str</text><line style="stroke:#181818;stroke-width:0.5;" x1="220.2" x2="353.2595" y1="170.9396" y2="170.9396"/></g><!--class export_mtls_profile.IdentityPaths--><g class="entity" data-qualified-name="export_mtls_profile.IdentityPaths" data-source-line="16" id="ent0004"><rect fill="#F1F1F1" height="200.5433" rx="2.5" ry="2.5" style="stroke:#181818;stroke-width:0.5;" width="183.1914" x="389.14" y="7"/><ellipse cx="432.8013" cy="23" fill="#ADD1B2" rx="11" ry="11" style="stroke:#181818;stroke-width:1;"/><path d="M432.9106,18.2813 Q431.9888,18.2813 431.2544,18.5938 Q430.5356,18.9063 430.0356,19.5 Q429.5356,20.0781 429.2544,20.9531 Q428.9888,21.8281 428.9888,22.9219 Q428.9888,24.3594 429.4263,25.4063 Q429.8794,26.4531 430.7231,27 Q431.5825,27.5469 432.895,27.5469 Q433.6763,27.5469 434.3638,27.4219 Q435.0669,27.2813 436.0669,26.9688 L436.0669,28.8438 Q435.2075,29.1719 434.4419,29.2969 Q433.6919,29.4219 432.6763,29.4219 Q430.7544,29.4219 429.4419,28.625 Q428.145,27.8125 427.4888,26.3438 Q426.8325,24.8594 426.8325,22.8906 Q426.8325,21.4688 427.2231,20.2969 Q427.6294,19.1094 428.4106,18.2344 Q429.1919,17.3594 430.3325,16.8906 Q431.4731,16.4063 432.9419,16.4063 Q433.895,16.4063 434.7856,16.6094 Q435.6919,16.7969 436.6294,17.2656 L435.8013,19.0469 Q435.02,18.6719 434.3638,18.4844 Q433.7075,18.2813 432.9106,18.2813 Z " fill="#000000"/><text fill="#000000" font-family="sans-serif" font-size="14" lengthAdjust="spacing" textLength="87.4997" x="453.1704" y="28.432">IdentityPaths</text><line style="stroke:#181818;stroke-width:0.5;" x1="390.14" x2="571.3314" y1="39" y2="39"/><text fill="#000000" font-family="sans-serif" font-size="14" lengthAdjust="spacing" textLength="102.8996" x="395.14" y="57.9659">cert_path : Path</text><text fill="#000000" font-family="sans-serif" font-size="14" lengthAdjust="spacing" textLength="99.9596" x="395.14" y="77.0339">key_path : Path</text><text fill="#000000" font-family="sans-serif" font-size="14" lengthAdjust="spacing" textLength="102.0736" x="395.14" y="96.1018">p12_path : Path</text><text fill="#000000" font-family="sans-serif" font-size="14" lengthAdjust="spacing" textLength="152.8234" x="395.14" y="115.1697">passphrase_path : Path</text><text fill="#000000" font-family="sans-serif" font-size="14" lengthAdjust="spacing" textLength="112.9096" x="395.14" y="134.2376">serial_path : Path</text><text fill="#000000" font-family="sans-serif" font-size="14" lengthAdjust="spacing" textLength="56.1538" x="395.14" y="153.3055">slug : str</text><text fill="#000000" font-family="sans-serif" font-size="14" lengthAdjust="spacing" textLength="153.0194" x="395.14" y="172.3734">staged_p12_path : Path</text><text fill="#000000" font-family="sans-serif" font-size="14" lengthAdjust="spacing" textLength="171.1914" x="395.14" y="191.4414">staged_profile_path : Path</text><line style="stroke:#181818;stroke-width:0.5;" x1="390.14" x2="571.3314" y1="199.5433" y2="199.5433"/></g><!--class export_mtls_profile.Ownership--><g class="entity" data-qualified-name="export_mtls_profile.Ownership" data-source-line="26" id="ent0005"><rect fill="#F1F1F1" height="124.2717" rx="2.5" ry="2.5" style="stroke:#181818;stroke-width:0.5;" width="126.0856" x="32.69" y="267.54"/><ellipse cx="57.697" cy="283.54" fill="#ADD1B2" rx="11" ry="11" style="stroke:#181818;stroke-width:1;"/><path d="M57.8064,278.8213 Q56.8845,278.8213 56.1502,279.1338 Q55.4314,279.4463 54.9314,280.04 Q54.4314,280.6181 54.1502,281.4931 Q53.8845,282.3681 53.8845,283.4619 Q53.8845,284.8994 54.322,285.9463 Q54.7752,286.9931 55.6189,287.54 Q56.4783,288.0869 57.7908,288.0869 Q58.572,288.0869 59.2595,287.9619 Q59.9627,287.8213 60.9627,287.5088 L60.9627,289.3838 Q60.1033,289.7119 59.3377,289.8369 Q58.5877,289.9619 57.572,289.9619 Q55.6502,289.9619 54.3377,289.165 Q53.0408,288.3525 52.3845,286.8838 Q51.7283,285.3994 51.7283,283.4306 Q51.7283,282.0088 52.1189,280.8369 Q52.5252,279.6494 53.3064,278.7744 Q54.0877,277.8994 55.2283,277.4306 Q56.3689,276.9463 57.8377,276.9463 Q58.7908,276.9463 59.6814,277.1494 Q60.5877,277.3369 61.5252,277.8056 L60.697,279.5869 Q59.9158,279.2119 59.2595,279.0244 Q58.6033,278.8213 57.8064,278.8213 Z " fill="#000000"/><text fill="#000000" font-family="sans-serif" font-size="14" lengthAdjust="spacing" textLength="71.8477" x="73.9208" y="288.972">Ownership</text><line style="stroke:#181818;stroke-width:0.5;" x1="33.69" x2="157.7756" y1="299.54" y2="299.54"/><text fill="#000000" font-family="sans-serif" font-size="14" lengthAdjust="spacing" textLength="49.1818" x="38.69" y="318.5059">gid : int</text><text fill="#000000" font-family="sans-serif" font-size="14" lengthAdjust="spacing" textLength="112.4056" x="38.69" y="337.5739">group_name : str</text><text fill="#000000" font-family="sans-serif" font-size="14" lengthAdjust="spacing" textLength="114.0856" x="38.69" y="356.6418">owner_name : str</text><text fill="#000000" font-family="sans-serif" font-size="14" lengthAdjust="spacing" textLength="49.2238" x="38.69" y="375.7097">uid : int</text><line style="stroke:#181818;stroke-width:0.5;" x1="33.69" x2="157.7756" y1="383.8117" y2="383.8117"/></g><!--class export_mtls_profile.SetupError--><g class="entity" data-qualified-name="export_mtls_profile.SetupError" data-source-line="32" id="ent0006"><rect fill="#F1F1F1" height="48" rx="2.5" ry="2.5" style="stroke:#181818;stroke-width:0.5;" width="103.4977" x="193.98" y="305.67"/><ellipse cx="208.98" cy="321.67" fill="#ADD1B2" rx="11" ry="11" style="stroke:#181818;stroke-width:1;"/><path d="M209.0894,316.9513 Q208.1675,316.9513 207.4331,317.2638 Q206.7144,317.5763 206.2144,318.17 Q205.7144,318.7481 205.4331,319.6231 Q205.1675,320.4981 205.1675,321.5919 Q205.1675,323.0294 205.605,324.0763 Q206.0581,325.1231 206.9019,325.67 Q207.7613,326.2169 209.0738,326.2169 Q209.855,326.2169 210.5425,326.0919 Q211.2456,325.9513 212.2456,325.6388 L212.2456,327.5138 Q211.3863,327.8419 210.6206,327.9669 Q209.8706,328.0919 208.855,328.0919 Q206.9331,328.0919 205.6206,327.295 Q204.3238,326.4825 203.6675,325.0138 Q203.0113,323.5294 203.0113,321.5606 Q203.0113,320.1388 203.4019,318.9669 Q203.8081,317.7794 204.5894,316.9044 Q205.3706,316.0294 206.5113,315.5606 Q207.6519,315.0763 209.1206,315.0763 Q210.0738,315.0763 210.9644,315.2794 Q211.8706,315.4669 212.8081,315.9356 L211.98,317.7169 Q211.1988,317.3419 210.5425,317.1544 Q209.8863,316.9513 209.0894,316.9513 Z " fill="#000000"/><text fill="#FF0000" font-family="sans-serif" font-size="14" lengthAdjust="spacing" textLength="71.4977" x="222.98" y="327.102">SetupError</text><line style="stroke:#181818;stroke-width:0.5;" x1="194.98" x2="296.4777" y1="337.67" y2="337.67"/><line style="stroke:#181818;stroke-width:0.5;" x1="194.98" x2="296.4777" y1="345.67" y2="345.67"/></g><?plantuml-src TP11Ri8m44NtdCBY0ArWYH2hikYcHU80bfjCY5Kd7irCMgoMkzSEn3H1MJdp__VF6pE8Qaq3ZAQ08w0X8vvKwrjO5Cumg-KBVDde8HHBPLZ16Js9RiInHlALTV1qZwYVXUeBrKQnK1gys2feQ8nrLr7zghVKdpsiupZrq1cfF3MvI08EhPU1RNyMCeVLUfPi2FHSfUNO6lI8pvRGYfMWsNMdhE9ghJ-204UbFszQAXtVnmY2DHb-W7kzDH-Cr3nBE4hrc0N43COn5YOrIfyG9ag2cIWPP68ma3LkAlxVbiMSeDIFdODnPHsPUSttxnQ8QukpA-P4lzx9bh73jfA-oNSuVa-VmcEfopVoJxU5Tvus1ENk2DBXdiZJzhbNTxCWzsWakVm1?></g></svg>
