<?plantuml 1.2026.2?><svg xmlns="http://www.w3.org/2000/svg" xmlns:xlink="http://www.w3.org/1999/xlink" contentStyleType="text/css" data-diagram-type="DESCRIPTION" height="701px" preserveAspectRatio="none" style="width:859px;height:701px;background:#FFFFFF;" version="1.1" viewBox="0 0 859 701" width="859px" zoomAndPan="magnify"><title>wiring-harness repository architecture</title><defs/><g><g class="title" data-source-line="2"><text fill="#000000" font-family="sans-serif" font-size="14" font-weight="bold" lengthAdjust="spacing" textLength="268.253" x="285.8314" y="24.9659">wiring-harness repository architecture</text></g><rect fill="none" height="123.1358" rx="2.5" ry="2.5" style="stroke:#000000;stroke-width:1;" width="781.7497" x="49.9245" y="317.6837"/><text fill="#000000" font-family="sans-serif" font-size="14" font-weight="bold" lengthAdjust="spacing" textLength="104.1526" x="388.723" y="334.6496">wiring-harness</text><!--entity mtls--><g class="entity" data-qualified-name="wiring-harness.mtls" data-source-line="8" id="ent0005"><rect fill="#F1F1F1" height="68.1358" rx="2.5" ry="2.5" style="stroke:#181818;stroke-width:0.5;" width="244.8052" x="297.0958" y="357.6837"/><rect fill="#F1F1F1" height="10" style="stroke:#181818;stroke-width:0.5;" width="15" x="521.901" y="362.6837"/><rect fill="#F1F1F1" height="2" style="stroke:#181818;stroke-width:0.5;" width="4" x="519.901" y="364.6837"/><rect fill="#F1F1F1" height="2" style="stroke:#181818;stroke-width:0.5;" width="4" x="519.901" y="368.6837"/><text fill="#000000" font-family="sans-serif" font-size="14" lengthAdjust="spacing" textLength="88.9977" x="312.0958" y="392.6496">setup-mtls.sh</text><text fill="#000000" font-family="sans-serif" font-size="14" lengthAdjust="spacing" textLength="204.8052" x="312.0958" y="411.7176">CA + server cert + mobileconfig</text></g><!--entity caddy--><g class="entity" data-qualified-name="wiring-harness.caddy" data-source-line="9" id="ent0006"><rect fill="#F1F1F1" height="68.1358" rx="2.5" ry="2.5" style="stroke:#181818;stroke-width:0.5;" width="254.7732" x="561.901" y="357.6837"/><rect fill="#F1F1F1" height="10" style="stroke:#181818;stroke-width:0.5;" width="15" x="796.6742" y="362.6837"/><rect fill="#F1F1F1" height="2" style="stroke:#181818;stroke-width:0.5;" width="4" x="794.6742" y="364.6837"/><rect fill="#F1F1F1" height="2" style="stroke:#181818;stroke-width:0.5;" width="4" x="794.6742" y="368.6837"/><text fill="#000000" font-family="sans-serif" font-size="14" lengthAdjust="spacing" textLength="101.5696" x="576.901" y="392.6496">setup_caddy.py</text><text fill="#000000" font-family="sans-serif" font-size="14" lengthAdjust="spacing" textLength="214.7732" x="576.901" y="411.7176">render + provision shared Caddy</text></g><!--entity export--><g class="entity" data-qualified-name="wiring-harness.export" data-source-line="10" id="ent0007"><rect fill="#F1F1F1" height="68.1358" rx="2.5" ry="2.5" style="stroke:#181818;stroke-width:0.5;" width="212.1713" x="64.9245" y="357.6837"/><rect fill="#F1F1F1" height="10" style="stroke:#181818;stroke-width:0.5;" width="15" x="257.0958" y="362.6837"/><rect fill="#F1F1F1" height="2" style="stroke:#181818;stroke-width:0.5;" width="4" x="255.0958" y="364.6837"/><rect fill="#F1F1F1" height="2" style="stroke:#181818;stroke-width:0.5;" width="4" x="255.0958" y="368.6837"/><text fill="#000000" font-family="sans-serif" font-size="14" lengthAdjust="spacing" textLength="146.4115" x="79.9245" y="392.6496">export_mtls_profile.py</text><text fill="#000000" font-family="sans-serif" font-size="14" lengthAdjust="spacing" textLength="172.1713" x="79.9245" y="411.7176">per-device client identities</text></g><!--entity operator--><g class="entity" data-qualified-name="operator" data-source-line="4" id="ent0002"><ellipse cx="419.4984" cy="60.5679" fill="#F1F1F1" rx="8" ry="8" style="stroke:#181818;stroke-width:0.5;"/><path d="M419.4984,68.5679 L419.4984,95.5679 M406.4984,76.5679 L432.4984,76.5679 M419.4984,95.5679 L406.4984,110.5679 M419.4984,95.5679 L432.4984,110.5679" fill="none" style="stroke:#181818;stroke-width:0.5;"/><text fill="#000000" font-family="sans-serif" font-size="14" lengthAdjust="spacing" textLength="60.3818" x="389.3075" y="127.0339">Operator</text></g><!--entity registry--><g class="entity" data-qualified-name="registry" data-source-line="5" id="ent0003"><path d="M577.2525,195.3418 L577.2525,248.4777 A2.5,2.5 0 0 0 579.7525,250.9777 L694.6981,250.9777 A2.5,2.5 0 0 0 697.1981,248.4777 L697.1981,202.8418 L687.1981,192.8418 L579.7525,192.8418 A2.5,2.5 0 0 0 577.2525,195.3418" fill="#F1F1F1" style="stroke:#181818;stroke-width:0.5;"/><path d="M687.1981,192.8418 L687.1981,200.3418 A2.5,2.5 0 0 0 689.6981,202.8418 L697.1981,202.8418" fill="#F1F1F1" style="stroke:#181818;stroke-width:0.5;"/><text fill="#000000" font-family="sans-serif" font-size="14" lengthAdjust="spacing" textLength="86.4077" x="587.2525" y="217.8078">services.toml</text><text fill="#000000" font-family="sans-serif" font-size="14" lengthAdjust="spacing" textLength="99.9456" x="587.2525" y="236.8757">service registry</text></g><!--entity ingress--><g class="entity" data-qualified-name="ingress" data-source-line="13" id="ent0008"><path d="M624.8402,516.654 C627.6362,509.9341 633.9319,509.6518 637.4611,515.9428 C639.1798,511.5502 643.3009,510.0969 646.7165,514.064 C651.0722,507.878 655.7316,508.4174 659.0542,515.0577 C661.5846,509.564 665.0911,508.1393 670.0125,512.3608 C673.7177,507.1335 677.5346,505.2366 682.1041,511.447 C684.6317,505.7664 689.8725,505.7857 693.1588,510.6519 C696.0203,506.0516 701.147,504.9637 704.3021,510.3234 C707.6946,506.4743 712.3235,506.5044 714.5097,511.6868 C717.9063,505.5786 722.2481,506.4703 725.6332,511.6982 C729.6306,507.0472 733.879,507.2054 736.9338,512.7436 C741.857,508.454 746.1803,507.3234 749.2099,514.731 C753.1029,510.5333 756.3546,509.8628 759.4365,515.5685 C762.638,510.4787 766.1677,510.1385 769.9362,514.9684 C775.0385,510.187 778.9977,511.0728 782.3809,516.9716 C789.9103,518.915 790.0677,525.4478 785.2904,530.1154 C791.9838,532.4087 794.4125,538.7302 788.0253,543.6639 C793.6701,548.5581 793.4527,553.7747 786.0812,556.7326 C789.3927,561.5502 788.2096,565.8215 782.485,567.6673 C779.4479,572.7775 775.2143,574.3985 771.0483,568.8822 C768.4048,573.9319 763.7924,576.1953 759.6914,570.4097 C756.6318,575.3014 752.9773,575.4308 749.4361,570.9359 C745.2897,576.5299 740.6924,576.5845 736.8374,570.6184 C734.0111,575.4235 731.027,576.6228 726.6835,572.3074 C723.9876,577.7666 719.2925,577.7409 715.6565,573.3611 C712.3308,579.3495 708.909,580.4058 704.1139,574.8275 C699.7889,581.0953 695.5731,580.4141 692.1763,573.9567 C688.2748,578.3857 684.2693,578.6082 680.9741,573.2619 C677.6448,577.6199 673.0154,577.4957 670.9036,572.0156 C667.1243,576.7463 663.4807,578.0162 659.7067,572.0101 C655.2749,577.7373 650.8234,576.8342 647.1822,571.143 C643.0965,575.8906 638.7486,575.2332 636.6642,569.192 C633.0809,575.2596 627.7499,574.1589 624.4309,568.9063 C616.9782,566.9192 615.1705,562.4764 619.8006,556.1153 C610.7202,553.2485 610.1174,548.6411 615.787,541.6747 C611.3015,535.1175 613.0234,531.543 620.6449,530.0413 C614.673,523.4183 616.5876,518.8193 624.8402,516.654" fill="#F1F1F1" style="stroke:#181818;stroke-width:0.5;"/><text fill="#000000" font-family="sans-serif" font-size="14" lengthAdjust="spacing" textLength="142.7855" x="631.0886" y="537.4915">Shared Caddy ingress</text><text fill="#000000" font-family="sans-serif" font-size="14" lengthAdjust="spacing" textLength="96.4316" x="631.0886" y="556.5594">80/443 + mTLS</text></g><!--entity backends--><g class="entity" data-qualified-name="backends" data-source-line="14" id="ent0009"><rect fill="#F1F1F1" height="54.1358" rx="2.5" ry="2.5" style="stroke:#181818;stroke-width:0.5;" width="298.8689" x="555.0468" y="641.3674"/><rect fill="#F1F1F1" height="54.1358" rx="2.5" ry="2.5" style="stroke:#181818;stroke-width:0.5;" width="298.8689" x="551.0468" y="637.3674"/><text fill="#000000" font-family="sans-serif" font-size="14" lengthAdjust="spacing" textLength="112.3775" x="559.0468" y="660.3334">Backend services</text><text fill="#000000" font-family="sans-serif" font-size="14" lengthAdjust="spacing" textLength="282.8689" x="559.0468" y="679.4013">clockwork, intake, snowbridge, tachometer</text></g><!--entity artifacts--><g class="entity" data-qualified-name="artifacts" data-source-line="15" id="ent0010"><path d="M77.8331,517.5256 C77.8331,507.5256 217.5986,507.5256 217.5986,507.5256 C217.5986,507.5256 357.3641,507.5256 357.3641,517.5256 L357.3641,564.6614 C357.3641,574.6614 217.5986,574.6614 217.5986,574.6614 C217.5986,574.6614 77.8331,574.6614 77.8331,564.6614 L77.8331,517.5256" fill="#F1F1F1" style="stroke:#181818;stroke-width:0.5;"/><path d="M77.8331,517.5256 C77.8331,527.5256 217.5986,527.5256 217.5986,527.5256 C217.5986,527.5256 357.3641,527.5256 357.3641,517.5256" fill="none" style="stroke:#181818;stroke-width:0.5;"/><text fill="#000000" font-family="sans-serif" font-size="14" lengthAdjust="spacing" textLength="126.9235" x="87.8331" y="546.4915">Generated artifacts</text><text fill="#000000" font-family="sans-serif" font-size="14" lengthAdjust="spacing" textLength="259.531" x="87.8331" y="565.5594">certs, mobileconfigs, dnsmasq snippets</text></g><line style="stroke:#181818;stroke-width:1;" x1="434.5938" x2="434.5938" y1="131.1358" y2="141.1358"/><line style="stroke:#181818;stroke-width:1;" x1="434.5938" x2="637.2253" y1="141.1358" y2="141.1358"/><line style="stroke:#181818;stroke-width:1;" x1="637.2253" x2="637.2253" y1="141.1358" y2="192.8418"/><polygon fill="#181818" points="637.2253,192.8418,641.2253,183.8418,637.2253,187.8418,633.2253,183.8418,637.2253,192.8418" style="stroke:#181818;stroke-width:1;"/><text fill="#000000" font-family="sans-serif" font-size="13" lengthAdjust="spacing" textLength="96.9801" x="642.2253" y="167.0328">declare services</text><line style="stroke:#181818;stroke-width:1;" x1="637.2253" x2="637.2253" y1="250.9777" y2="302.6837"/><line style="stroke:#181818;stroke-width:1;" x1="637.2253" x2="689.2876" y1="302.6837" y2="302.6837"/><line style="stroke:#181818;stroke-width:1;" x1="689.2876" x2="689.2876" y1="302.6837" y2="357.6837"/><polygon fill="#181818" points="689.2876,357.6837,693.2876,348.6837,689.2876,352.6837,685.2876,348.6837,689.2876,357.6837" style="stroke:#181818;stroke-width:1;"/><text fill="#000000" font-family="sans-serif" font-size="13" lengthAdjust="spacing" textLength="205.7512" x="642.2253" y="286.8747">hostnames + ports + CA overrides</text><line style="stroke:#181818;stroke-width:1;" x1="419.4984" x2="419.4984" y1="131.1358" y2="357.6837"/><polygon fill="#181818" points="419.4984,357.6837,423.4984,348.6837,419.4984,352.6837,415.4984,348.6837,419.4984,357.6837" style="stroke:#181818;stroke-width:1;"/><text fill="#000000" font-family="sans-serif" font-size="13" lengthAdjust="spacing" textLength="130.7541" x="424.4984" y="226.9538">refresh trust material</text><line style="stroke:#181818;stroke-width:1;" x1="404.4029" x2="404.4029" y1="131.1358" y2="302.6837"/><line style="stroke:#181818;stroke-width:1;" x1="404.4029" x2="171.0101" y1="302.6837" y2="302.6837"/><line style="stroke:#181818;stroke-width:1;" x1="171.0101" x2="171.0101" y1="302.6837" y2="357.6837"/><polygon fill="#181818" points="171.0101,357.6837,175.0101,348.6837,171.0101,352.6837,167.0101,348.6837,171.0101,357.6837" style="stroke:#181818;stroke-width:1;"/><text fill="#000000" font-family="sans-serif" font-size="13" lengthAdjust="spacing" textLength="122.7591" x="277.6438" y="226.9538">issue device profiles</text><line style="stroke:#181818;stroke-width:1;" x1="378.6975" x2="378.6975" y1="425.8195" y2="497.5256"/><line style="stroke:#181818;stroke-width:1;" x1="378.6975" x2="264.1871" y1="497.5256" y2="497.5256"/><line style="stroke:#181818;stroke-width:1;" x1="264.1871" x2="264.1871" y1="497.5256" y2="507.5256"/><polygon fill="#181818" points="264.1871,507.5256,268.1871,498.5256,264.1871,502.5256,260.1871,498.5256,264.1871,507.5256" style="stroke:#181818;stroke-width:1;"/><text fill="#000000" font-family="sans-serif" font-size="13" lengthAdjust="spacing" textLength="124.3711" x="383.6975" y="481.7165">write certs + profiles</text><line style="stroke:#181818;stroke-width:1;" x1="171.0101" x2="171.0101" y1="425.8195" y2="507.5256"/><polygon fill="#181818" points="171.0101,507.5256,175.0101,498.5256,171.0101,502.5256,167.0101,498.5256,171.0101,507.5256" style="stroke:#181818;stroke-width:1;"/><text fill="#000000" font-family="sans-serif" font-size="13" lengthAdjust="spacing" textLength="153.0101" x="14" y="481.7165">stage per-device bundles</text><line style="stroke:#181818;stroke-width:1;" x1="689.2876" x2="689.2876" y1="425.8195" y2="497.5256"/><line style="stroke:#181818;stroke-width:1;" x1="689.2876" x2="731.2789" y1="497.5256" y2="497.5256"/><line style="stroke:#181818;stroke-width:1;" x1="731.2789" x2="731.2789" y1="497.5256" y2="507.5256"/><polygon fill="#181818" points="731.2789,507.5256,735.2789,498.5256,731.2789,502.5256,727.2789,498.5256,731.2789,507.5256" style="stroke:#181818;stroke-width:1;"/><text fill="#000000" font-family="sans-serif" font-size="13" lengthAdjust="spacing" textLength="132.8211" x="694.2876" y="481.7165">install config + restart</text><line style="stroke:#181818;stroke-width:1;" x1="702.4813" x2="702.4813" y1="575.6614" y2="637.3674"/><polygon fill="#181818" points="702.4813,637.3674,706.4813,628.3674,702.4813,632.3674,698.4813,628.3674,702.4813,637.3674" style="stroke:#181818;stroke-width:1;"/><text fill="#000000" font-family="sans-serif" font-size="13" lengthAdjust="spacing" textLength="83.681" x="614.8002" y="611.5584">reverse proxy</text><line style="stroke:#181818;stroke-width:1;" x1="460.2992" x2="460.2992" y1="425.8195" y2="455.8195"/><line style="stroke:#181818;stroke-width:1;" x1="460.2992" x2="673.6837" y1="455.8195" y2="455.8195"/><line style="stroke:#181818;stroke-width:1;" x1="673.6837" x2="673.6837" y1="455.8195" y2="507.5256"/><polygon fill="#181818" points="673.6837,507.5256,677.6837,498.5256,673.6837,502.5256,669.6837,498.5256,673.6837,507.5256" style="stroke:#181818;stroke-width:1;"/><text fill="#000000" font-family="sans-serif" font-size="13" lengthAdjust="spacing" textLength="147.6151" x="522.0686" y="481.7165">shared server certificate</text><?plantuml-src RPD1Rzim38Nl-XMShqso0UjXs670riCk1NReZW42HM9i8RBaadHJOzX_7oKxIJFqOblsuoS-Fld3GBRjBKGxvL40uz58a8Xm2XHIk-ui9MG6mY5pa4mJM79T47Go4XfZdRw4vjU0PFMf0SkGbuKv12KrZFGI7F96SX-tQLagiWqiDDMIyy8OKh9DRIcyxQ61FmR0vNx82PCKhep3kfV86-wswU4xt4618u534btrUQyTk9mEeQtR5F4xa9spta-ROTecmkGLS0S3vPV08ITWRG0zF1HDfLJrBGPVXqooA_oTLXRZ5QUJM7kiVbqCHHgyNeC4vCgQ2yrVOrpCeuVcwSrkeFP9hM_JbqyVx-y_5qk_7vzguVB9k1pLecYZ3CqFwuvg0CuZtoQbkkCfqt6b5MAFk09E-RIdu5jz5kkwtAFWdDn-hcVZhTYzPGtX9wQIfhPaIS91yovKdI-lRkQhIv-uj_oi6uHXG9aDNggCEPyBMA-_NHA7h-3HHJLzwTfSlXLXdRQgkioIR8zSmj6PbRjcdZLlDQDLD_YIX1OH7dHA7GYDBD2h3mestahd25GSc4U49QubHJQLL7GN9oezaVu2zPZnV5PcxOBwNyrYMoLUpy9-JBxePsz5liHPkaWgZn7ciIfTtulIp5bIvEUWgaMT0DU6NwThjrVWSdxV_1hX49oEmlm3?></g></svg>
