<?plantuml 1.2026.2?><svg xmlns="http://www.w3.org/2000/svg" xmlns:xlink="http://www.w3.org/1999/xlink" contentStyleType="text/css" data-diagram-type="DESCRIPTION" height="771px" preserveAspectRatio="none" style="width:1817px;height:771px;background:#FFFFFF;" version="1.1" viewBox="0 0 1817 771" width="1817px" zoomAndPan="magnify"><title>wiring-harness repository architecture</title><defs/><g><g class="title" data-source-line="2"><text fill="#000000" font-family="sans-serif" font-size="14" font-weight="bold" lengthAdjust="spacing" textLength="268.253" x="764.5839" y="24.9659">wiring-harness repository architecture</text></g><rect fill="none" height="153.1358" rx="2.5" ry="2.5" style="stroke:#000000;stroke-width:1;" width="1392.8537" x="269.2577" y="347.6837"/><text fill="#000000" font-family="sans-serif" font-size="14" font-weight="bold" lengthAdjust="spacing" textLength="104.1526" x="913.6082" y="364.6496">wiring-harness</text><!--entity mtls--><g class="entity" data-qualified-name="wiring-harness.mtls" data-source-line="8" id="ent0005"><rect fill="#F1F1F1" height="68.1358" rx="2.5" ry="2.5" style="stroke:#181818;stroke-width:0.5;" width="244.8052" x="516.429" y="417.6837"/><rect fill="#F1F1F1" height="10" style="stroke:#181818;stroke-width:0.5;" width="15" x="741.2342" y="422.6837"/><rect fill="#F1F1F1" height="2" style="stroke:#181818;stroke-width:0.5;" width="4" x="739.2342" y="424.6837"/><rect fill="#F1F1F1" height="2" style="stroke:#181818;stroke-width:0.5;" width="4" x="739.2342" y="428.6837"/><text fill="#000000" font-family="sans-serif" font-size="14" lengthAdjust="spacing" textLength="88.9977" x="531.429" y="452.6496">setup-mtls.sh</text><text fill="#000000" font-family="sans-serif" font-size="14" lengthAdjust="spacing" textLength="204.8052" x="531.429" y="471.7176">CA + server cert + mobileconfig</text></g><!--entity caddy--><g class="entity" data-qualified-name="wiring-harness.caddy" data-source-line="9" id="ent0006"><rect fill="#F1F1F1" height="68.1358" rx="2.5" ry="2.5" style="stroke:#181818;stroke-width:0.5;" width="254.7732" x="1392.3382" y="417.6837"/><rect fill="#F1F1F1" height="10" style="stroke:#181818;stroke-width:0.5;" width="15" x="1627.1114" y="422.6837"/><rect fill="#F1F1F1" height="2" style="stroke:#181818;stroke-width:0.5;" width="4" x="1625.1114" y="424.6837"/><rect fill="#F1F1F1" height="2" style="stroke:#181818;stroke-width:0.5;" width="4" x="1625.1114" y="428.6837"/><text fill="#000000" font-family="sans-serif" font-size="14" lengthAdjust="spacing" textLength="101.5696" x="1407.3382" y="452.6496">setup_caddy.py</text><text fill="#000000" font-family="sans-serif" font-size="14" lengthAdjust="spacing" textLength="214.7732" x="1407.3382" y="471.7176">render + provision shared Caddy</text></g><!--entity macedge--><g class="entity" data-qualified-name="wiring-harness.macedge" data-source-line="10" id="ent0007"><rect fill="#F1F1F1" height="68.1358" rx="2.5" ry="2.5" style="stroke:#181818;stroke-width:0.5;" width="285.993" x="781.2342" y="417.6837"/><rect fill="#F1F1F1" height="10" style="stroke:#181818;stroke-width:0.5;" width="15" x="1047.2272" y="422.6837"/><rect fill="#F1F1F1" height="2" style="stroke:#181818;stroke-width:0.5;" width="4" x="1045.2272" y="424.6837"/><rect fill="#F1F1F1" height="2" style="stroke:#181818;stroke-width:0.5;" width="4" x="1045.2272" y="428.6837"/><text fill="#000000" font-family="sans-serif" font-size="14" lengthAdjust="spacing" textLength="204.5392" x="796.2342" y="452.6496">render_macos_private_edge.py</text><text fill="#000000" font-family="sans-serif" font-size="14" lengthAdjust="spacing" textLength="245.993" x="796.2342" y="471.7176">render-only Air Caddy + LaunchAgent</text></g><!--entity aircheck--><g class="entity" data-qualified-name="wiring-harness.aircheck" data-source-line="11" id="ent0008"><rect fill="#F1F1F1" height="68.1358" rx="2.5" ry="2.5" style="stroke:#181818;stroke-width:0.5;" width="285.111" x="1087.2272" y="417.6837"/><rect fill="#F1F1F1" height="10" style="stroke:#181818;stroke-width:0.5;" width="15" x="1352.3382" y="422.6837"/><rect fill="#F1F1F1" height="2" style="stroke:#181818;stroke-width:0.5;" width="4" x="1350.3382" y="424.6837"/><rect fill="#F1F1F1" height="2" style="stroke:#181818;stroke-width:0.5;" width="4" x="1350.3382" y="428.6837"/><text fill="#000000" font-family="sans-serif" font-size="14" lengthAdjust="spacing" textLength="157.9334" x="1102.2272" y="452.6496">check_macos_air_live.py</text><text fill="#000000" font-family="sans-serif" font-size="14" lengthAdjust="spacing" textLength="245.111" x="1102.2272" y="471.7176">readiness + independent-peer smoke</text></g><!--entity export--><g class="entity" data-qualified-name="wiring-harness.export" data-source-line="12" id="ent0009"><rect fill="#F1F1F1" height="68.1358" rx="2.5" ry="2.5" style="stroke:#181818;stroke-width:0.5;" width="212.1713" x="284.2577" y="417.6837"/><rect fill="#F1F1F1" height="10" style="stroke:#181818;stroke-width:0.5;" width="15" x="476.429" y="422.6837"/><rect fill="#F1F1F1" height="2" style="stroke:#181818;stroke-width:0.5;" width="4" x="474.429" y="424.6837"/><rect fill="#F1F1F1" height="2" style="stroke:#181818;stroke-width:0.5;" width="4" x="474.429" y="428.6837"/><text fill="#000000" font-family="sans-serif" font-size="14" lengthAdjust="spacing" textLength="146.4115" x="299.2577" y="452.6496">export_mtls_profile.py</text><text fill="#000000" font-family="sans-serif" font-size="14" lengthAdjust="spacing" textLength="172.1713" x="299.2577" y="471.7176">per-device client identities</text></g><!--entity operator--><g class="entity" data-qualified-name="operator" data-source-line="4" id="ent0002"><ellipse cx="381.1489" cy="60.5679" fill="#F1F1F1" rx="8" ry="8" style="stroke:#181818;stroke-width:0.5;"/><path d="M381.1489,68.5679 L381.1489,95.5679 M368.1489,76.5679 L394.1489,76.5679 M381.1489,95.5679 L368.1489,110.5679 M381.1489,95.5679 L394.1489,110.5679" fill="none" style="stroke:#181818;stroke-width:0.5;"/><text fill="#000000" font-family="sans-serif" font-size="14" lengthAdjust="spacing" textLength="60.3818" x="350.958" y="127.0339">Operator</text></g><!--entity registry--><g class="entity" data-qualified-name="registry" data-source-line="5" id="ent0003"><path d="M822.9168,215.3418 L822.9168,268.4777 A2.5,2.5 0 0 0 825.4168,270.9777 L940.3625,270.9777 A2.5,2.5 0 0 0 942.8625,268.4777 L942.8625,222.8418 L932.8625,212.8418 L825.4168,212.8418 A2.5,2.5 0 0 0 822.9168,215.3418" fill="#F1F1F1" style="stroke:#181818;stroke-width:0.5;"/><path d="M932.8625,212.8418 L932.8625,220.3418 A2.5,2.5 0 0 0 935.3625,222.8418 L942.8625,222.8418" fill="#F1F1F1" style="stroke:#181818;stroke-width:0.5;"/><text fill="#000000" font-family="sans-serif" font-size="14" lengthAdjust="spacing" textLength="86.4077" x="832.9168" y="237.8078">services.toml</text><text fill="#000000" font-family="sans-serif" font-size="14" lengthAdjust="spacing" textLength="99.9456" x="832.9168" y="256.8757">service registry</text></g><!--entity ingress--><g class="entity" data-qualified-name="ingress" data-source-line="15" id="ent0010"><path d="M1454.0918,586.654 C1456.8878,579.9341 1463.1835,579.6518 1466.7127,585.9428 C1468.4314,581.5502 1472.5525,580.0969 1475.9682,584.064 C1480.3238,577.878 1484.9832,578.4174 1488.3058,585.0577 C1490.8362,579.564 1494.3427,578.1393 1499.2641,582.3608 C1502.9693,577.1335 1506.7862,575.2366 1511.3557,581.447 C1513.8833,575.7664 1519.1242,575.7857 1522.4104,580.6519 C1525.2719,576.0516 1530.3986,574.9637 1533.5538,580.3234 C1536.9462,576.4743 1541.5752,576.5044 1543.7613,581.6868 C1547.158,575.5786 1551.4998,576.4703 1554.8848,581.6982 C1558.8822,577.0472 1563.1306,577.2054 1566.1854,582.7436 C1571.1086,578.454 1575.4319,577.3234 1578.4615,584.731 C1582.3545,580.5333 1585.6062,579.8628 1588.6881,585.5685 C1591.8896,580.4787 1595.4193,580.1385 1599.1878,584.9684 C1604.2902,580.187 1608.2493,581.0728 1611.6325,586.9716 C1619.1619,588.915 1619.3193,595.4478 1614.542,600.1154 C1621.2355,602.4087 1623.6642,608.7302 1617.2769,613.6639 C1622.9217,618.5581 1622.7043,623.7747 1615.3328,626.7326 C1618.6443,631.5502 1617.4612,635.8215 1611.7366,637.6673 C1608.6995,642.7775 1604.4659,644.3985 1600.3,638.8822 C1597.6564,643.9319 1593.044,646.1953 1588.943,640.4097 C1585.8834,645.3014 1582.2289,645.4308 1578.6877,640.9359 C1574.5413,646.5299 1569.944,646.5845 1566.089,640.6184 C1563.2627,645.4235 1560.2786,646.6228 1555.9351,642.3074 C1553.2392,647.7666 1548.5442,647.7409 1544.9081,643.3611 C1541.5824,649.3495 1538.1606,650.4058 1533.3655,644.8275 C1529.0405,651.0953 1524.8247,650.4141 1521.4279,643.9567 C1517.5264,648.3857 1513.5209,648.6082 1510.2257,643.2619 C1506.8964,647.6199 1502.267,647.4957 1500.1552,642.0156 C1496.3759,646.7463 1492.7323,648.0162 1488.9583,642.0101 C1484.5265,647.7373 1480.0751,646.8342 1476.4338,641.143 C1472.3481,645.8906 1468.0003,645.2332 1465.9158,639.192 C1462.3325,645.2596 1457.0015,644.1589 1453.6826,638.9063 C1446.2299,636.9192 1444.4221,632.4764 1449.0522,626.1153 C1439.9718,623.2485 1439.369,618.6411 1445.0387,611.6747 C1440.5532,605.1175 1442.275,601.543 1449.8965,600.0413 C1443.9247,593.4183 1445.8392,588.8193 1454.0918,586.654" fill="#F1F1F1" style="stroke:#181818;stroke-width:0.5;"/><text fill="#000000" font-family="sans-serif" font-size="14" lengthAdjust="spacing" textLength="142.7855" x="1460.3402" y="607.4915">Shared Caddy ingress</text><text fill="#000000" font-family="sans-serif" font-size="14" lengthAdjust="spacing" textLength="96.4316" x="1460.3402" y="626.5594">80/443 + mTLS</text></g><!--entity airingress--><g class="entity" data-qualified-name="airingress" data-source-line="16" id="ent0011"><path d="M1001.5933,586.1149 C1005.5891,577.9584 1013.3028,576.6358 1018.1589,585.2659 C1023.207,579.3446 1028.2181,578.8635 1032.675,585.9269 C1035.5959,580.312 1040.9647,579.3803 1045.3244,584.1794 C1048.9541,577.1646 1055.3044,575.5222 1060.5936,582.3487 C1064.1662,576.4355 1070.0908,575.2206 1074.0475,581.9397 C1078.3526,574.6425 1085.4341,573.2576 1090.0864,581.5832 C1094.9395,573.9531 1099.5664,574.9583 1105.0937,580.834 C1108.424,574.865 1114.992,573.1291 1119.015,580.088 C1123.867,573.7868 1130.3231,572.9639 1134.2448,581.0713 C1138.9684,575.0565 1145.3511,577.7573 1147.5841,583.8217 C1151.4099,575.4377 1157.563,575.425 1162.6098,582.646 C1167.3304,577.0543 1173.1947,577.0052 1176.2163,584.423 C1180.7467,578.3096 1188.0115,577.7415 1190.9515,586.0481 C1195.5644,580.6797 1199.8186,579.5986 1204.2098,586.2919 C1212.7127,587.1358 1215.9242,594.2841 1210.2803,600.9763 C1217.3695,601.6557 1219.9644,606.5884 1215.2765,612.4129 C1221.4338,619.054 1220.6784,624.5173 1211.4438,627.1575 C1214.2095,634.0741 1211.8797,637.9087 1204.7062,639.3189 C1199.7461,645.3539 1193.8255,644.8889 1190.2075,637.8326 C1185.538,644.3441 1181.0446,646.4288 1175.3373,638.9345 C1171.7794,644.4641 1167.5145,644.8296 1163.1826,639.8278 C1158.2197,647.2063 1152.5702,645.5263 1148.616,638.787 C1143.535,646.349 1138.7514,645.7935 1133.6536,638.8043 C1129.7115,646.312 1124.2395,647.171 1119.0365,640.0657 C1113.659,646.9907 1107.1394,647.6119 1102.7566,639.0221 C1099.9603,645.664 1093.9377,645.1499 1090.5581,639.606 C1085.3493,647.6235 1079.8718,645.384 1075.3066,638.9279 C1070.2278,646.7042 1065.0485,646.1632 1059.6609,639.257 C1055.6767,645.026 1050.892,645.2626 1046.9192,639.2446 C1042.7752,645.3788 1037.3904,647.0606 1032.8466,639.6602 C1027.3975,647.2256 1022.4365,646.4633 1017.9421,638.7301 C1014.1477,646.218 1006.4775,646.1752 1001.8041,639.7496 C988.4638,633.7599 986.5348,622.3343 997.135,612.2759 C986.2028,602.5318 988.9624,591.8434 1001.5933,586.1149" fill="#F1F1F1" style="stroke:#181818;stroke-width:0.5;"/><text fill="#000000" font-family="sans-serif" font-size="14" lengthAdjust="spacing" textLength="118.2435" x="1008.492" y="607.4915">Air WireGuard /32</text><text fill="#000000" font-family="sans-serif" font-size="14" lengthAdjust="spacing" textLength="188.3552" x="1008.492" y="626.5594">IP-literal mTLS on 8443/8444</text></g><!--entity backends--><g class="entity" data-qualified-name="backends" data-source-line="17" id="ent0012"><rect fill="#F1F1F1" height="54.1358" rx="2.5" ry="2.5" style="stroke:#181818;stroke-width:0.5;" width="298.8689" x="1384.2984" y="711.3674"/><rect fill="#F1F1F1" height="54.1358" rx="2.5" ry="2.5" style="stroke:#181818;stroke-width:0.5;" width="298.8689" x="1380.2984" y="707.3674"/><text fill="#000000" font-family="sans-serif" font-size="14" lengthAdjust="spacing" textLength="112.3775" x="1388.2984" y="730.3334">Backend services</text><text fill="#000000" font-family="sans-serif" font-size="14" lengthAdjust="spacing" textLength="282.8689" x="1388.2984" y="749.4013">clockwork, intake, snowbridge, tachometer</text></g><!--entity artifacts--><g class="entity" data-qualified-name="artifacts" data-source-line="18" id="ent0013"><path d="M250.5778,587.5256 C250.5778,577.5256 390.3433,577.5256 390.3433,577.5256 C390.3433,577.5256 530.1088,577.5256 530.1088,587.5256 L530.1088,634.6614 C530.1088,644.6614 390.3433,644.6614 390.3433,644.6614 C390.3433,644.6614 250.5778,644.6614 250.5778,634.6614 L250.5778,587.5256" fill="#F1F1F1" style="stroke:#181818;stroke-width:0.5;"/><path d="M250.5778,587.5256 C250.5778,597.5256 390.3433,597.5256 390.3433,597.5256 C390.3433,597.5256 530.1088,597.5256 530.1088,587.5256" fill="none" style="stroke:#181818;stroke-width:0.5;"/><text fill="#000000" font-family="sans-serif" font-size="14" lengthAdjust="spacing" textLength="126.9235" x="260.5778" y="616.4915">Generated artifacts</text><text fill="#000000" font-family="sans-serif" font-size="14" lengthAdjust="spacing" textLength="259.531" x="260.5778" y="635.5594">certs, mobileconfigs, dnsmasq snippets</text></g><line style="stroke:#181818;stroke-width:1;" x1="399.2634" x2="399.2634" y1="131.1358" y2="141.1358"/><line style="stroke:#181818;stroke-width:1;" x1="399.2634" x2="882.8896" y1="141.1358" y2="141.1358"/><line style="stroke:#181818;stroke-width:1;" x1="882.8896" x2="882.8896" y1="141.1358" y2="212.8418"/><polygon fill="#181818" points="882.8896,212.8418,886.8896,203.8418,882.8896,207.8418,878.8896,203.8418,882.8896,212.8418" style="stroke:#181818;stroke-width:1;"/><text fill="#000000" font-family="sans-serif" font-size="13" lengthAdjust="spacing" textLength="96.9801" x="887.8896" y="187.0328">declare services</text><line style="stroke:#181818;stroke-width:1;" x1="902.8806" x2="902.8806" y1="270.9777" y2="322.6837"/><line style="stroke:#181818;stroke-width:1;" x1="902.8806" x2="1519.7248" y1="322.6837" y2="322.6837"/><line style="stroke:#181818;stroke-width:1;" x1="1519.7248" x2="1519.7248" y1="322.6837" y2="417.6837"/><polygon fill="#181818" points="1519.7248,417.6837,1523.7248,408.6837,1519.7248,412.6837,1515.7248,408.6837,1519.7248,417.6837" style="stroke:#181818;stroke-width:1;"/><text fill="#000000" font-family="sans-serif" font-size="13" lengthAdjust="spacing" textLength="298.2203" x="907.8806" y="306.8747">hostnames + TCP/Unix upstreams + CA overrides</text><line style="stroke:#181818;stroke-width:1;" x1="862.8987" x2="862.8987" y1="270.9777" y2="332.6837"/><line style="stroke:#181818;stroke-width:1;" x1="862.8987" x2="971.8962" y1="332.6837" y2="332.6837"/><line style="stroke:#181818;stroke-width:1;" x1="971.8962" x2="971.8962" y1="332.6837" y2="417.6837"/><polygon fill="#181818" points="971.8962,417.6837,975.8962,408.6837,971.8962,412.6837,967.8962,408.6837,971.8962,417.6837" style="stroke:#181818;stroke-width:1;"/><text fill="#000000" font-family="sans-serif" font-size="13" lengthAdjust="spacing" textLength="197.0672" x="661.8316" y="306.8747">private Air bind + reviewed roles</text><line style="stroke:#181818;stroke-width:1;" x1="375.1107" x2="375.1107" y1="131.1358" y2="161.1358"/><line style="stroke:#181818;stroke-width:1;" x1="375.1107" x2="510.7885" y1="161.1358" y2="161.1358"/><line style="stroke:#181818;stroke-width:1;" x1="510.7885" x2="510.7885" y1="161.1358" y2="322.6837"/><line style="stroke:#181818;stroke-width:1;" x1="510.7885" x2="638.8316" y1="322.6837" y2="322.6837"/><line style="stroke:#181818;stroke-width:1;" x1="638.8316" x2="638.8316" y1="322.6837" y2="417.6837"/><polygon fill="#181818" points="638.8316,417.6837,642.8316,408.6837,638.8316,412.6837,634.8316,408.6837,638.8316,417.6837" style="stroke:#181818;stroke-width:1;"/><text fill="#000000" font-family="sans-serif" font-size="13" lengthAdjust="spacing" textLength="130.7541" x="376.0343" y="246.9538">refresh trust material</text><line style="stroke:#181818;stroke-width:1;" x1="363.0343" x2="363.0343" y1="131.1358" y2="322.6837"/><line style="stroke:#181818;stroke-width:1;" x1="363.0343" x2="390.3433" y1="322.6837" y2="322.6837"/><line style="stroke:#181818;stroke-width:1;" x1="390.3433" x2="390.3433" y1="322.6837" y2="417.6837"/><polygon fill="#181818" points="390.3433,417.6837,394.3433,408.6837,390.3433,412.6837,386.3433,408.6837,390.3433,417.6837" style="stroke:#181818;stroke-width:1;"/><text fill="#000000" font-family="sans-serif" font-size="13" lengthAdjust="spacing" textLength="122.7591" x="236.2753" y="246.9538">issue device profiles</text><line style="stroke:#181818;stroke-width:1;" x1="387.1871" x2="387.1871" y1="131.1358" y2="151.1358"/><line style="stroke:#181818;stroke-width:1;" x1="387.1871" x2="648.8316" y1="151.1358" y2="151.1358"/><line style="stroke:#181818;stroke-width:1;" x1="648.8316" x2="648.8316" y1="151.1358" y2="397.6837"/><line style="stroke:#181818;stroke-width:1;" x1="648.8316" x2="1229.7827" y1="397.6837" y2="397.6837"/><line style="stroke:#181818;stroke-width:1;" x1="1229.7827" x2="1229.7827" y1="397.6837" y2="417.6837"/><polygon fill="#181818" points="1229.7827,417.6837,1233.7827,408.6837,1229.7827,412.6837,1225.7827,408.6837,1229.7827,417.6837" style="stroke:#181818;stroke-width:1;"/><text fill="#000000" font-family="sans-serif" font-size="13" lengthAdjust="spacing" textLength="121.0431" x="523.7885" y="246.9538">run read-only check</text><line style="stroke:#181818;stroke-width:1;" x1="598.0307" x2="598.0307" y1="485.8195" y2="557.5256"/><line style="stroke:#181818;stroke-width:1;" x1="598.0307" x2="460.2261" y1="557.5256" y2="557.5256"/><line style="stroke:#181818;stroke-width:1;" x1="460.2261" x2="460.2261" y1="557.5256" y2="577.5256"/><polygon fill="#181818" points="460.2261,577.5256,464.2261,568.5256,460.2261,572.5256,456.2261,568.5256,460.2261,577.5256" style="stroke:#181818;stroke-width:1;"/><text fill="#000000" font-family="sans-serif" font-size="13" lengthAdjust="spacing" textLength="124.3711" x="603.0307" y="541.7165">write certs + profiles</text><line style="stroke:#181818;stroke-width:1;" x1="390.3433" x2="390.3433" y1="485.8195" y2="577.5256"/><polygon fill="#181818" points="390.3433,577.5256,394.3433,568.5256,390.3433,572.5256,386.3433,568.5256,390.3433,577.5256" style="stroke:#181818;stroke-width:1;"/><text fill="#000000" font-family="sans-serif" font-size="13" lengthAdjust="spacing" textLength="153.0101" x="233.3332" y="541.7165">stage per-device bundles</text><line style="stroke:#181818;stroke-width:1;" x1="1519.7248" x2="1519.7248" y1="485.8195" y2="515.8195"/><line style="stroke:#181818;stroke-width:1;" x1="1519.7248" x2="1560.5305" y1="515.8195" y2="515.8195"/><line style="stroke:#181818;stroke-width:1;" x1="1560.5305" x2="1560.5305" y1="515.8195" y2="577.5256"/><polygon fill="#181818" points="1560.5305,577.5256,1564.5305,568.5256,1560.5305,572.5256,1556.5305,568.5256,1560.5305,577.5256" style="stroke:#181818;stroke-width:1;"/><text fill="#000000" font-family="sans-serif" font-size="13" lengthAdjust="spacing" textLength="132.8211" x="1423.7094" y="541.7165">install config + restart</text><line style="stroke:#181818;stroke-width:1;" x1="924.2307" x2="924.2307" y1="485.8195" y2="515.8195"/><line style="stroke:#181818;stroke-width:1;" x1="924.2307" x2="1066.277" y1="515.8195" y2="515.8195"/><line style="stroke:#181818;stroke-width:1;" x1="1066.277" x2="1066.277" y1="515.8195" y2="577.5256"/><polygon fill="#181818" points="1066.277,577.5256,1070.277,568.5256,1066.277,572.5256,1062.277,568.5256,1066.277,577.5256" style="stroke:#181818;stroke-width:1;"/><text fill="#000000" font-family="sans-serif" font-size="13" lengthAdjust="spacing" textLength="156.2601" x="906.0169" y="541.7165">render only; no activation</text><line style="stroke:#181818;stroke-width:1;" x1="1182.2642" x2="1182.2642" y1="485.8195" y2="557.5256"/><line style="stroke:#181818;stroke-width:1;" x1="1182.2642" x2="1139.0621" y1="557.5256" y2="557.5256"/><line style="stroke:#181818;stroke-width:1;" x1="1139.0621" x2="1139.0621" y1="557.5256" y2="577.5256"/><polygon fill="#181818" points="1139.0621,577.5256,1143.0621,568.5256,1139.0621,572.5256,1135.0621,568.5256,1139.0621,577.5256" style="stroke:#181818;stroke-width:1;"/><text fill="#000000" font-family="sans-serif" font-size="13" lengthAdjust="spacing" textLength="211.4452" x="1187.2642" y="541.7165">observe probe-only access records</text><line style="stroke:#181818;stroke-width:1;" x1="1277.3012" x2="1277.3012" y1="485.8195" y2="515.8195"/><line style="stroke:#181818;stroke-width:1;" x1="1277.3012" x2="1410.7094" y1="515.8195" y2="515.8195"/><line style="stroke:#181818;stroke-width:1;" x1="1410.7094" x2="1410.7094" y1="515.8195" y2="557.5256"/><line style="stroke:#181818;stroke-width:1;" x1="1410.7094" x2="1638.1256" y1="557.5256" y2="557.5256"/><line style="stroke:#181818;stroke-width:1;" x1="1638.1256" x2="1638.1256" y1="557.5256" y2="697.3674"/><line style="stroke:#181818;stroke-width:1;" x1="1638.1256" x2="1607.4501" y1="697.3674" y2="697.3674"/><line style="stroke:#181818;stroke-width:1;" x1="1607.4501" x2="1607.4501" y1="697.3674" y2="707.3674"/><polygon fill="#181818" points="1607.4501,707.3674,1611.4501,698.3674,1607.4501,702.3674,1603.4501,698.3674,1607.4501,707.3674" style="stroke:#181818;stroke-width:1;"/><text fill="#000000" font-family="sans-serif" font-size="13" lengthAdjust="spacing" textLength="165.2952" x="1643.1256" y="616.6375">direct loopback health only</text><line style="stroke:#181818;stroke-width:1;" x1="1531.7329" x2="1531.7329" y1="645.6614" y2="707.3674"/><polygon fill="#181818" points="1531.7329,707.3674,1535.7329,698.3674,1531.7329,702.3674,1527.7329,698.3674,1531.7329,707.3674" style="stroke:#181818;stroke-width:1;"/><text fill="#000000" font-family="sans-serif" font-size="13" lengthAdjust="spacing" textLength="259.2982" x="1268.4347" y="681.5584">loopback TCP or permissioned Unix socket</text><line style="stroke:#181818;stroke-width:1;" x1="1102.6696" x2="1102.6696" y1="645.6614" y2="697.3674"/><line style="stroke:#181818;stroke-width:1;" x1="1102.6696" x2="1456.0157" y1="697.3674" y2="697.3674"/><line style="stroke:#181818;stroke-width:1;" x1="1456.0157" x2="1456.0157" y1="697.3674" y2="707.3674"/><polygon fill="#181818" points="1456.0157,707.3674,1460.0157,698.3674,1456.0157,702.3674,1452.0157,698.3674,1456.0157,707.3674" style="stroke:#181818;stroke-width:1;"/><text fill="#000000" font-family="sans-serif" font-size="13" lengthAdjust="spacing" textLength="170.4171" x="928.2524" y="681.5584">reviewed loopback TCP only</text><line style="stroke:#181818;stroke-width:1;" x1="679.6324" x2="679.6324" y1="485.8195" y2="515.8195"/><line style="stroke:#181818;stroke-width:1;" x1="679.6324" x2="893.0169" y1="515.8195" y2="515.8195"/><line style="stroke:#181818;stroke-width:1;" x1="893.0169" x2="893.0169" y1="515.8195" y2="567.5256"/><line style="stroke:#181818;stroke-width:1;" x1="893.0169" x2="1502.9353" y1="567.5256" y2="567.5256"/><line style="stroke:#181818;stroke-width:1;" x1="1502.9353" x2="1502.9353" y1="567.5256" y2="577.5256"/><polygon fill="#181818" points="1502.9353,577.5256,1506.9353,568.5256,1502.9353,572.5256,1498.9353,568.5256,1502.9353,577.5256" style="stroke:#181818;stroke-width:1;"/><text fill="#000000" font-family="sans-serif" font-size="13" lengthAdjust="spacing" textLength="147.6151" x="741.4018" y="541.7165">shared server certificate</text><line style="stroke:#181818;stroke-width:1;" x1="320.4606" x2="320.4606" y1="577.5256" y2="557.5256"/><line style="stroke:#181818;stroke-width:1;" x1="320.4606" x2="221.3332" y1="557.5256" y2="557.5256"/><line style="stroke:#181818;stroke-width:1;" x1="221.3332" x2="221.3332" y1="557.5256" y2="332.6837"/><line style="stroke:#181818;stroke-width:1;" x1="221.3332" x2="380.3433" y1="332.6837" y2="332.6837"/><line style="stroke:#181818;stroke-width:1;" x1="380.3433" x2="380.3433" y1="332.6837" y2="407.6837"/><line style="stroke:#181818;stroke-width:1;" x1="380.3433" x2="876.5652" y1="407.6837" y2="407.6837"/><line style="stroke:#181818;stroke-width:1;" x1="876.5652" x2="876.5652" y1="407.6837" y2="417.6837"/><polygon fill="#181818" points="876.5652,417.6837,880.5652,408.6837,876.5652,412.6837,872.5652,408.6837,876.5652,417.6837" style="stroke:#181818;stroke-width:1;"/><text fill="#000000" font-family="sans-serif" font-size="13" lengthAdjust="spacing" textLength="203.3332" x="14" y="429.2956">pre-issued IP-SAN cert + client CA</text><?plantuml-src RPHBQnin58Nt-XMttiOJboQBq4B1zI8KGXj8IZS68skkFS8QQIffufZI_zuZpICUjviGZUyvz_L9xnelzxKa8q-kZSJc8AAEXkcelRRxefBUSWZakN51H-TF9BsgT6GLMyz2I8MFDFlUi9VuRqOoaEiFOgVXD0liNxJYS1rTRTQsFy9ohqFqfomP3a9uE4kxJy9f3JFwBOYKgnjdsSRa6zkcgAC9rw5QszMIhYYPioV5Fk9KkoqgKCxkz3wdIS7_CTaeMPQdw-Qqjfvj2OChQhnxqK4xIm45S4ch59DTSlJKffDjQgbSs3HUlyZ86oxtV6PQE6jEjDI-iqAE1zbQLIttiEZAaofffjQgOdNedQNs6wDV1bTPwhoTAz98qAGiDXODeu5GkmDdKsYonTILNnlduoOD1FMwjAbiYjKL9US5AQDJg4wcEceEsQuJYZz2AEFQacPFP-D17NkFYjRsxltYzlOcxU3vuIaB-vy6MPh3J-tvlfM-fCNDXxNz-bWOaEMboIh2xEzWii2Vsw6LqSKPR3PYFu5cNwGwe7aQI5jR9567e_E7EV96UU0v1UkEMwyntpb5gIfNCt9btssd3wAKKMvb07ltR1F4Q4pwg7V0FBa2gp2VO8LZQKCjmoyaq4t3iHlJg19Yk0vK59z7qEaZbQmCHZTMBSRVKc26356L2z7AcjEMdrUFYnzMlrBR88vbdJw2UmVcqTcbHOyJJ7eYCtnRi0APnvBvYFwyCn1EYanKGELvXrbN57qR8jmmBYtDDBJ30S4wX9QfHwSdwi9s835PjvOIlzsTwFZCMNFSC3i47Zs8oFSvT9Uoy-tJNaQ7AD7l6SFRrfOflfjc2ky1IXLRX1j3tIBpIF01R0zpwsj-K_IFGwhv4rb7o9hc2WZ5sDi_8hVDZrAgVSjTlrAfxb5LpeEwYNPWCG6YqsD8nhacVQMAfObLJYy6_ml960jK26F7A6fi1XLYqncTW8l1KPoLU64nWZ7rIad73Rrrrp-EP--ktca5LCJRNYvPv2B3KX8k_DFos_1Qz-_DQYd-0W00?></g></svg>
