<?plantuml 1.2026.2?><svg xmlns="http://www.w3.org/2000/svg" xmlns:xlink="http://www.w3.org/1999/xlink" contentStyleType="text/css" data-diagram-type="DESCRIPTION" height="1870px" preserveAspectRatio="none" style="width:633px;height:1870px;background:#FFFFFF;" version="1.1" viewBox="0 0 633 1870" width="633px" zoomAndPan="magnify"><title>wiring-harness Shell Script Flow</title><defs/><g><g class="title" data-source-line="1"><text fill="#000000" font-family="Monospace" font-size="14" font-weight="bold" lengthAdjust="spacing" textLength="220.9087" x="199.5105" y="24.9659">wiring-harness&#160;Shell&#160;Script&#160;Flow</text></g><!--entity shell_scripts_apply_site_changes_sh--><g class="entity" data-qualified-name="shell_scripts_apply_site_changes_sh" data-source-line="7" id="ent0002"><rect fill="#DBEAFE" height="77.2038" rx="2.5" ry="2.5" style="stroke:#181818;stroke-width:0.5;" width="214.1233" x="88.16" y="1626.8974"/><text fill="#000000" font-family="Monospace" font-size="14" lengthAdjust="spacing" textLength="194.1233" x="98.16" y="1651.8634">scripts/apply_site_changes.sh</text><text fill="#000000" font-family="Monospace" font-size="14" lengthAdjust="spacing" textLength="119.3915" x="98.16" y="1670.9313">0&#160;local&#160;shell&#160;edges</text><text fill="#000000" font-family="Monospace" font-size="14" lengthAdjust="spacing" textLength="101.7516" x="98.16" y="1689.9992">5&#160;external&#160;tools</text></g><!--entity shell_scripts_deploy_snowbridge_filebrowser_fork_image_sh--><g class="entity" data-qualified-name="shell_scripts_deploy_snowbridge_filebrowser_fork_image_sh" data-source-line="8" id="ent0003"><rect fill="#DBEAFE" height="77.2038" rx="2.5" ry="2.5" style="stroke:#181818;stroke-width:0.5;" width="376.4526" x="7" y="534.8974"/><text fill="#000000" font-family="Monospace" font-size="14" lengthAdjust="spacing" textLength="356.4526" x="17" y="559.8634">scripts/deploy_snowbridge_filebrowser_fork_image.sh</text><text fill="#000000" font-family="Monospace" font-size="14" lengthAdjust="spacing" textLength="119.3915" x="17" y="578.9313">0&#160;local&#160;shell&#160;edges</text><text fill="#000000" font-family="Monospace" font-size="14" lengthAdjust="spacing" textLength="109.7596" x="17" y="597.9992">13&#160;external&#160;tools</text></g><!--entity shell_scripts_setup_mtls_sh--><g class="entity" data-qualified-name="shell_scripts_setup_mtls_sh" data-source-line="9" id="ent0004"><rect fill="#DBEAFE" height="77.2038" rx="2.5" ry="2.5" style="stroke:#181818;stroke-width:0.5;" width="157.3955" x="116.53" y="1290.8974"/><text fill="#000000" font-family="Monospace" font-size="14" lengthAdjust="spacing" textLength="137.3955" x="126.53" y="1315.8634">scripts/setup-mtls.sh</text><text fill="#000000" font-family="Monospace" font-size="14" lengthAdjust="spacing" textLength="119.3915" x="126.53" y="1334.9313">0&#160;local&#160;shell&#160;edges</text><text fill="#000000" font-family="Monospace" font-size="14" lengthAdjust="spacing" textLength="101.7516" x="126.53" y="1353.9992">9&#160;external&#160;tools</text></g><!--entity tool_command_exists--><g class="entity" data-qualified-name="tool_command_exists" data-source-line="10" id="ent0005"><path d="M470.8691,558.2785 C474.72,552.5486 480.9468,552.2686 484.2816,558.8411 C487.4605,553.3299 492.9085,552.6355 497.1048,557.5951 C500.2571,550.9831 506.0722,550.9147 510.2426,556.4984 C513.7842,550.1679 519.1131,551.3559 522.5929,556.5645 C526.7593,550.4659 532.2526,550.5148 535.8647,557.1426 C540.1937,551.2364 543.9689,551.7421 548.061,557.3927 C551.5563,551.8933 557.5438,549.9963 561.3379,557.0774 C565.9873,551.6044 569.5921,552.2003 572.7649,558.5095 C575.891,550.5861 582.3453,551.2591 587.0613,556.8244 C591.726,550.7673 597.1052,552.5768 599.8911,558.7889 C607.9364,562.5888 609.0118,568.4677 601.6172,574.0176 C609.0985,579.9065 607.5541,586.7747 599.0713,590.1431 C597.166,596.6429 591.6561,598.439 587.0027,592.8974 C584.0027,599.663 578.7326,600.293 573.8768,594.901 C569.6356,601.2795 564.5134,600.2887 560.4841,594.6646 C557.6595,601.3278 552.3256,601.8761 547.2507,597.3183 C543.9244,602.7043 539.7769,604.5167 535.3656,598.4437 C530.1794,605.0963 525.3294,604.5093 521.2648,597.3026 C516.4806,601.996 512.5372,600.8018 509.7796,595.0699 C505.8747,600.9118 500.4503,600.8394 496.5641,595.0487 C491.364,600.3414 486.817,598.4243 484.6765,591.9561 C481.251,598.4321 475.1993,598.1178 471.7885,591.9412 C462.3634,588.5133 463.1842,581.206 469.4288,575.5256 C461.8069,569.8904 462.5299,562.5808 470.8691,558.2785" fill="#FEF3C7" style="stroke:#181818;stroke-width:0.5;"/><text fill="#000000" font-family="Monospace" font-size="14" lengthAdjust="spacing" textLength="114.2816" x="476.81" y="578.9334">(command_exists</text></g><!--entity tool_args_container_tool--><g class="entity" data-qualified-name="tool_args_container_tool" data-source-line="11" id="ent0006"><path d="M451.8111,642.9518 C455.9278,635.8769 459.9771,635.6184 465.2171,641.8174 C469,636.6478 472.9512,636.5067 476.0071,642.5189 C479.4881,635.7546 483.7952,635.7656 488.4013,641.3937 C491.7552,635.5066 497.3995,635.6863 500.064,642.05 C503.1284,636.1161 507.8043,636.0012 512.059,640.7082 C514.5599,635.5774 519.8539,633.9451 523.3265,639.7027 C526.9662,635.0487 531.5297,635.4651 533.9694,640.961 C537.6231,635.3825 543.2775,634.7771 546.3546,641.5396 C549.9754,635.3938 554.8138,636.4397 558.1278,641.8521 C562.2445,635.9026 566.2945,635.4381 570.2761,641.9834 C573.7261,635.9128 578.681,634.058 583.3195,640.7707 C586.7821,635.9491 591.345,635.8007 593.8812,641.6846 C597.0016,637.3313 602.473,636.5144 604.7137,642.5977 C608.2396,637.0427 612.9802,636.2863 616.9599,642.1091 C626.0357,644.8504 626.9298,652.7355 620.1683,658.5646 C625.927,664.303 626.473,671.7205 617.2496,674.7586 C614.291,680.6436 609.3764,682.2206 605.1773,675.9953 C601.617,680.6254 597.1976,680.88 593.9953,675.5917 C590.6844,681.4062 584.6642,682.3067 581.4119,675.5331 C578.023,679.9291 575.016,680.4509 571.418,675.7632 C567.7176,681.7265 562.0046,682.0142 557.807,676.345 C555.3958,681.0336 550.4718,680.9909 547.7398,676.7049 C543.2529,682.6876 539.0255,681.9161 535.8508,675.4516 C532.2202,681.3552 528.3649,681.9777 523.6103,676.6799 C520.7667,681.3181 515.7108,681.7097 512.5748,677.0261 C508.6915,682.9185 503.2631,680.6824 500.7397,675.5644 C497.1264,681.6566 492.8331,681.3071 488.5291,676.3262 C484.2584,680.959 479.8091,680.2346 476.8691,674.7871 C473.9277,680.7563 469.1189,681.7865 464.7627,676.2795 C460.4011,680.8413 455.5971,681.1521 452.5944,674.7688 C442.0543,674.0268 439.5969,666.0829 444.3288,657.8708 C439.8531,650.4402 442.0916,643.263 451.8111,642.9518" fill="#FEF3C7" style="stroke:#181818;stroke-width:0.5;"/><text fill="#000000" font-family="Monospace" font-size="14" lengthAdjust="spacing" textLength="150.9894" x="458.45" y="662.9334">args+=(--container-tool</text></g><!--entity tool_cat--><g class="entity" data-qualified-name="tool_cat" data-source-line="12" id="ent0007"><path d="M518.0482,977.9815 C521.9319,967.8715 528.7992,968.2764 535.5621,974.9828 C543.0459,968.2905 547.4046,971.15 551.0138,979.0778 C559.6292,982.2306 560.1173,987.7228 554.8119,994.3398 C560.7594,1000.4969 560.3812,1008.394 550.9311,1010.9547 C548.6083,1020.7704 541.3267,1021.7697 533.9682,1016.6891 C526.1532,1022.7809 520.9019,1020.0559 518.4927,1011.1217 C507.7325,1009.8721 506.3203,1004.4261 510.9437,995.6638 C505.234,987.5931 506.7807,979.231 518.0482,977.9815" fill="#FEF3C7" style="stroke:#181818;stroke-width:0.5;"/><text fill="#000000" font-family="Monospace" font-size="14" lengthAdjust="spacing" textLength="19.6279" x="524.13" y="998.9334">cat</text></g><!--entity tool_chmod--><g class="entity" data-qualified-name="tool_chmod" data-source-line="13" id="ent0008"><path d="M505.9023,1145.5074 C510.148,1138.6024 516.1893,1138.949 520.7588,1145.14 C525.0993,1138.4005 529.9693,1138.985 534.6434,1144.7703 C540.2984,1137.8193 545.8401,1137.4779 551.0119,1145.3055 C556.5356,1138.2157 561.6456,1139.5454 565.8349,1146.6946 C575.6894,1148.0642 578.1328,1153.0314 574.5106,1162.0267 C578.5246,1170.8008 575.1223,1179.1898 564.0944,1178.387 C561.1304,1186.6614 555.5332,1186.4634 549.8691,1181.2308 C546.5686,1188.4243 542.0226,1191.2182 535.577,1184.4504 C530.1225,1191.9721 523.3075,1191.9667 519.5451,1182.8226 C513.4248,1188.8953 507.2766,1187.4235 505.4293,1178.7361 C497.6088,1176.125 496.6756,1169.0255 502.136,1163.5367 C495.88,1157.4166 497.1011,1148.482 505.9023,1145.5074" fill="#FEF3C7" style="stroke:#181818;stroke-width:0.5;"/><text fill="#000000" font-family="Monospace" font-size="14" lengthAdjust="spacing" textLength="45.5418" x="511.18" y="1166.9334">chmod</text></g><!--entity tool_cp--><g class="entity" data-qualified-name="tool_cp" data-source-line="14" id="ent0009"><path d="M519.6422,1229.9118 C523.0214,1221.3123 529.9068,1220.9726 535.3515,1227.8099 C540.3342,1221.2952 547.048,1222.9117 549.3024,1230.5073 C557.5103,1234.3295 558.1638,1240.5369 551.0557,1246.0832 C557.7978,1252.3195 558.2058,1258.8602 549.0502,1263.238 C548.1466,1271.7861 543.3232,1274.9404 535.1371,1272.2686 C524.985,1277.7415 520.1423,1273.3135 519.6554,1262.8683 C509.7919,1259.2139 510.1994,1252.0449 517.0754,1245.8524 C511.4839,1239.8818 510.3432,1233.4847 519.6422,1229.9118" fill="#FEF3C7" style="stroke:#181818;stroke-width:0.5;"/><text fill="#000000" font-family="Monospace" font-size="14" lengthAdjust="spacing" textLength="15.3299" x="526.28" y="1250.9334">cp</text></g><!--entity tool_docker--><g class="entity" data-qualified-name="tool_docker" data-source-line="15" id="ent0010"><path d="M505.1113,727.0713 C508.9845,719.1619 514.029,719.9957 519.4648,725.3846 C522.9331,718.0737 530.146,717.9123 534.6805,724.1909 C540.9966,716.3669 545.7345,718.489 550.5641,725.7556 C554.6545,718.5598 560.2345,719.5959 564.1435,725.9375 C574.5226,726.6906 577.3401,734.6737 572.8758,743.0162 C577.5416,752.1022 574.3344,757.6891 564.7163,759.8527 C559.1692,767.7763 554.2471,768.1315 548.8266,759.7295 C546.4303,766.9578 540.3405,766.7319 535.7718,762.1259 C530.232,770.5608 524.0646,768.5038 519.5869,761.0444 C513.7595,766.5737 508.7111,766.467 505.2355,758.5368 C496.7743,757.4967 493.2785,750.3411 498.8737,743.3952 C494.1079,735.383 494.7899,729.3184 505.1113,727.0713" fill="#FEF3C7" style="stroke:#181818;stroke-width:0.5;"/><text fill="#000000" font-family="Monospace" font-size="14" lengthAdjust="spacing" textLength="44.9538" x="511.47" y="746.9334">docker</text></g><!--entity tool_docker_compose--><g class="entity" data-qualified-name="tool_docker_compose" data-source-line="16" id="ent0011"><path d="M472.9831,809.9692 C476.2278,804.0733 481.3965,803.9297 485.327,809.2118 C488.6274,803.51 494.7915,803.6398 498.0588,809.249 C500.948,801.7652 507.6512,802.2673 511.5827,808.1982 C514.5956,802.3285 519.9909,802.008 523.1808,808.0255 C527.3532,803.3895 531.1179,803.3206 534.8997,808.4922 C539.4049,802.835 543.6324,802.4286 547.5591,809.0868 C550.857,803.249 555.2922,803.439 558.8431,808.8327 C562.1909,803.3017 567.1938,802.4601 570.9051,808.4522 C575.6326,802.8445 580.1552,803.1713 583.1687,810.1255 C586.8094,804.1398 591.6569,803.2699 595.8865,809.513 C606.8915,810.8741 607.7198,819.4718 602.277,826.8839 C607.7013,833.9725 604.8328,841.6611 595.5663,842.3932 C593.032,847.8268 588.6773,850.065 584.1732,844.4186 C581.0701,851.3949 576.9855,851.2877 572.3216,845.9167 C569.9338,852.5935 563.8988,853.6045 559.2575,848.393 C556.4888,854.3456 551.1986,856.6853 546.5171,850.3812 C544.0582,855.6976 538.8245,855.3415 535.8158,850.9899 C531.0331,857.9948 526.307,857.2765 522.4581,850.1098 C518.1449,855.5357 514.2741,853.7692 511.5052,848.5246 C506.6023,853.4299 501.3861,851.6501 498.8978,845.7161 C494.4873,851.6385 488.1579,849.7382 485.6408,843.6297 C481.8427,849.9781 477.826,848.8013 473.7112,843.9674 C465.923,840.7434 463.0674,832.5274 470.869,826.7325 C464.6107,820.22 464.6023,814.6355 472.9831,809.9692" fill="#FEF3C7" style="stroke:#181818;stroke-width:0.5;"/><text fill="#000000" font-family="Monospace" font-size="14" lengthAdjust="spacing" textLength="108.5556" x="479.67" y="830.9334">docker&#160;compose</text></g><!--entity tool_docker_compose_2--><g class="entity" data-qualified-name="tool_docker_compose_2" data-source-line="17" id="ent0012"><path d="M473.6342,54.6052 C476.4628,48.8269 482.0153,46.4321 486.4207,52.968 C490.4327,47.3573 494.6079,48.1431 497.7613,53.8299 C500.9704,47.5285 506.4292,47.474 509.51,53.9479 C513.2302,47.2012 518.9084,47.4218 523.1255,53.4169 C525.978,46.0679 530.9956,46.9083 535.6608,51.5166 C540.2527,46.7814 544.1379,48.1706 546.6605,53.728 C550.6811,47.6817 556.1434,48.1261 560.3008,53.5656 C563.0679,48.4364 568.4695,47.0152 572.0609,52.6664 C576.302,46.6765 582.4854,46.4665 585.5212,53.8771 C589.2885,49.1961 593.9633,49.4773 596.8165,54.8991 C606.1774,57.2064 607.9402,63.0315 603.6038,71.0832 C609.4134,79.0213 606.4173,87.0753 596.1459,87.8683 C592.3288,94.3205 588.4085,93.962 583.7202,88.8005 C581.3431,95.4539 575.7954,94.9565 571.7345,90.6403 C568.9302,97.547 564.1185,97.4352 559.3175,92.7857 C556.7607,98.5842 550.9267,98.7359 547.4709,93.7756 C544.8615,99.8572 538.7134,101.4154 534.2995,95.8092 C530.2472,101.9377 524.7492,99.6131 522.2109,94.2205 C519.1617,98.7274 513.5926,99.356 511.1107,93.6066 C505.2873,100.0609 499.3046,97.9465 497.3698,89.9173 C493.4383,95.1778 489.9617,94.9414 486.6131,89.34 C481.8758,94.6345 476.5112,93.4703 474.0754,86.9067 C464.6144,84.5754 464.0393,76.4671 470.5094,70.6428 C463.4528,64.9658 465.5342,57.3291 473.6342,54.6052" fill="#FEF3C7" style="stroke:#181818;stroke-width:0.5;"/><text fill="#000000" font-family="Monospace" font-size="14" lengthAdjust="spacing" textLength="109.4236" x="479.24" y="74.9334">docker-compose</text></g><!--entity tool_grep--><g class="entity" data-qualified-name="tool_grep" data-source-line="18" id="ent0013"><path d="M512.8292,137.9641 C515.506,133.5557 520.0281,132.4148 523.1897,137.4311 C526.4203,130.4556 530.3701,129.5409 535.9339,135.0493 C539.0721,130.2851 544.3202,131.4542 546.5912,136.0381 C550.9709,132.0738 554.8313,132.7562 557.1698,138.3074 C567.0874,141.0782 566.9825,147.4547 561.4852,154.3676 C568.3046,162.2464 565.4641,167.4459 556.9245,171.1512 C554.7651,177.3027 551.208,179.1217 545.6464,174.8229 C543.8657,179.7048 539.0678,181.7523 535.1085,177.2762 C529.2088,180.8452 525.2193,180.1324 522.8392,173.1741 C518.906,177.7379 513.7625,175.9263 512.1988,170.6198 C502.484,168.4982 499.8977,160.76 507.248,153.6576 C501.5033,146.7305 503.9603,139.6941 512.8292,137.9641" fill="#FEF3C7" style="stroke:#181818;stroke-width:0.5;"/><text fill="#000000" font-family="Monospace" font-size="14" lengthAdjust="spacing" textLength="30.8979" x="518.5" y="158.9334">grep</text></g><!--entity tool_install--><g class="entity" data-qualified-name="tool_install" data-source-line="19" id="ent0014"><path d="M508.3763,1061.198 C512.5249,1055.9897 517.4656,1054.7865 521.1268,1061.7103 C525.4122,1053.2352 530.5642,1054.5704 536.0826,1060.4232 C539.5918,1055.7845 544.4271,1055.2167 547.3998,1061.0055 C552.8296,1054.0351 557.3647,1054.2253 562.0771,1061.7327 C572.2388,1061.6236 576.6849,1069.6962 570.7152,1078.1005 C575.3327,1086.9809 571.0156,1093.0528 561.7278,1094.1433 C559.1724,1102.1324 553.4218,1103.0306 548.1201,1096.765 C544.3011,1104.783 539.4025,1104.7936 533.9779,1098.3334 C529.5733,1104.1908 525.0669,1103.5743 521.9559,1097.0748 C518.0278,1102.0139 511.6963,1101.2776 508.9719,1095.6023 C498.0009,1093.4533 497.1695,1087.7158 501.8576,1078.8978 C494.5376,1069.3869 496.6558,1063.6964 508.3763,1061.198" fill="#FEF3C7" style="stroke:#181818;stroke-width:0.5;"/><text fill="#000000" font-family="Monospace" font-size="14" lengthAdjust="spacing" textLength="39.1019" x="514.4" y="1082.9334">install</text></g><!--entity tool_mapfile--><g class="entity" data-qualified-name="tool_mapfile" data-source-line="20" id="ent0015"><path d="M503.2143,1734.126 C507.8722,1725.2142 515.4685,1725.5773 520.0499,1734.1995 C523.9945,1726.9595 529.3231,1727.6278 533.9589,1733.4644 C539.7568,1725.5431 546.1812,1726.5554 551.5971,1733.9056 C556.1548,1725.874 562.6639,1726.479 566.6784,1734.4185 C577.5673,1734.9374 579.4731,1740.9083 575.4296,1749.8793 C581.0103,1759.589 578.39,1766.2582 566.5556,1766.8746 C564.2313,1775.3593 556.4227,1775.6151 551.1281,1770.1624 C547.9565,1780.4095 542.0059,1781.5501 534.3694,1774.4844 C528.0413,1780.6075 523.3187,1779.8883 519.1505,1772.1183 C511.4791,1777.2867 506.0429,1776.7785 502.8042,1767.2037 C493.1067,1764.108 490.6898,1758.3686 498.3529,1750.6147 C492.7615,1743.7809 493.0764,1736.3222 503.2143,1734.126" fill="#FEF3C7" style="stroke:#181818;stroke-width:0.5;"/><text fill="#000000" font-family="Monospace" font-size="14" lengthAdjust="spacing" textLength="49.4898" x="509.2" y="1754.9334">mapfile</text></g><!--entity tool_mkdir--><g class="entity" data-qualified-name="tool_mkdir" data-source-line="21" id="ent0016"><path d="M508.9713,1313.5248 C512.7959,1307.6887 518.1233,1307.6876 521.4487,1314.036 C524.9758,1307.1726 530.5426,1307.4501 535.2747,1312.6556 C539.2126,1306.6226 543.4604,1307.1467 547.7556,1312.2554 C552.1027,1306.9133 557.3554,1306.4709 560.4607,1313.5279 C573.0644,1313.7475 575.6008,1320.9369 571.2045,1331.3848 C575.7929,1340.138 570.2985,1346.5686 561.3893,1346.6338 C558.4507,1352.8972 554.5779,1355.1508 548.7334,1349.8005 C545.8857,1356.4869 539.6946,1358.1311 534.3739,1352.7409 C528.9432,1357.2588 525.0574,1355.107 522.985,1349.1052 C517.3031,1356.3272 510.8904,1354.3492 507.8383,1346.4679 C498.4884,1344.4049 494.1133,1339.9093 499.9715,1330.4003 C494.5152,1319.966 498.7796,1315.6139 508.9713,1313.5248" fill="#FEF3C7" style="stroke:#181818;stroke-width:0.5;"/><text fill="#000000" font-family="Monospace" font-size="14" lengthAdjust="spacing" textLength="38.5699" x="514.66" y="1334.9334">mkdir</text></g><!--entity tool_next--><g class="entity" data-qualified-name="tool_next" data-source-line="22" id="ent0017"><path d="M513.3962,222.9094 C518.8219,210.7986 525.9268,209.464 534.8882,219.4743 C543.2457,210.413 551.4015,209.6274 556.7402,222.4842 C564.6059,226.3921 566.332,232.6033 558.5286,238.2848 C564.3583,244.845 564.8113,250.0809 556.3069,254.7011 C551.8538,265.4045 542.6086,265.4461 535.947,257.0561 C527.9568,265.5606 521.0974,267.1703 514.534,255.5388 C506.032,252.7504 503.2579,244.8681 509.464,237.8614 C502.6435,231.2442 504.0219,225.2676 513.3962,222.9094" fill="#FEF3C7" style="stroke:#181818;stroke-width:0.5;"/><text fill="#000000" font-family="Monospace" font-size="14" lengthAdjust="spacing" textLength="29.0079" x="519.44" y="242.9334">next</text></g><!--entity tool_openssl--><g class="entity" data-qualified-name="tool_openssl" data-source-line="23" id="ent0018"><path d="M503.0073,1397.1806 C507.9923,1388.1324 513.9277,1389.4831 519.2814,1396.8143 C523.2743,1387.8807 531.1745,1389.5199 535.4402,1396.5379 C540.9775,1388.1897 547.8939,1388.7211 551.7897,1398.0556 C556.432,1391.9816 563.5798,1392.0496 567.5293,1398.8995 C576.731,1399.5657 581.7373,1406.2733 576.2993,1414.9424 C582.833,1425.3516 578.2066,1431.7651 566.7109,1432.0965 C562.3973,1440.1107 554.7946,1439.3505 550.3892,1432.1953 C546.9512,1438.822 540.1962,1440.4988 535.17,1434.0429 C529.9861,1441.753 523.3029,1440.3935 519.5605,1432.5923 C514.6567,1441.9604 506.2334,1440.28 502.0629,1431.8706 C491.4824,1428.1582 491.8013,1420.1246 499.5221,1413.8341 C493.5662,1406.5436 495.0802,1401.5657 503.0073,1397.1806" fill="#FEF3C7" style="stroke:#181818;stroke-width:0.5;"/><text fill="#000000" font-family="Monospace" font-size="14" lengthAdjust="spacing" textLength="50.6518" x="508.62" y="1418.9334">openssl</text></g><!--entity tool_podman_compose--><g class="entity" data-qualified-name="tool_podman_compose" data-source-line="24" id="ent0019"><path d="M468.3502,306.0215 C471.7683,299.7517 476.1785,299.7744 479.8764,305.7583 C482.5202,300.3461 486.6193,301.0023 489.9524,305.0219 C494.1068,298.8195 498.9881,298.6895 502.5329,305.6065 C505.6036,300.7128 509.8787,300.287 513.3363,305.1796 C516.6494,299.2689 520.6794,298.9215 524.6531,304.5306 C527.879,299.6183 532.0492,300.2816 534.9776,304.8544 C538.7956,299.8078 542.1506,299.7215 545.6388,305.1888 C549.3128,298.3919 554.9443,299.2217 558.271,305.5236 C561.7824,300.5877 565.4591,301.0136 568.394,306.1056 C572.6181,300.0789 576.3945,300.7356 580.3937,306.3377 C583.6418,301.5693 586.8381,300.6416 591.1276,305.1301 C594.8196,300.6196 599.7799,300.8108 602.4386,306.299 C611.3026,309.5884 612.6382,317.1944 606.0204,323.675 C611.4847,330.2091 609.6888,336.7804 600.8722,338.2809 C599.736,343.5109 595.7144,344.8957 591.8545,340.961 C588.7857,346.4597 585.2252,347.2623 580.4876,342.8808 C576.4794,349.3783 571.3252,349.227 567.4129,342.7838 C564.7799,348.0025 561.6701,347.91 558.0553,343.765 C555.2531,350.7505 551.5517,352.1991 545.5883,346.9993 C542.5056,351.4941 538.6884,351.703 535.563,347.046 C531.4754,352.2369 527.4013,352.2947 523.925,346.404 C519.8112,350.26 515.1784,349.1917 513.7749,343.5173 C510.452,348.679 505.1102,348.9982 501.6158,343.717 C496.5563,348.7727 492.6416,347.9749 489.9658,341.3412 C486.3418,346.7371 482.9489,346.8126 479.0744,341.5983 C474.2709,345.5981 469.9878,343.8356 468.3732,338.0949 C460.7764,333.6548 460.7017,326.726 467.8625,321.8227 C460.2856,317.0133 460.537,310.3558 468.3502,306.0215" fill="#FEF3C7" style="stroke:#181818;stroke-width:0.5;"/><text fill="#000000" font-family="Monospace" font-size="14" lengthAdjust="spacing" textLength="119.7556" x="474.07" y="326.9334">podman-compose</text></g><!--entity tool_print--><g class="entity" data-qualified-name="tool_print" data-source-line="25" id="ent0020"><path d="M512.0842,389.6374 C515.0397,384.0985 519.2819,383.5697 522.7878,389.1054 C525.0904,383.7217 530.1358,381.4586 534.5317,386.8169 C538.9918,382.4577 543.621,382.4914 546.2955,388.7882 C550.507,383.1285 556.2735,384.6871 558.9162,390.5122 C568.2046,395.1902 568.4973,400.4103 561.1259,407.2833 C567.4949,413.1283 564.8135,420.1629 557.3931,422.6606 C555.749,427.6736 551.7714,429.93 547.293,425.7874 C543.962,432.7283 539.1913,433.4094 534.7025,426.8686 C530.3106,430.8939 526.6623,431.4836 523.9301,425.1437 C519.7135,430.3105 515.9428,429.851 513.1824,423.7542 C503.7251,421.582 501.3353,413.7465 506.7841,406.155 C500.041,399.1057 503.4712,391.7594 512.0842,389.6374" fill="#FEF3C7" style="stroke:#181818;stroke-width:0.5;"/><text fill="#000000" font-family="Monospace" font-size="14" lengthAdjust="spacing" textLength="31.7099" x="518.09" y="410.9334">print</text></g><!--entity tool_python3--><g class="entity" data-qualified-name="tool_python3" data-source-line="26" id="ent0021"><path d="M501.5934,1649.2503 C505.6831,1644.9635 509.7839,1644.8608 512.7909,1650.4748 C514.9735,1644.7773 520.3635,1642.9715 524.3557,1648.6322 C527.9295,1644.4047 531.1666,1644.5889 533.9942,1649.4256 C536.6598,1644.3355 541.6856,1642.7088 545.4875,1648.1902 C549.4679,1642.3993 555.1766,1642.6771 558.4698,1648.9309 C562.1588,1644.3312 566.836,1644.4278 569.1184,1650.3539 C576.0184,1654.0922 577.6293,1660.5442 571.1767,1666.0351 C579.2333,1672.6593 578.886,1678.3114 569.0713,1682.6744 C567.3995,1688.5117 562.8371,1688.7742 558.7939,1685.2885 C556.6831,1693.2072 551.327,1693.3432 545.7027,1689.0572 C544.1808,1694.849 540.3803,1697.9004 534.7052,1693.5694 C528.5169,1697.5691 524.6646,1696.4804 522.6991,1689.1103 C518.7834,1692.4839 513.4845,1691.873 512.3576,1685.9934 C507.7477,1690.3305 503.7067,1689.6833 501.2153,1683.705 C493.459,1680.4249 491.7133,1673.2905 498.4059,1667.5047 C491.3964,1661.1207 491.8626,1652.7112 501.5934,1649.2503" fill="#FEF3C7" style="stroke:#181818;stroke-width:0.5;"/><text fill="#000000" font-family="Monospace" font-size="14" lengthAdjust="spacing" textLength="54.5858" x="506.65" y="1670.9334">python3</text></g><!--entity tool_readarray--><g class="entity" data-qualified-name="tool_readarray" data-source-line="27" id="ent0022"><path d="M495.2353,1481.2155 C498.9638,1473.9777 505.1382,1474.7064 509.3665,1480.6809 C512.6189,1474.4805 518.3341,1475.9577 521.4236,1480.8578 C525.9402,1474.7089 530.7615,1474.3303 534.813,1481.3315 C539.3104,1474.3326 545.1221,1475.5377 549.2245,1481.762 C552.4541,1475.8591 558.0431,1474.8014 561.93,1481.0762 C567.0176,1475.235 570.9591,1476.0506 574.0386,1482.9802 C583.4447,1485.1071 586.2973,1489.9395 582.4069,1499.0084 C587.3353,1507.8081 584.0677,1513.3924 574.2536,1514.3645 C571.2322,1522.3189 566.9426,1522.9322 560.9148,1517.3205 C556.9547,1524.0734 552.3485,1523.4739 547.4996,1518.3221 C545.044,1525.1437 539.4267,1524.7974 535.2456,1520.1687 C530.5553,1525.9736 524.5781,1526.5569 521.1146,1518.8826 C516.0926,1524.2608 511.1935,1524.3654 508.3919,1516.7144 C503.0401,1521.9294 499.2838,1520.4627 496.5415,1514.054 C486.7868,1512.8071 484.7588,1506.2802 489.2894,1498.4108 C482.9999,1491.0307 484.8142,1482.8172 495.2353,1481.2155" fill="#FEF3C7" style="stroke:#181818;stroke-width:0.5;"/><text fill="#000000" font-family="Monospace" font-size="14" lengthAdjust="spacing" textLength="64.5538" x="501.67" y="1502.9334">readarray</text></g><!--entity tool_rm--><g class="entity" data-qualified-name="tool_rm" data-source-line="28" id="ent0023"><path d="M519.6992,894.8572 C522.9626,886.1987 529.1068,885.1964 535.8315,890.9946 C542.2368,883.4665 549.1247,886.3369 552.0016,894.6063 C561.5475,897.3935 561.0332,903.8566 555.5565,910.0923 C562.7719,916.6137 560.6441,923.1381 552.5412,926.9136 C552.1366,939.8068 543.6744,941.649 534.075,936.1408 C526.5768,940.2214 518.8756,937.6345 518.8636,927.8988 C509.3482,925.5651 506.3574,918.8366 513.6703,911.2528 C506.971,903.7028 511.4191,896.8991 519.6992,894.8572" fill="#FEF3C7" style="stroke:#181818;stroke-width:0.5;"/><text fill="#000000" font-family="Monospace" font-size="14" lengthAdjust="spacing" textLength="18.8719" x="524.51" y="914.9334">rm</text></g><!--entity tool_systemctl--><g class="entity" data-qualified-name="tool_systemctl" data-source-line="29" id="ent0024"><path d="M496.1143,1565.2329 C499.5548,1559.3141 506.0793,1558.6323 509.18,1565.5779 C512.9216,1558.8672 517.9585,1558.7904 522.4923,1564.745 C526.5241,1558.4979 531.0624,1558.9905 535.5076,1564.2785 C539.0515,1558.2444 542.7175,1558.8272 546.6613,1563.8761 C551.6221,1557.2168 556.0937,1558.1777 559.9066,1565.0036 C563.494,1559.6432 569.7325,1558.7355 572.7865,1565.5671 C581.4828,1568.2997 584.4791,1576.5072 577.9998,1583.6218 C583.3352,1589.4264 581.552,1596.2084 573.9704,1598.5194 C571.401,1607.058 565.8683,1607.7292 559.561,1602.4045 C556.8989,1608.0046 552.7598,1608.7523 548.1065,1604.7896 C545.2441,1611.4126 539.9262,1613.4051 534.9794,1606.8691 C529.538,1612.4392 525.1052,1611.1109 522.6095,1603.9964 C518.2127,1609.29 512.4929,1609.6649 509.5761,1602.4539 C504.6575,1606.5231 500.238,1607.2526 497.6784,1599.9795 C486.9143,1596.8613 486.7723,1590.9938 492.6476,1582.9577 C485.8674,1575.6995 486.1547,1569.217 496.1143,1565.2329" fill="#FEF3C7" style="stroke:#181818;stroke-width:0.5;"/><text fill="#000000" font-family="Monospace" font-size="14" lengthAdjust="spacing" textLength="61.9778" x="502.96" y="1586.9334">systemctl</text></g><!--entity tool_tail--><g class="entity" data-qualified-name="tool_tail" data-source-line="30" id="ent0025"><path d="M518.1712,1817.0362 C522.4168,1809.5558 529.7293,1808.1119 535.0851,1815.7981 C542.3796,1807.864 548.3653,1809.7952 552.5405,1818.9789 C561.9119,1820.231 565.9719,1825.1236 561.137,1834.3307 C567.2278,1844.0574 561.5544,1850.4816 551.6661,1851.2791 C548.8709,1861.0866 543.3004,1863.4444 535.0333,1856.8169 C526.8137,1863.756 519.1563,1859.8699 517.2646,1850.0912 C509.452,1845.8126 507.02,1841.1903 514.5287,1834.2634 C507.4608,1827.0454 508.3457,1820.6823 518.1712,1817.0362" fill="#FEF3C7" style="stroke:#181818;stroke-width:0.5;"/><text fill="#000000" font-family="Monospace" font-size="14" lengthAdjust="spacing" textLength="20.1319" x="523.88" y="1838.9334">tail</text></g><!--entity tool_updated--><g class="entity" data-qualified-name="tool_updated" data-source-line="31" id="ent0026"><path d="M500.9083,475.1236 C503.5309,469.2409 508.7662,468.591 512.3627,474.1484 C515.0536,468.3517 518.3948,467.6851 522.8409,472.3985 C526.1119,465.7204 532.022,466.2339 535.6995,471.9777 C539.2005,467.5212 543.5742,468.4054 545.5583,473.5373 C549.9279,466.719 555.5258,468.4116 558.908,474.5543 C562.1559,469.798 565.7481,468.9404 569.13,474.4204 C579.771,477.4816 581.0121,482.8879 574.6989,491.4827 C581.9512,499.307 578.6497,505.8655 569.0193,507.8208 C566.3026,513.6033 562.3553,513.7513 558.1252,509.4571 C556.5261,516.7287 551.3106,518.5304 545.7092,513.4947 C544.1768,518.4005 539.4269,520.1857 535.8396,515.6406 C531.3302,520.2395 524.9557,519.188 523.0799,512.629 C517.6103,517.8034 514.2119,516.2044 511.2646,510.0081 C506.5203,514.7013 502.3795,514.62 499.7175,507.9011 C491.6162,503.9431 488.3811,497.7493 496.5786,490.7997 C489.1261,484.2574 491.327,476.9612 500.9083,475.1236" fill="#FEF3C7" style="stroke:#181818;stroke-width:0.5;"/><text fill="#000000" font-family="Monospace" font-size="14" lengthAdjust="spacing" textLength="55.2858" x="506.3" y="494.9334">updated</text></g><g class="entity" data-qualified-name="shellGraphSummary" data-source-line="60" id="ent0054"><path d="M98.31,436.9474 L98.31,500.0655 L292.1451,500.0655 L292.1451,446.9474 L282.1451,436.9474 L98.31,436.9474" fill="#FEFFDD" style="stroke:#181818;stroke-width:0.5;"/><path d="M282.1451,436.9474 L282.1451,446.9474 L292.1451,446.9474 L282.1451,436.9474" fill="#FEFFDD" style="stroke:#181818;stroke-width:1;"/><text fill="#000000" font-family="Monospace" font-size="13" lengthAdjust="spacing" textLength="141.5311" x="104.31" y="455.8444">Scanned&#160;3&#160;shell&#160;scripts.</text><text fill="#000000" font-family="Monospace" font-size="13" lengthAdjust="spacing" textLength="172.8351" x="104.31" y="473.5505">Detected&#160;0&#160;local&#160;shell&#160;edges.</text><text fill="#000000" font-family="Monospace" font-size="13" lengthAdjust="spacing" textLength="163.8911" x="104.31" y="491.2565">Detected&#160;22&#160;external&#160;tools.</text></g><!--link shell_scripts_apply_site_changes_sh to tool_cat--><g class="link" data-entity-1="ent0002" data-entity-2="ent0007" data-link-type="dependency" data-source-line="32" id="lnk27"><path d="M283.44,1626.6974 C283.44,1485.2774 283.44,1005.7674 283.44,1005.7674 C283.44,1005.7674 439.65,1005.7674 503.01,1005.7674" fill="none" id="shell_scripts_apply_site_changes_sh-to-tool_cat" style="stroke:#181818;stroke-width:1;"/><polygon fill="#181818" points="509.01,1005.7674,500.01,1001.7674,504.01,1005.7674,500.01,1009.7674,509.01,1005.7674" style="stroke:#181818;stroke-width:1;"/></g><!--link shell_scripts_apply_site_changes_sh to tool_install--><g class="link" data-entity-1="ent0002" data-entity-2="ent0014" data-link-type="dependency" data-source-line="33" id="lnk28"><path d="M292.44,1626.5574 C292.44,1496.5574 292.44,1085.6774 292.44,1085.6774 C292.44,1085.6774 426.21,1085.6774 493.09,1085.6774" fill="none" id="shell_scripts_apply_site_changes_sh-to-tool_install" style="stroke:#181818;stroke-width:1;"/><polygon fill="#181818" points="499.09,1085.6774,490.09,1081.6774,494.09,1085.6774,490.09,1089.6774,499.09,1085.6774" style="stroke:#181818;stroke-width:1;"/></g><!--link shell_scripts_apply_site_changes_sh to tool_mapfile--><g class="link" data-entity-1="ent0002" data-entity-2="ent0015" data-link-type="dependency" data-source-line="34" id="lnk29"><path d="M302.56,1697.0674 C401.94,1697.0674 534.44,1697.0674 534.44,1697.0674 C534.44,1697.0674 534.44,1705.0074 534.44,1718.5174" fill="none" id="shell_scripts_apply_site_changes_sh-to-tool_mapfile" style="stroke:#181818;stroke-width:1;"/><polygon fill="#181818" points="534.44,1724.5174,538.44,1715.5174,534.44,1719.5174,530.44,1715.5174,534.44,1724.5174" style="stroke:#181818;stroke-width:1;"/></g><!--link shell_scripts_apply_site_changes_sh to tool_python3--><g class="link" data-entity-1="ent0002" data-entity-2="ent0021" data-link-type="dependency" data-source-line="35" id="lnk30"><path d="M302.4,1673.6774 C366.36,1673.6774 438.06,1673.6774 485.22,1673.6774" fill="none" id="shell_scripts_apply_site_changes_sh-to-tool_python3" style="stroke:#181818;stroke-width:1;"/><polygon fill="#181818" points="491.22,1673.6774,482.22,1669.6774,486.22,1673.6774,482.22,1677.6774,491.22,1673.6774" style="stroke:#181818;stroke-width:1;"/></g><!--link shell_scripts_apply_site_changes_sh to tool_tail--><g class="link" data-entity-1="ent0002" data-entity-2="ent0025" data-link-type="dependency" data-source-line="36" id="lnk31"><path d="M195.44,1704.4674 C195.44,1754.0974 195.44,1833.5074 195.44,1833.5074 C195.44,1833.5074 423.78,1833.5074 502.5,1833.5074" fill="none" id="shell_scripts_apply_site_changes_sh-to-tool_tail" style="stroke:#181818;stroke-width:1;"/><polygon fill="#181818" points="508.5,1833.5074,499.5,1829.5074,503.5,1833.5074,499.5,1837.5074,508.5,1833.5074" style="stroke:#181818;stroke-width:1;"/></g><!--link shell_scripts_deploy_snowbridge_filebrowser_fork_image_sh to tool_command_exists--><g class="link" data-entity-1="ent0003" data-entity-2="ent0005" data-link-type="dependency" data-source-line="37" id="lnk32"><path d="M383.9,573.5074 C411.4,573.5074 432.2,573.5074 455.37,573.5074" fill="none" id="shell_scripts_deploy_snowbridge_filebrowser_fork_image_sh-to-tool_command_exists" style="stroke:#181818;stroke-width:1;"/><polygon fill="#181818" points="461.37,573.5074,452.37,569.5074,456.37,573.5074,452.37,577.5074,461.37,573.5074" style="stroke:#181818;stroke-width:1;"/></g><!--link shell_scripts_deploy_snowbridge_filebrowser_fork_image_sh to tool_args_container_tool--><g class="link" data-entity-1="ent0003" data-entity-2="ent0006" data-link-type="dependency" data-source-line="38" id="lnk33"><path d="M383.79,605.0674 C422.36,605.0674 451.44,605.0674 451.44,605.0674 C451.44,605.0674 451.44,613.0074 451.44,626.5174" fill="none" id="shell_scripts_deploy_snowbridge_filebrowser_fork_image_sh-to-tool_args_container_tool" style="stroke:#181818;stroke-width:1;"/><polygon fill="#181818" points="451.44,632.5174,455.44,623.5174,451.44,627.5174,447.44,623.5174,451.44,632.5174" style="stroke:#181818;stroke-width:1;"/></g><!--link shell_scripts_deploy_snowbridge_filebrowser_fork_image_sh to tool_cat--><g class="link" data-entity-1="ent0003" data-entity-2="ent0007" data-link-type="dependency" data-source-line="39" id="lnk34"><path d="M325.44,612.5974 C325.44,714.6474 325.44,981.2374 325.44,981.2374 C325.44,981.2374 447.34,981.2374 502.8,981.2374" fill="none" id="shell_scripts_deploy_snowbridge_filebrowser_fork_image_sh-to-tool_cat" style="stroke:#181818;stroke-width:1;"/><polygon fill="#181818" points="508.8,981.2374,499.8,977.2374,503.8,981.2374,499.8,985.2374,508.8,981.2374" style="stroke:#181818;stroke-width:1;"/></g><!--link shell_scripts_deploy_snowbridge_filebrowser_fork_image_sh to tool_docker--><g class="link" data-entity-1="ent0003" data-entity-2="ent0010" data-link-type="dependency" data-source-line="40" id="lnk35"><path d="M371.44,612.4674 C371.44,662.0974 371.44,741.5074 371.44,741.5074 C371.44,741.5074 442.25,741.5074 490.26,741.5074" fill="none" id="shell_scripts_deploy_snowbridge_filebrowser_fork_image_sh-to-tool_docker" style="stroke:#181818;stroke-width:1;"/><polygon fill="#181818" points="496.26,741.5074,487.26,737.5074,491.26,741.5074,487.26,745.5074,496.26,741.5074" style="stroke:#181818;stroke-width:1;"/></g><!--link shell_scripts_deploy_snowbridge_filebrowser_fork_image_sh to tool_docker_compose--><g class="link" data-entity-1="ent0003" data-entity-2="ent0011" data-link-type="dependency" data-source-line="41" id="lnk36"><path d="M360.44,612.5974 C360.44,683.3874 360.44,825.5074 360.44,825.5074 C360.44,825.5074 410.11,825.5074 458.38,825.5074" fill="none" id="shell_scripts_deploy_snowbridge_filebrowser_fork_image_sh-to-tool_docker_compose" style="stroke:#181818;stroke-width:1;"/><polygon fill="#181818" points="464.38,825.5074,455.38,821.5074,459.38,825.5074,455.38,829.5074,464.38,825.5074" style="stroke:#181818;stroke-width:1;"/></g><!--link shell_scripts_deploy_snowbridge_filebrowser_fork_image_sh to tool_docker_compose_2--><g class="link" data-entity-1="ent0003" data-entity-2="ent0012" data-link-type="dependency" data-source-line="42" id="lnk37"><path d="M310.44,534.7874 C310.44,416.7774 310.44,69.5074 310.44,69.5074 C310.44,69.5074 392.3,69.5074 457.84,69.5074" fill="none" id="shell_scripts_deploy_snowbridge_filebrowser_fork_image_sh-to-tool_docker_compose_2" style="stroke:#181818;stroke-width:1;"/><polygon fill="#181818" points="463.84,69.5074,454.84,65.5074,458.84,69.5074,454.84,73.5074,463.84,69.5074" style="stroke:#181818;stroke-width:1;"/></g><!--link shell_scripts_deploy_snowbridge_filebrowser_fork_image_sh to tool_grep--><g class="link" data-entity-1="ent0003" data-entity-2="ent0013" data-link-type="dependency" data-source-line="43" id="lnk38"><path d="M328.44,534.7474 C328.44,430.7674 328.44,153.5074 328.44,153.5074 C328.44,153.5074 439.85,153.5074 497.18,153.5074" fill="none" id="shell_scripts_deploy_snowbridge_filebrowser_fork_image_sh-to-tool_grep" style="stroke:#181818;stroke-width:1;"/><polygon fill="#181818" points="503.18,153.5074,494.18,149.5074,498.18,153.5074,494.18,157.5074,503.18,153.5074" style="stroke:#181818;stroke-width:1;"/></g><!--link shell_scripts_deploy_snowbridge_filebrowser_fork_image_sh to tool_install--><g class="link" data-entity-1="ent0003" data-entity-2="ent0014" data-link-type="dependency" data-source-line="44" id="lnk39"><path d="M313.44,612.4074 C313.44,729.2974 313.44,1069.3274 313.44,1069.3274 C313.44,1069.3274 430.83,1069.3274 493.01,1069.3274" fill="none" id="shell_scripts_deploy_snowbridge_filebrowser_fork_image_sh-to-tool_install" style="stroke:#181818;stroke-width:1;"/><polygon fill="#181818" points="499.01,1069.3274,490.01,1065.3274,494.01,1069.3274,490.01,1073.3274,499.01,1069.3274" style="stroke:#181818;stroke-width:1;"/></g><!--link shell_scripts_deploy_snowbridge_filebrowser_fork_image_sh to tool_next--><g class="link" data-entity-1="ent0003" data-entity-2="ent0017" data-link-type="dependency" data-source-line="45" id="lnk40"><path d="M346.44,534.6274 C346.44,446.1874 346.44,237.5074 346.44,237.5074 C346.44,237.5074 445.37,237.5074 498.24,237.5074" fill="none" id="shell_scripts_deploy_snowbridge_filebrowser_fork_image_sh-to-tool_next" style="stroke:#181818;stroke-width:1;"/><polygon fill="#181818" points="504.24,237.5074,495.24,233.5074,499.24,237.5074,495.24,241.5074,504.24,237.5074" style="stroke:#181818;stroke-width:1;"/></g><!--link shell_scripts_deploy_snowbridge_filebrowser_fork_image_sh to tool_podman_compose--><g class="link" data-entity-1="ent0003" data-entity-2="ent0019" data-link-type="dependency" data-source-line="46" id="lnk41"><path d="M383.58,539.5874 C434.81,539.5874 476.44,539.5874 476.44,539.5874 C476.44,539.5874 476.44,409.8074 476.44,352.5174" fill="none" id="shell_scripts_deploy_snowbridge_filebrowser_fork_image_sh-to-tool_podman_compose" style="stroke:#181818;stroke-width:1;"/><polygon fill="#181818" points="476.44,346.5174,472.44,355.5174,476.44,351.5174,480.44,355.5174,476.44,346.5174" style="stroke:#181818;stroke-width:1;"/></g><!--link shell_scripts_deploy_snowbridge_filebrowser_fork_image_sh to tool_print--><g class="link" data-entity-1="ent0003" data-entity-2="ent0020" data-link-type="dependency" data-source-line="47" id="lnk42"><path d="M365.44,534.5374 C365.44,484.9074 365.44,405.5074 365.44,405.5074 C365.44,405.5074 447.92,405.5074 496.65,405.5074" fill="none" id="shell_scripts_deploy_snowbridge_filebrowser_fork_image_sh-to-tool_print" style="stroke:#181818;stroke-width:1;"/><polygon fill="#181818" points="502.65,405.5074,493.65,401.5074,497.65,405.5074,493.65,409.5074,502.65,405.5074" style="stroke:#181818;stroke-width:1;"/></g><!--link shell_scripts_deploy_snowbridge_filebrowser_fork_image_sh to tool_rm--><g class="link" data-entity-1="ent0003" data-entity-2="ent0023" data-link-type="dependency" data-source-line="48" id="lnk43"><path d="M348.44,612.3974 C348.44,699.2374 348.44,901.3274 348.44,901.3274 C348.44,901.3274 452.85,901.3274 503.31,901.3274" fill="none" id="shell_scripts_deploy_snowbridge_filebrowser_fork_image_sh-to-tool_rm" style="stroke:#181818;stroke-width:1;"/><polygon fill="#181818" points="509.31,901.3274,500.31,897.3274,504.31,901.3274,500.31,905.3274,509.31,901.3274" style="stroke:#181818;stroke-width:1;"/></g><!--link shell_scripts_deploy_snowbridge_filebrowser_fork_image_sh to tool_updated--><g class="link" data-entity-1="ent0003" data-entity-2="ent0026" data-link-type="dependency" data-source-line="49" id="lnk44"><path d="M383.68,544.2774 C461.76,544.2774 534.44,544.2774 534.44,544.2774 C534.44,544.2774 534.44,534.8174 534.44,520.3274" fill="none" id="shell_scripts_deploy_snowbridge_filebrowser_fork_image_sh-to-tool_updated" style="stroke:#181818;stroke-width:1;"/><polygon fill="#181818" points="534.44,514.3274,530.44,523.3274,534.44,519.3274,538.44,523.3274,534.44,514.3274" style="stroke:#181818;stroke-width:1;"/></g><!--link shell_scripts_setup_mtls_sh to tool_cat--><g class="link" data-entity-1="ent0004" data-entity-2="ent0007" data-link-type="dependency" data-source-line="50" id="lnk45"><path d="M221.44,1290.6274 C221.44,1202.1874 221.44,993.5074 221.44,993.5074 C221.44,993.5074 428.24,993.5074 502.64,993.5074" fill="none" id="shell_scripts_setup_mtls_sh-to-tool_cat" style="stroke:#181818;stroke-width:1;"/><polygon fill="#181818" points="508.64,993.5074,499.64,989.5074,503.64,993.5074,499.64,997.5074,508.64,993.5074" style="stroke:#181818;stroke-width:1;"/></g><!--link shell_scripts_setup_mtls_sh to tool_chmod--><g class="link" data-entity-1="ent0004" data-entity-2="ent0008" data-link-type="dependency" data-source-line="51" id="lnk46"><path d="M274.31,1295.5874 C366.22,1295.5874 505.44,1295.5874 505.44,1295.5874 C505.44,1295.5874 505.44,1231.1874 505.44,1192.4074" fill="none" id="shell_scripts_setup_mtls_sh-to-tool_chmod" style="stroke:#181818;stroke-width:1;"/><polygon fill="#181818" points="505.44,1186.4074,501.44,1195.4074,505.44,1191.4074,509.44,1195.4074,505.44,1186.4074" style="stroke:#181818;stroke-width:1;"/></g><!--link shell_scripts_setup_mtls_sh to tool_cp--><g class="link" data-entity-1="ent0004" data-entity-2="ent0009" data-link-type="dependency" data-source-line="52" id="lnk47"><path d="M274.33,1300.2774 C374.56,1300.2774 534.44,1300.2774 534.44,1300.2774 C534.44,1300.2774 534.44,1290.8174 534.44,1276.3274" fill="none" id="shell_scripts_setup_mtls_sh-to-tool_cp" style="stroke:#181818;stroke-width:1;"/><polygon fill="#181818" points="534.44,1270.3274,530.44,1279.3274,534.44,1275.3274,538.44,1279.3274,534.44,1270.3274" style="stroke:#181818;stroke-width:1;"/></g><!--link shell_scripts_setup_mtls_sh to tool_mkdir--><g class="link" data-entity-1="ent0004" data-entity-2="ent0016" data-link-type="dependency" data-source-line="53" id="lnk48"><path d="M274.21,1329.5074 C345.37,1329.5074 440.63,1329.5074 493.22,1329.5074" fill="none" id="shell_scripts_setup_mtls_sh-to-tool_mkdir" style="stroke:#181818;stroke-width:1;"/><polygon fill="#181818" points="499.22,1329.5074,490.22,1325.5074,494.22,1329.5074,490.22,1333.5074,499.22,1329.5074" style="stroke:#181818;stroke-width:1;"/></g><!--link shell_scripts_setup_mtls_sh to tool_openssl--><g class="link" data-entity-1="ent0004" data-entity-2="ent0018" data-link-type="dependency" data-source-line="54" id="lnk49"><path d="M274.33,1358.7274 C374.56,1358.7274 534.44,1358.7274 534.44,1358.7274 C534.44,1358.7274 534.44,1368.1874 534.44,1382.6774" fill="none" id="shell_scripts_setup_mtls_sh-to-tool_openssl" style="stroke:#181818;stroke-width:1;"/><polygon fill="#181818" points="534.44,1388.6774,538.44,1379.6774,534.44,1383.6774,530.44,1379.6774,534.44,1388.6774" style="stroke:#181818;stroke-width:1;"/></g><!--link shell_scripts_setup_mtls_sh to tool_python3--><g class="link" data-entity-1="ent0004" data-entity-2="ent0021" data-link-type="dependency" data-source-line="55" id="lnk50"><path d="M274.24,1363.4174 C306.97,1363.4174 337.44,1363.4174 337.44,1363.4174 C337.44,1363.4174 337.44,1657.3274 337.44,1657.3274 C337.44,1657.3274 427.51,1657.3274 485.31,1657.3274" fill="none" id="shell_scripts_setup_mtls_sh-to-tool_python3" style="stroke:#181818;stroke-width:1;"/><polygon fill="#181818" points="491.31,1657.3274,482.31,1653.3274,486.31,1657.3274,482.31,1661.3274,491.31,1657.3274" style="stroke:#181818;stroke-width:1;"/></g><!--link shell_scripts_setup_mtls_sh to tool_readarray--><g class="link" data-entity-1="ent0004" data-entity-2="ent0022" data-link-type="dependency" data-source-line="56" id="lnk51"><path d="M221.44,1368.4674 C221.44,1418.0974 221.44,1497.5074 221.44,1497.5074 C221.44,1497.5074 393.06,1497.5074 480.48,1497.5074" fill="none" id="shell_scripts_setup_mtls_sh-to-tool_readarray" style="stroke:#181818;stroke-width:1;"/><polygon fill="#181818" points="486.48,1497.5074,477.48,1493.5074,481.48,1497.5074,477.48,1501.5074,486.48,1497.5074" style="stroke:#181818;stroke-width:1;"/></g><!--link shell_scripts_setup_mtls_sh to tool_rm--><g class="link" data-entity-1="ent0004" data-entity-2="ent0023" data-link-type="dependency" data-source-line="57" id="lnk52"><path d="M169.44,1290.7574 C169.44,1188.2474 169.44,917.6774 169.44,917.6774 C169.44,917.6774 421.14,917.6774 503.18,917.6774" fill="none" id="shell_scripts_setup_mtls_sh-to-tool_rm" style="stroke:#181818;stroke-width:1;"/><polygon fill="#181818" points="509.18,917.6774,500.18,913.6774,504.18,917.6774,500.18,921.6774,509.18,917.6774" style="stroke:#181818;stroke-width:1;"/></g><!--link shell_scripts_setup_mtls_sh to tool_systemctl--><g class="link" data-entity-1="ent0004" data-entity-2="ent0024" data-link-type="dependency" data-source-line="58" id="lnk53"><path d="M169.44,1368.5974 C169.44,1439.3874 169.44,1581.5074 169.44,1581.5074 C169.44,1581.5074 383.7,1581.5074 481.78,1581.5074" fill="none" id="shell_scripts_setup_mtls_sh-to-tool_systemctl" style="stroke:#181818;stroke-width:1;"/><polygon fill="#181818" points="487.78,1581.5074,478.78,1577.5074,482.78,1581.5074,478.78,1585.5074,487.78,1581.5074" style="stroke:#181818;stroke-width:1;"/></g><?plantuml-src hPR1ZjiW48RlVWgKlQnKUTicggeUMgdj9ZsrbrnNGgoPn2WO44oKzTiNOg_3OYTnLZuoyytF6CR3e409v22iKDkyP5Q1SsHTWfHaNLXXaAoaFcGIDaXG4oks9H8kB1GejChSJYZ3BAk8AndN1wz2DamwY3mSDcmlSQKL_cCLaBzQQMTO4JE5henMe72DjSydo3ErbJ4YXGAi3H1jiTHPXv2PEoRgFZ9ZP4sTGA15wNtW7bpvf3uHgGicVORXgu1x-vFwGk05mIflHwsbcn7c6eAsShGlHrr9xXv_BN-kbaFxSp1I-mYb3yzM-7teHaXujlhWmDADjZigAhQ5yrbzNbnFQ-mkLv9rW7kJLoWl7DAtwzaSPMYGYVShfDvpChltrrennIcy28TDU12YR-taRhLSBNv_VGrZTki-VB_FyyAN3FFNRlCGTGeF0EsSDDXIZO9Xj1t3dh-iD8-8iEmn9W9CwkMws84z4Srwc6hgsq5AqzO-79LVYQBpD6vh8Sevh592A8TCHcVP6bAkOYQKrObh3Jrkvvj1H8LboYXVHISah5926r3EHLcrXfGpclkwwPzBOpztciOtjoY1uxB7rBwfg4L4DOQKiy0uivRL9x8pzTWgWghKwsg7K1KOVNLdIbbVw14MLYcnDvmXH1NT6ZfkJ6_Byn_T3tDRG5j5jmMr9NLRK7iljmM54ylUtqPFv_AcRqsXED3A9acqTu7lacdwpNHAht_ez8fqFeLcw9XJw0p_3k-I2kro2fstBN8InT17fn2orHGgRSFBBiqd5_wFSs0O34QYPXntV2F7eUqpE0uUxenduExH6ebNuxZk1SkKHkZ6nJ-McNAzzytJrjcwO4hvbsdH3fkjv4Fs2EZdLEyP64OZxtoUZAKF6IXEmeR_0G00?></g></svg>
