<?plantuml 1.2026.2?><svg xmlns="http://www.w3.org/2000/svg" xmlns:xlink="http://www.w3.org/1999/xlink" contentStyleType="text/css" data-diagram-type="DESCRIPTION" height="2285px" preserveAspectRatio="none" style="width:633px;height:2285px;background:#FFFFFF;" version="1.1" viewBox="0 0 633 2285" width="633px" zoomAndPan="magnify"><title>wiring-harness Tooling Integrations</title><defs/><g><g class="title" data-source-line="1"><text fill="#000000" font-family="Monospace" font-size="14" font-weight="bold" lengthAdjust="spacing" textLength="250.0426" x="184.9436" y="24.9659">wiring-harness&#160;Tooling&#160;Integrations</text></g><!--entity source_github_workflows_ci_yml--><g class="entity" data-qualified-name="source_github_workflows_ci_yml" data-source-line="7" id="ent0002"><rect fill="#E0F2FE" height="58.1358" rx="2.5" ry="2.5" style="stroke:#181818;stroke-width:0.5;" width="182.6234" x="103.91" y="2098.5603"/><text fill="#000000" font-family="Monospace" font-size="14" lengthAdjust="spacing" textLength="162.6234" x="113.91" y="2123.5262">.github/workflows/ci.yml</text><text fill="#000000" font-family="Monospace" font-size="14" lengthAdjust="spacing" textLength="105.3356" x="113.91" y="2142.5941">4&#160;detected&#160;tools</text></g><!--entity source_scripts_apply_site_changes_sh--><g class="entity" data-qualified-name="source_scripts_apply_site_changes_sh" data-source-line="8" id="ent0003"><rect fill="#E0F2FE" height="58.1358" rx="2.5" ry="2.5" style="stroke:#181818;stroke-width:0.5;" width="214.1233" x="88.16" y="1132.5603"/><text fill="#000000" font-family="Monospace" font-size="14" lengthAdjust="spacing" textLength="194.1233" x="98.16" y="1157.5262">scripts/apply_site_changes.sh</text><text fill="#000000" font-family="Monospace" font-size="14" lengthAdjust="spacing" textLength="105.3356" x="98.16" y="1176.5941">6&#160;detected&#160;tools</text></g><!--entity source_scripts_deploy_snowbridge_filebrowser_fork_image_sh--><g class="entity" data-qualified-name="source_scripts_deploy_snowbridge_filebrowser_fork_image_sh" data-source-line="9" id="ent0004"><rect fill="#E0F2FE" height="58.1358" rx="2.5" ry="2.5" style="stroke:#181818;stroke-width:0.5;" width="376.4526" x="7" y="544.5603"/><text fill="#000000" font-family="Monospace" font-size="14" lengthAdjust="spacing" textLength="356.4526" x="17" y="569.5262">scripts/deploy_snowbridge_filebrowser_fork_image.sh</text><text fill="#000000" font-family="Monospace" font-size="14" lengthAdjust="spacing" textLength="113.3436" x="17" y="588.5941">13&#160;detected&#160;tools</text></g><!--entity source_scripts_setup_mtls_sh--><g class="entity" data-qualified-name="source_scripts_setup_mtls_sh" data-source-line="10" id="ent0005"><rect fill="#E0F2FE" height="58.1358" rx="2.5" ry="2.5" style="stroke:#181818;stroke-width:0.5;" width="157.3955" x="116.53" y="1552.5603"/><text fill="#000000" font-family="Monospace" font-size="14" lengthAdjust="spacing" textLength="137.3955" x="126.53" y="1577.5262">scripts/setup-mtls.sh</text><text fill="#000000" font-family="Monospace" font-size="14" lengthAdjust="spacing" textLength="105.3356" x="126.53" y="1596.5941">9&#160;detected&#160;tools</text></g><!--entity tool_command_exists--><g class="entity" data-qualified-name="tool_command_exists" data-source-line="11" id="ent0006"><path d="M470.8691,810.4013 C474.72,804.6715 480.9468,804.3914 484.2816,810.9639 C487.4605,805.4527 492.9085,804.7584 497.1048,809.718 C500.2571,803.1059 506.0722,803.0376 510.2426,808.6212 C513.7842,802.2908 519.1131,803.4787 522.5929,808.6873 C526.7593,802.5888 532.2526,802.6376 535.8647,809.2654 C540.1937,803.3592 543.9689,803.8649 548.061,809.5155 C551.5563,804.0162 557.5438,802.1192 561.3379,809.2002 C565.9873,803.7273 569.5921,804.3232 572.7649,810.6323 C575.891,802.709 582.3453,803.382 587.0613,808.9472 C591.726,802.8901 597.1052,804.6996 599.8911,810.9117 C607.9364,814.7117 609.0118,820.5906 601.6172,826.1405 C609.0985,832.0293 607.5541,838.8975 599.0713,842.2659 C597.166,848.7658 591.6561,850.5618 587.0027,845.0203 C584.0027,851.7859 578.7326,852.4158 573.8768,847.0239 C569.6356,853.4023 564.5134,852.4115 560.4841,846.7874 C557.6595,853.4506 552.3256,853.999 547.2507,849.4412 C543.9244,854.8271 539.7769,856.6396 535.3656,850.5665 C530.1794,857.2191 525.3294,856.6321 521.2648,849.4254 C516.4806,854.1188 512.5372,852.9247 509.7796,847.1928 C505.8747,853.0347 500.4503,852.9622 496.5641,847.1715 C491.364,852.4642 486.817,850.5471 484.6765,844.079 C481.251,850.5549 475.1993,850.2407 471.7885,844.0641 C462.3634,840.6361 463.1842,833.3289 469.4288,827.6485 C461.8069,822.0132 462.5299,814.7037 470.8691,810.4013" fill="#FEF3C7" style="stroke:#181818;stroke-width:0.5;"/><text fill="#000000" font-family="Monospace" font-size="14" lengthAdjust="spacing" textLength="114.2816" x="476.81" y="831.0562">(command_exists</text></g><!--entity tool_actions_checkout--><g class="entity" data-qualified-name="tool_actions_checkout" data-source-line="12" id="ent0007"><path d="M472.4221,1985.456 C476.2739,1979.2969 481.0165,1979.4375 484.746,1985.5785 C488.0517,1978.8156 493.0534,1980.0645 497.092,1984.791 C501.7123,1977.6436 505.9729,1977.7685 510.6139,1984.7713 C514.8887,1978.4879 518.7213,1979.4759 522.8173,1984.9569 C526.1488,1980.2709 531.3624,1980.4246 534.1426,1985.5906 C536.8408,1979.9329 543.1073,1979.441 546.6845,1984.5685 C550.7641,1978.5311 556.0619,1978.5907 560.435,1984.2226 C565.6096,1978.7871 570.3712,1979.2872 573.2216,1986.5609 C576.1926,1980.4368 581.6729,1980.521 584.7115,1986.4967 C588.6803,1980.6631 593.0644,1981.4202 597.0744,1986.4497 C606.7557,1988.8593 608.0659,1995.0191 603.0682,2002.8074 C608.5131,2011.2646 607.048,2016.3678 597.1047,2019.2409 C594.8571,2024.9122 589.4973,2025.3835 586.3214,2020.1596 C582.7344,2026.6699 576.5723,2027.2592 571.9811,2021.316 C569.2476,2027.2184 565.2771,2028.8338 560.0471,2024.1232 C556.7662,2030.6271 552.2701,2030.4512 548.1901,2024.9097 C545.6617,2032.3488 539.1443,2032.8158 535.136,2026.2934 C530.2327,2032.6913 524.7736,2030.6155 522.2865,2023.9219 C518.3506,2030.6999 512.4289,2030.5444 508.8581,2023.5655 C504.3234,2029.0838 499.6351,2027.6052 496.9615,2021.6378 C493.0843,2026.7554 487.7253,2026.3774 485.1814,2020.2422 C480.7205,2025.7052 474.4986,2026.441 471.2371,2018.951 C464.1391,2014.8995 462.7377,2006.9166 471.3187,2002.945 C463.0764,1996.9169 464.0235,1990.4343 472.4221,1985.456" fill="#FEF3C7" style="stroke:#181818;stroke-width:0.5;"/><text fill="#000000" font-family="Monospace" font-size="14" lengthAdjust="spacing" textLength="111.9156" x="477.99" y="2007.0562">actions/checkout</text></g><!--entity tool_actions_setup_python--><g class="entity" data-qualified-name="tool_actions_setup_python" data-source-line="13" id="ent0008"><path d="M458.0591,2070.641 C460.2716,2064.5861 464.4852,2064.5244 468.3039,2069.0918 C473.1676,2063.7621 477.5069,2064.411 480.8997,2070.688 C482.7957,2066.0987 487.5936,2064.2444 491.0496,2068.9921 C494.4091,2062.6995 498.0166,2062.8062 502.0851,2068.33 C505.6653,2062.8434 509.403,2063.7416 512.8527,2068.4676 C516.6914,2064.1259 520.3298,2064.4544 523.106,2069.6142 C526.2814,2063.8096 531.3379,2062.1568 536.0798,2067.8459 C539.1256,2062.8751 542.064,2062.9336 545.185,2067.7762 C549.5181,2062.0335 553.8461,2062.6742 557.5753,2068.4272 C561.618,2063.4898 565.4871,2064.1536 568.5486,2069.4766 C571.3171,2064.1037 576.0805,2064.7799 579.1899,2069.1024 C582.2403,2063.4584 587.0418,2064.1735 589.7725,2069.4133 C593.9974,2063.7711 597.7972,2064.4545 601.8337,2069.6233 C605.6254,2064.353 610.0772,2064.6664 613.2776,2070.2469 C622.4226,2072.9481 624.2541,2080.9713 617.734,2087.6776 C624.7689,2095.7732 622.3216,2102.3111 611.7314,2103.8751 C608.2494,2109.4659 604.471,2109.3934 601.2867,2103.6019 C599.2418,2109.4776 594.3028,2109.1011 590.8359,2105.1076 C588.089,2110.9702 583.4612,2111.1216 579.5638,2106.3242 C576.4427,2112.44 570.6931,2112.1756 567.6238,2106.2728 C565.2005,2111.8385 561.9716,2111.2173 558.0733,2107.8498 C554.9192,2112.9828 550.3585,2113.6188 546.8469,2108.2312 C544.4721,2113.613 538.8119,2114.087 535.4629,2109.3245 C531.8816,2115.348 527.3383,2115.0214 523.651,2109.4322 C520.0763,2114.011 514.8835,2114.6998 512.1866,2108.4987 C508.5368,2112.9823 504.2318,2111.4711 502.4853,2106.538 C498.0332,2110.5686 494.3024,2110.2329 491.1481,2104.9569 C487.0118,2111.0659 483.0978,2109.762 479.2184,2104.6829 C476.991,2109.1088 472.3623,2108.9753 469.7088,2105.1755 C465.9347,2110.8509 460.3549,2110.2373 457.8562,2103.9155 C448.1193,2102.6296 444.5489,2095.4618 449.1211,2086.8513 C444.1585,2077.9352 446.6867,2070.5503 458.0591,2070.641" fill="#FEF3C7" style="stroke:#181818;stroke-width:0.5;"/><text fill="#000000" font-family="Monospace" font-size="14" lengthAdjust="spacing" textLength="140.2795" x="463.81" y="2091.0562">actions/setup-python</text></g><!--entity tool_args_container_tool--><g class="entity" data-qualified-name="tool_args_container_tool" data-source-line="14" id="ent0009"><path d="M451.8111,55.0747 C455.9278,47.9998 459.9771,47.7413 465.2171,53.9402 C469,48.7707 472.9512,48.6296 476.0071,54.6417 C479.4881,47.8774 483.7952,47.8885 488.4013,53.5166 C491.7552,47.6295 497.3995,47.8091 500.064,54.1728 C503.1284,48.239 507.8043,48.1241 512.059,52.831 C514.5599,47.7003 519.8539,46.0679 523.3265,51.8255 C526.9662,47.1715 531.5297,47.588 533.9694,53.0838 C537.6231,47.5053 543.2775,46.9 546.3546,53.6624 C549.9754,47.5167 554.8138,48.5626 558.1278,53.9749 C562.2445,48.0255 566.2945,47.561 570.2761,54.1062 C573.7261,48.0356 578.681,46.1808 583.3195,52.8935 C586.7821,48.0719 591.345,47.9236 593.8812,53.8074 C597.0016,49.4542 602.473,48.6372 604.7137,54.7205 C608.2396,49.1655 612.9802,48.4092 616.9599,54.2319 C626.0357,56.9733 626.9298,64.8583 620.1683,70.6874 C625.927,76.4259 626.473,83.8433 617.2496,86.8815 C614.291,92.7664 609.3764,94.3435 605.1773,88.1181 C601.617,92.7483 597.1976,93.0029 593.9953,87.7145 C590.6844,93.5291 584.6642,94.4296 581.4119,87.6559 C578.023,92.0519 575.016,92.5737 571.418,87.8861 C567.7176,93.8493 562.0046,94.137 557.807,88.4679 C555.3958,93.1565 550.4718,93.1137 547.7398,88.8277 C543.2529,94.8105 539.0255,94.039 535.8508,87.5745 C532.2202,93.478 528.3649,94.1005 523.6103,88.8027 C520.7667,93.4409 515.7108,93.8325 512.5748,89.149 C508.6915,95.0413 503.2631,92.8052 500.7397,87.6873 C497.1264,93.7795 492.8331,93.4299 488.5291,88.4491 C484.2584,93.0818 479.8091,92.3574 476.8691,86.9099 C473.9277,92.8791 469.1189,93.9093 464.7627,88.4024 C460.4011,92.9642 455.5971,93.2749 452.5944,86.8916 C442.0543,86.1497 439.5969,78.2058 444.3288,69.9936 C439.8531,62.5631 442.0916,55.3859 451.8111,55.0747" fill="#FEF3C7" style="stroke:#181818;stroke-width:0.5;"/><text fill="#000000" font-family="Monospace" font-size="14" lengthAdjust="spacing" textLength="150.9894" x="458.45" y="75.0562">args+=(--container-tool</text></g><!--entity tool_bash--><g class="entity" data-qualified-name="tool_bash" data-source-line="15" id="ent0010"><path d="M512.0342,977.7602 C514.9981,972.2073 519.2515,971.6777 522.7658,977.2283 C525.0761,971.8332 530.1341,969.5671 534.5377,974.9398 C539.0065,970.5687 543.6464,970.6007 546.3295,976.911 C550.5485,971.2377 556.328,972.798 558.9782,978.6351 C568.2666,983.3131 568.5593,988.5331 561.1879,995.4061 C567.5569,1001.2512 564.8755,1008.2857 557.4551,1010.7835 C555.8029,1015.8079 551.8135,1018.0668 547.327,1013.9102 C543.9873,1020.8659 539.206,1021.5476 534.7085,1014.9915 C530.3071,1019.0287 526.6498,1019.6214 523.9081,1013.2666 C519.6825,1018.448 515.9019,1017.9885 513.1324,1011.8771 C503.6751,1009.7048 501.2853,1001.8693 506.7341,994.2779 C499.991,987.2285 503.4212,979.8822 512.0342,977.7602" fill="#FEF3C7" style="stroke:#181818;stroke-width:0.5;"/><text fill="#000000" font-family="Monospace" font-size="14" lengthAdjust="spacing" textLength="31.8219" x="518.04" y="999.0562">bash</text></g><!--entity tool_cat--><g class="entity" data-qualified-name="tool_cat" data-source-line="16" id="ent0011"><path d="M518.0482,1062.1043 C521.9319,1051.9944 528.7992,1052.3993 535.5621,1059.1057 C543.0459,1052.4133 547.4046,1055.2729 551.0138,1063.2007 C559.6292,1066.3534 560.1173,1071.8456 554.8119,1078.4627 C560.7594,1084.6198 560.3812,1092.5169 550.9311,1095.0776 C548.6083,1104.8932 541.3267,1105.8925 533.9682,1100.8119 C526.1532,1106.9037 520.9019,1104.1787 518.4927,1095.2445 C507.7325,1093.995 506.3203,1088.5489 510.9437,1079.7867 C505.234,1071.7159 506.7807,1063.3538 518.0482,1062.1043" fill="#FEF3C7" style="stroke:#181818;stroke-width:0.5;"/><text fill="#000000" font-family="Monospace" font-size="14" lengthAdjust="spacing" textLength="19.6279" x="524.13" y="1083.0562">cat</text></g><!--entity tool_chmod--><g class="entity" data-qualified-name="tool_chmod" data-source-line="17" id="ent0012"><path d="M505.9023,1733.6302 C510.148,1726.7253 516.1893,1727.0718 520.7588,1733.2629 C525.0993,1726.5234 529.9693,1727.1079 534.6434,1732.8931 C540.2984,1725.9422 545.8401,1725.6008 551.0119,1733.4284 C556.5356,1726.3385 561.6456,1727.6683 565.8349,1734.8175 C575.6894,1736.187 578.1328,1741.1542 574.5106,1750.1496 C578.5246,1758.9236 575.1223,1767.3127 564.0944,1766.5099 C561.1304,1774.7842 555.5332,1774.5863 549.8691,1769.3536 C546.5686,1776.5472 542.0226,1779.341 535.577,1772.5732 C530.1225,1780.0949 523.3075,1780.0895 519.5451,1770.9455 C513.4248,1777.0181 507.2766,1775.5463 505.4293,1766.8589 C497.6088,1764.2478 496.6756,1757.1483 502.136,1751.6596 C495.88,1745.5395 497.1011,1736.6049 505.9023,1733.6302" fill="#FEF3C7" style="stroke:#181818;stroke-width:0.5;"/><text fill="#000000" font-family="Monospace" font-size="14" lengthAdjust="spacing" textLength="45.5418" x="511.18" y="1755.0562">chmod</text></g><!--entity tool_cp--><g class="entity" data-qualified-name="tool_cp" data-source-line="18" id="ent0013"><path d="M519.6422,1818.0347 C523.0214,1809.4352 529.9068,1809.0955 535.3515,1815.9327 C540.3342,1809.4181 547.048,1811.0345 549.3024,1818.6301 C557.5103,1822.4523 558.1638,1828.6598 551.0557,1834.206 C557.7978,1840.4423 558.2058,1846.983 549.0502,1851.3608 C548.1466,1859.909 543.3232,1863.0632 535.1371,1860.3914 C524.985,1865.8643 520.1423,1861.4363 519.6554,1850.9911 C509.7919,1847.3367 510.1994,1840.1678 517.0754,1833.9752 C511.4839,1828.0047 510.3432,1821.6075 519.6422,1818.0347" fill="#FEF3C7" style="stroke:#181818;stroke-width:0.5;"/><text fill="#000000" font-family="Monospace" font-size="14" lengthAdjust="spacing" textLength="15.3299" x="526.28" y="1839.0562">cp</text></g><!--entity tool_docker--><g class="entity" data-qualified-name="tool_docker" data-source-line="19" id="ent0014"><path d="M505.1113,139.1942 C508.9845,131.2847 514.029,132.1186 519.4648,137.5074 C522.9331,130.1965 530.146,130.0351 534.6805,136.3137 C540.9966,128.4897 545.7345,130.6118 550.5641,137.8784 C554.6545,130.6826 560.2345,131.7187 564.1435,138.0604 C574.5226,138.8134 577.3401,146.7966 572.8758,155.139 C577.5416,164.2251 574.3344,169.8119 564.7163,171.9755 C559.1692,179.8992 554.2471,180.2544 548.8266,171.8523 C546.4303,179.0806 540.3405,178.8548 535.7718,174.2487 C530.232,182.6837 524.0646,180.6266 519.5869,173.1673 C513.7595,178.6966 508.7111,178.5898 505.2355,170.6596 C496.7743,169.6195 493.2785,162.4639 498.8737,155.518 C494.1079,147.5059 494.7899,141.4412 505.1113,139.1942" fill="#FEF3C7" style="stroke:#181818;stroke-width:0.5;"/><text fill="#000000" font-family="Monospace" font-size="14" lengthAdjust="spacing" textLength="44.9538" x="511.47" y="159.0562">docker</text></g><!--entity tool_docker_compose--><g class="entity" data-qualified-name="tool_docker_compose" data-source-line="20" id="ent0015"><path d="M472.9831,222.092 C476.2278,216.1961 481.3965,216.0525 485.327,221.3347 C488.6274,215.6328 494.7915,215.7626 498.0588,221.3719 C500.948,213.888 507.6512,214.3902 511.5827,220.321 C514.5956,214.4514 519.9909,214.1308 523.1808,220.1483 C527.3532,215.5124 531.1179,215.4434 534.8997,220.615 C539.4049,214.9579 543.6324,214.5514 547.5591,221.2097 C550.857,215.3719 555.2922,215.5619 558.8431,220.9555 C562.1909,215.4246 567.1938,214.5829 570.9051,220.5751 C575.6326,214.9674 580.1552,215.2941 583.1687,222.2483 C586.8094,216.2627 591.6569,215.3927 595.8865,221.6358 C606.8915,222.9969 607.7198,231.5947 602.277,239.0067 C607.7013,246.0953 604.8328,253.7839 595.5663,254.516 C593.032,259.9497 588.6773,262.1878 584.1732,256.5415 C581.0701,263.5177 576.9855,263.4106 572.3216,258.0396 C569.9338,264.7164 563.8988,265.7273 559.2575,260.5159 C556.4888,266.4684 551.1986,268.8081 546.5171,262.5041 C544.0582,267.8205 538.8245,267.4643 535.8158,263.1127 C531.0331,270.1177 526.307,269.3994 522.4581,262.2326 C518.1449,267.6586 514.2741,265.892 511.5052,260.6474 C506.6023,265.5527 501.3861,263.7729 498.8978,257.839 C494.4873,263.7613 488.1579,261.861 485.6408,255.7525 C481.8427,262.1009 477.826,260.9242 473.7112,256.0902 C465.923,252.8662 463.0674,244.6503 470.869,238.8553 C464.6107,232.3428 464.6023,226.7583 472.9831,222.092" fill="#FEF3C7" style="stroke:#181818;stroke-width:0.5;"/><text fill="#000000" font-family="Monospace" font-size="14" lengthAdjust="spacing" textLength="108.5556" x="479.67" y="243.0562">docker&#160;compose</text></g><!--entity tool_docker_compose_2--><g class="entity" data-qualified-name="tool_docker_compose_2" data-source-line="21" id="ent0016"><path d="M473.6342,306.7281 C476.4628,300.9498 482.0153,298.555 486.4207,305.0908 C490.4327,299.4802 494.6079,300.2659 497.7613,305.9527 C500.9704,299.6513 506.4292,299.5968 509.51,306.0707 C513.2302,299.3241 518.9084,299.5446 523.1255,305.5398 C525.978,298.1908 530.9956,299.0311 535.6608,303.6395 C540.2527,298.9043 544.1379,300.2934 546.6605,305.8509 C550.6811,299.8046 556.1434,300.249 560.3008,305.6884 C563.0679,300.5592 568.4695,299.138 572.0609,304.7893 C576.302,298.7993 582.4854,298.5894 585.5212,305.9999 C589.2885,301.3189 593.9633,301.6002 596.8165,307.0219 C606.1774,309.3293 607.9402,315.1543 603.6038,323.206 C609.4134,331.1441 606.4173,339.1981 596.1459,339.9911 C592.3288,346.4434 588.4085,346.0848 583.7202,340.9233 C581.3431,347.5767 575.7954,347.0793 571.7345,342.7632 C568.9302,349.6699 564.1185,349.558 559.3175,344.9086 C556.7607,350.707 550.9267,350.8587 547.4709,345.8984 C544.8615,351.9801 538.7134,353.5382 534.2995,347.932 C530.2472,354.0605 524.7492,351.7359 522.2109,346.3434 C519.1617,350.8503 513.5926,351.4788 511.1107,345.7294 C505.2873,352.1837 499.3046,350.0693 497.3698,342.0401 C493.4383,347.3007 489.9617,347.0642 486.6131,341.4629 C481.8758,346.7574 476.5112,345.5931 474.0754,339.0295 C464.6144,336.6983 464.0393,328.5899 470.5094,322.7656 C463.4528,317.0886 465.5342,309.452 473.6342,306.7281" fill="#FEF3C7" style="stroke:#181818;stroke-width:0.5;"/><text fill="#000000" font-family="Monospace" font-size="14" lengthAdjust="spacing" textLength="109.4236" x="479.24" y="327.0562">docker-compose</text></g><!--entity tool_grep--><g class="entity" data-qualified-name="tool_grep" data-source-line="22" id="ent0017"><path d="M512.8292,390.0869 C515.506,385.6785 520.0281,384.5377 523.1897,389.554 C526.4203,382.5784 530.3701,381.6638 535.9339,387.1721 C539.0721,382.4079 544.3202,383.5771 546.5912,388.1609 C550.9709,384.1966 554.8313,384.8791 557.1698,390.4302 C567.0874,393.2011 566.9825,399.5776 561.4852,406.4904 C568.3046,414.3693 565.4641,419.5687 556.9245,423.2741 C554.7651,429.4255 551.208,431.2445 545.6464,426.9457 C543.8657,431.8276 539.0678,433.8751 535.1085,429.399 C529.2088,432.968 525.2193,432.2552 522.8392,425.2969 C518.906,429.8608 513.7625,428.0492 512.1988,422.7426 C502.484,420.6211 499.8977,412.8828 507.248,405.7805 C501.5033,398.8533 503.9603,391.817 512.8292,390.0869" fill="#FEF3C7" style="stroke:#181818;stroke-width:0.5;"/><text fill="#000000" font-family="Monospace" font-size="14" lengthAdjust="spacing" textLength="30.8979" x="518.5" y="411.0562">grep</text></g><!--entity tool_install--><g class="entity" data-qualified-name="tool_install" data-source-line="23" id="ent0018"><path d="M508.3763,893.3209 C512.5249,888.1126 517.4656,886.9094 521.1268,893.8332 C525.4122,885.358 530.5642,886.6933 536.0826,892.5461 C539.5918,887.9074 544.4271,887.3395 547.3998,893.1283 C552.8296,886.158 557.3647,886.3481 562.0771,893.8556 C572.2388,893.7464 576.6849,901.8191 570.7152,910.2233 C575.3327,919.1038 571.0156,925.1756 561.7278,926.2661 C559.1724,934.2553 553.4218,935.1534 548.1201,928.8878 C544.3011,936.9058 539.4025,936.9164 533.9779,930.4562 C529.5733,936.3136 525.0669,935.6972 521.9559,929.1976 C518.0278,934.1367 511.6963,933.4005 508.9719,927.7252 C498.0009,925.5762 497.1695,919.8387 501.8576,911.0206 C494.5376,901.5097 496.6558,895.8192 508.3763,893.3209" fill="#FEF3C7" style="stroke:#181818;stroke-width:0.5;"/><text fill="#000000" font-family="Monospace" font-size="14" lengthAdjust="spacing" textLength="39.1019" x="514.4" y="915.0562">install</text></g><!--entity tool_mapfile--><g class="entity" data-qualified-name="tool_mapfile" data-source-line="24" id="ent0019"><path d="M503.2143,1230.2488 C507.8722,1221.3371 515.4685,1221.7002 520.0499,1230.3223 C523.9945,1223.0824 529.3231,1223.7506 533.9589,1229.5872 C539.7568,1221.666 546.1812,1222.6783 551.5971,1230.0285 C556.1548,1221.9968 562.6639,1222.6018 566.6784,1230.5414 C577.5673,1231.0602 579.4731,1237.0312 575.4296,1246.0021 C581.0103,1255.7118 578.39,1262.381 566.5556,1262.9974 C564.2313,1271.4822 556.4227,1271.738 551.1281,1266.2852 C547.9565,1276.5324 542.0059,1277.6729 534.3694,1270.6072 C528.0413,1276.7304 523.3187,1276.0111 519.1505,1268.2412 C511.4791,1273.4095 506.0429,1272.9013 502.8042,1263.3265 C493.1067,1260.2309 490.6898,1254.4914 498.3529,1246.7375 C492.7615,1239.9037 493.0764,1232.4451 503.2143,1230.2488" fill="#FEF3C7" style="stroke:#181818;stroke-width:0.5;"/><text fill="#000000" font-family="Monospace" font-size="14" lengthAdjust="spacing" textLength="49.4898" x="509.2" y="1251.0562">mapfile</text></g><!--entity tool_mkdir--><g class="entity" data-qualified-name="tool_mkdir" data-source-line="25" id="ent0020"><path d="M508.9713,1901.6476 C512.7959,1895.8116 518.1233,1895.8105 521.4487,1902.1589 C524.9758,1895.2954 530.5426,1895.573 535.2747,1900.7785 C539.2126,1894.7455 543.4604,1895.2695 547.7556,1900.3782 C552.1027,1895.0362 557.3554,1894.5937 560.4607,1901.6507 C573.0644,1901.8704 575.6008,1909.0597 571.2045,1919.5076 C575.7929,1928.2608 570.2985,1934.6914 561.3893,1934.7567 C558.4507,1941.0201 554.5779,1943.2736 548.7334,1937.9234 C545.8857,1944.6097 539.6946,1946.2539 534.3739,1940.8638 C528.9432,1945.3817 525.0574,1943.2299 522.985,1937.228 C517.3031,1944.45 510.8904,1942.472 507.8383,1934.5907 C498.4884,1932.5278 494.1133,1928.0321 499.9715,1918.5232 C494.5152,1908.0889 498.7796,1903.7367 508.9713,1901.6476" fill="#FEF3C7" style="stroke:#181818;stroke-width:0.5;"/><text fill="#000000" font-family="Monospace" font-size="14" lengthAdjust="spacing" textLength="38.5699" x="514.66" y="1923.0562">mkdir</text></g><!--entity tool_next--><g class="entity" data-qualified-name="tool_next" data-source-line="26" id="ent0021"><path d="M513.3962,475.0323 C518.8219,462.9214 525.9268,461.5869 534.8882,471.5972 C543.2457,462.5359 551.4015,461.7502 556.7402,474.607 C564.6059,478.5149 566.332,484.7262 558.5286,490.4077 C564.3583,496.9679 564.8113,502.2037 556.3069,506.824 C551.8538,517.5274 542.6086,517.5689 535.947,509.179 C527.9568,517.6835 521.0974,519.2931 514.534,507.6617 C506.032,504.8733 503.2579,496.9909 509.464,489.9842 C502.6435,483.367 504.0219,477.3904 513.3962,475.0323" fill="#FEF3C7" style="stroke:#181818;stroke-width:0.5;"/><text fill="#000000" font-family="Monospace" font-size="14" lengthAdjust="spacing" textLength="29.0079" x="519.44" y="495.0562">next</text></g><!--entity tool_openssl--><g class="entity" data-qualified-name="tool_openssl" data-source-line="27" id="ent0022"><path d="M503.0073,1481.3035 C507.9923,1472.2552 513.9277,1473.6059 519.2814,1480.9372 C523.2743,1472.0036 531.1745,1473.6428 535.4402,1480.6607 C540.9775,1472.3126 547.8939,1472.8439 551.7897,1482.1785 C556.432,1476.1044 563.5798,1476.1725 567.5293,1483.0223 C576.731,1483.6885 581.7373,1490.3961 576.2993,1499.0653 C582.833,1509.4744 578.2066,1515.8879 566.7109,1516.2193 C562.3973,1524.2336 554.7946,1523.4733 550.3892,1516.3181 C546.9512,1522.9448 540.1962,1524.6216 535.17,1518.1657 C529.9861,1525.8758 523.3029,1524.5164 519.5605,1516.7151 C514.6567,1526.0832 506.2334,1524.4028 502.0629,1515.9934 C491.4824,1512.281 491.8013,1504.2475 499.5221,1497.957 C493.5662,1490.6665 495.0802,1485.6886 503.0073,1481.3035" fill="#FEF3C7" style="stroke:#181818;stroke-width:0.5;"/><text fill="#000000" font-family="Monospace" font-size="14" lengthAdjust="spacing" textLength="50.6518" x="508.62" y="1503.0562">openssl</text></g><!--entity tool_pip--><g class="entity" data-qualified-name="tool_pip" data-source-line="28" id="ent0023"><path d="M517.8212,2153.159 C522.1655,2145.5311 529.6307,2144.0685 535.0851,2151.9209 C542.4931,2143.8071 548.6018,2145.7545 552.8905,2155.1017 C562.2619,2156.3538 566.3219,2161.2464 561.487,2170.4535 C567.5778,2180.1803 561.9044,2186.6044 552.0161,2187.402 C549.1061,2197.3776 543.4152,2199.7449 535.0333,2192.9398 C526.7173,2200.052 518.9026,2196.1489 516.9146,2186.214 C509.102,2181.9354 506.67,2177.3132 514.1787,2170.3862 C507.1108,2163.1682 507.9957,2156.8051 517.8212,2153.159" fill="#FEF3C7" style="stroke:#181818;stroke-width:0.5;"/><text fill="#000000" font-family="Monospace" font-size="14" lengthAdjust="spacing" textLength="20.8319" x="523.53" y="2175.0562">pip</text></g><!--entity tool_podman_compose--><g class="entity" data-qualified-name="tool_podman_compose" data-source-line="29" id="ent0024"><path d="M468.3502,558.1443 C471.7683,551.8745 476.1785,551.8972 479.8764,557.8811 C482.5202,552.4689 486.6193,553.1252 489.9524,557.1448 C494.1068,550.9423 498.9881,550.8124 502.5329,557.7294 C505.6036,552.8356 509.8787,552.4098 513.3363,557.3024 C516.6494,551.3918 520.6794,551.0444 524.6531,556.6534 C527.879,551.7411 532.0492,552.4044 534.9776,556.9772 C538.7956,551.9306 542.1506,551.8444 545.6388,557.3117 C549.3128,550.5148 554.9443,551.3446 558.271,557.6465 C561.7824,552.7105 565.4591,553.1365 568.394,558.2285 C572.6181,552.2017 576.3945,552.8585 580.3937,558.4606 C583.6418,553.6921 586.8381,552.7645 591.1276,557.253 C594.8196,552.7425 599.7799,552.9336 602.4386,558.4219 C611.3026,561.7112 612.6382,569.3172 606.0204,575.7978 C611.4847,582.332 609.6888,588.9033 600.8722,590.4037 C599.736,595.6337 595.7144,597.0185 591.8545,593.0838 C588.7857,598.5826 585.2252,599.3851 580.4876,595.0037 C576.4794,601.5012 571.3252,601.3498 567.4129,594.9067 C564.7799,600.1253 561.6701,600.0329 558.0553,595.8878 C555.2531,602.8734 551.5517,604.322 545.5883,599.1221 C542.5056,603.617 538.6884,603.8259 535.563,599.1688 C531.4754,604.3597 527.4013,604.4175 523.925,598.5268 C519.8112,602.3828 515.1784,601.3145 513.7749,595.6402 C510.452,600.8018 505.1102,601.1211 501.6158,595.8398 C496.5563,600.8955 492.6416,600.0977 489.9658,593.4641 C486.3418,598.86 482.9489,598.9355 479.0744,593.7212 C474.2709,597.7209 469.9878,595.9584 468.3732,590.2178 C460.7764,585.7776 460.7017,578.8489 467.8625,573.9455 C460.2856,569.1361 460.537,562.4786 468.3502,558.1443" fill="#FEF3C7" style="stroke:#181818;stroke-width:0.5;"/><text fill="#000000" font-family="Monospace" font-size="14" lengthAdjust="spacing" textLength="119.7556" x="474.07" y="579.0562">podman-compose</text></g><!--entity tool_pre_commit--><g class="entity" data-qualified-name="tool_pre_commit" data-source-line="30" id="ent0025"><path d="M490.1072,2237.5431 C492.8931,2232.4467 497.469,2232.8084 500.2129,2237.5862 C504.3071,2231.3389 509.6735,2232.7683 513.1436,2238.273 C516.477,2232.7632 519.7473,2232.3352 523.5043,2237.8758 C526.4095,2230.9483 530.9797,2230.9123 535.7278,2236.0012 C539.5556,2230.739 543.9672,2232.8442 546.2608,2237.6122 C549.4078,2232.4616 553.4537,2232.2468 556.989,2237.1998 C560.8436,2231.335 565.766,2232.4603 568.8461,2238.0047 C571.9273,2232.2767 576.5881,2233.581 579.5763,2238.1021 C587.8048,2241.9133 588.4861,2248.9271 581.3236,2254.3895 C589.344,2259.353 588.825,2265.0346 581.4924,2270.1624 C578.296,2275.5849 573.9913,2276.3274 570.0497,2270.9521 C567.3779,2277.6404 562.2986,2277.8968 557.771,2272.9026 C553.7897,2278.3088 550.458,2277.57 546.7246,2272.6375 C544.305,2278.3485 539.0188,2278.4901 536.0036,2273.219 C532.5817,2277.9745 527.4644,2278.3936 524.3358,2272.8856 C520.2978,2276.6829 515.5695,2276.9676 513.4236,2270.8113 C510.4116,2277.8533 504.2541,2277.0877 500.2027,2271.9386 C496.6468,2276.4354 490.9987,2276.0722 488.6347,2270.5611 C479.8279,2269.412 476.8725,2261.1667 481.7487,2254.2435 C477.0321,2244.8406 478.4516,2238.7517 490.1072,2237.5431" fill="#FEF3C7" style="stroke:#181818;stroke-width:0.5;"/><text fill="#000000" font-family="Monospace" font-size="14" lengthAdjust="spacing" textLength="76.8317" x="495.53" y="2259.0562">pre-commit</text></g><!--entity tool_print--><g class="entity" data-qualified-name="tool_print" data-source-line="31" id="ent0026"><path d="M512.0842,641.7602 C515.0397,636.2213 519.2819,635.6926 522.7878,641.2283 C525.0904,635.8446 530.1358,633.5814 534.5317,638.9398 C538.9918,634.5805 543.621,634.6143 546.2955,640.911 C550.507,635.2513 556.2735,636.8099 558.9162,642.6351 C568.2046,647.3131 568.4973,652.5331 561.1259,659.4061 C567.4949,665.2512 564.8135,672.2857 557.3931,674.7835 C555.749,679.7965 551.7714,682.0528 547.293,677.9102 C543.962,684.8512 539.1913,685.5323 534.7025,678.9915 C530.3106,683.0167 526.6623,683.6064 523.9301,677.2666 C519.7135,682.4334 515.9428,681.9738 513.1824,675.8771 C503.7251,673.7048 501.3353,665.8693 506.7841,658.2779 C500.041,651.2285 503.4712,643.8822 512.0842,641.7602" fill="#FEF3C7" style="stroke:#181818;stroke-width:0.5;"/><text fill="#000000" font-family="Monospace" font-size="14" lengthAdjust="spacing" textLength="31.7099" x="518.09" y="663.0562">print</text></g><!--entity tool_python3--><g class="entity" data-qualified-name="tool_python3" data-source-line="32" id="ent0027"><path d="M501.5934,1397.3731 C505.6831,1393.0863 509.7839,1392.9836 512.7909,1398.5976 C514.9735,1392.9002 520.3635,1391.0943 524.3557,1396.755 C527.9295,1392.5275 531.1666,1392.7117 533.9942,1397.5485 C536.6598,1392.4584 541.6856,1390.8317 545.4875,1396.3131 C549.4679,1390.5221 555.1766,1390.8 558.4698,1397.0538 C562.1588,1392.4541 566.836,1392.5507 569.1184,1398.4767 C576.0184,1402.215 577.6293,1408.6671 571.1767,1414.1579 C579.2333,1420.7822 578.886,1426.4342 569.0713,1430.7972 C567.3995,1436.6345 562.8371,1436.897 558.7939,1433.4114 C556.6831,1441.33 551.327,1441.466 545.7027,1437.18 C544.1808,1442.9719 540.3803,1446.0232 534.7052,1441.6923 C528.5169,1445.692 524.6646,1444.6032 522.6991,1437.2331 C518.7834,1440.6067 513.4845,1439.9958 512.3576,1434.1163 C507.7477,1438.4533 503.7067,1437.8061 501.2153,1431.8279 C493.459,1428.5478 491.7133,1421.4133 498.4059,1415.6275 C491.3964,1409.2436 491.8626,1400.8341 501.5934,1397.3731" fill="#FEF3C7" style="stroke:#181818;stroke-width:0.5;"/><text fill="#000000" font-family="Monospace" font-size="14" lengthAdjust="spacing" textLength="54.5858" x="506.65" y="1419.0562">python3</text></g><!--entity tool_readarray--><g class="entity" data-qualified-name="tool_readarray" data-source-line="33" id="ent0028"><path d="M495.2353,1565.3383 C498.9638,1558.1005 505.1382,1558.8292 509.3665,1564.8038 C512.6189,1558.6033 518.3341,1560.0806 521.4236,1564.9807 C525.9402,1558.8318 530.7615,1558.4531 534.813,1565.4543 C539.3104,1558.4555 545.1221,1559.6606 549.2245,1565.8848 C552.4541,1559.982 558.0431,1558.9242 561.93,1565.1991 C567.0176,1559.3578 570.9591,1560.1734 574.0386,1567.103 C583.4447,1569.2299 586.2973,1574.0623 582.4069,1583.1312 C587.3353,1591.9309 584.0677,1597.5152 574.2536,1598.4873 C571.2322,1606.4418 566.9426,1607.0551 560.9148,1601.4434 C556.9547,1608.1962 552.3485,1607.5967 547.4996,1602.4449 C545.044,1609.2665 539.4267,1608.9202 535.2456,1604.2915 C530.5553,1610.0965 524.5781,1610.6797 521.1146,1603.0054 C516.0926,1608.3836 511.1935,1608.4882 508.3919,1600.8373 C503.0401,1606.0523 499.2838,1604.5855 496.5415,1598.1768 C486.7868,1596.93 484.7588,1590.403 489.2894,1582.5336 C482.9999,1575.1535 484.8142,1566.9401 495.2353,1565.3383" fill="#FEF3C7" style="stroke:#181818;stroke-width:0.5;"/><text fill="#000000" font-family="Monospace" font-size="14" lengthAdjust="spacing" textLength="64.5538" x="501.67" y="1587.0562">readarray</text></g><!--entity tool_rm--><g class="entity" data-qualified-name="tool_rm" data-source-line="34" id="ent0029"><path d="M519.6992,1146.98 C522.9626,1138.3215 529.1068,1137.3193 535.8315,1143.1174 C542.2368,1135.5893 549.1247,1138.4598 552.0016,1146.7291 C561.5475,1149.5164 561.0332,1155.9794 555.5565,1162.2152 C562.7719,1168.7365 560.6441,1175.2609 552.5412,1179.0364 C552.1366,1191.9297 543.6744,1193.7718 534.075,1188.2636 C526.5768,1192.3442 518.8756,1189.7573 518.8636,1180.0216 C509.3482,1177.6879 506.3574,1170.9594 513.6703,1163.3756 C506.971,1155.8256 511.4191,1149.0219 519.6992,1146.98" fill="#FEF3C7" style="stroke:#181818;stroke-width:0.5;"/><text fill="#000000" font-family="Monospace" font-size="14" lengthAdjust="spacing" textLength="18.8719" x="524.51" y="1167.0562">rm</text></g><!--entity tool_systemctl--><g class="entity" data-qualified-name="tool_systemctl" data-source-line="35" id="ent0030"><path d="M496.1143,1649.3557 C499.5548,1643.4369 506.0793,1642.7552 509.18,1649.7007 C512.9216,1642.99 517.9585,1642.9133 522.4923,1648.8679 C526.5241,1642.6208 531.0624,1643.1133 535.5076,1648.4014 C539.0515,1642.3672 542.7175,1642.95 546.6613,1647.999 C551.6221,1641.3396 556.0937,1642.3005 559.9066,1649.1264 C563.494,1643.7661 569.7325,1642.8584 572.7865,1649.6899 C581.4828,1652.4226 584.4791,1660.63 577.9998,1667.7446 C583.3352,1673.5493 581.552,1680.3312 573.9704,1682.6423 C571.401,1691.1808 565.8683,1691.852 559.561,1686.5274 C556.8989,1692.1274 552.7598,1692.8751 548.1065,1688.9125 C545.2441,1695.5355 539.9262,1697.528 534.9794,1690.9919 C529.538,1696.562 525.1052,1695.2337 522.6095,1688.1193 C518.2127,1693.4129 512.4929,1693.7878 509.5761,1686.5768 C504.6575,1690.646 500.238,1691.3755 497.6784,1684.1023 C486.9143,1680.9841 486.7723,1675.1166 492.6476,1667.0806 C485.8674,1659.8224 486.1547,1653.3399 496.1143,1649.3557" fill="#FEF3C7" style="stroke:#181818;stroke-width:0.5;"/><text fill="#000000" font-family="Monospace" font-size="14" lengthAdjust="spacing" textLength="61.9778" x="502.96" y="1671.0562">systemctl</text></g><!--entity tool_tail--><g class="entity" data-qualified-name="tool_tail" data-source-line="36" id="ent0031"><path d="M518.1712,1313.159 C522.4168,1305.6787 529.7293,1304.2347 535.0851,1311.9209 C542.3796,1303.9868 548.3653,1305.918 552.5405,1315.1017 C561.9119,1316.3538 565.9719,1321.2464 561.137,1330.4535 C567.2278,1340.1803 561.5544,1346.6044 551.6661,1347.402 C548.8709,1357.2094 543.3004,1359.5672 535.0333,1352.9398 C526.8137,1359.8789 519.1563,1355.9928 517.2646,1346.214 C509.452,1341.9354 507.02,1337.3132 514.5287,1330.3862 C507.4608,1323.1682 508.3457,1316.8051 518.1712,1313.159" fill="#FEF3C7" style="stroke:#181818;stroke-width:0.5;"/><text fill="#000000" font-family="Monospace" font-size="14" lengthAdjust="spacing" textLength="20.1319" x="523.88" y="1335.0562">tail</text></g><!--entity tool_updated--><g class="entity" data-qualified-name="tool_updated" data-source-line="37" id="ent0032"><path d="M500.9083,727.2464 C503.5309,721.3637 508.7662,720.7138 512.3627,726.2712 C515.0536,720.4745 518.3948,719.808 522.8409,724.5213 C526.1119,717.8433 532.022,718.3568 535.6995,724.1006 C539.2005,719.6441 543.5742,720.5283 545.5583,725.6601 C549.9279,718.8418 555.5258,720.5345 558.908,726.6771 C562.1559,721.9208 565.7481,721.0633 569.13,726.5433 C579.771,729.6044 581.0121,735.0107 574.6989,743.6056 C581.9512,751.4298 578.6497,757.9883 569.0193,759.9437 C566.3026,765.7261 562.3553,765.8741 558.1252,761.5799 C556.5261,768.8515 551.3106,770.6532 545.7092,765.6175 C544.1768,770.5233 539.4269,772.3086 535.8396,767.7634 C531.3302,772.3623 524.9557,771.3108 523.0799,764.7518 C517.6103,769.9262 514.2119,768.3272 511.2646,762.1309 C506.5203,766.8241 502.3795,766.7428 499.7175,760.0239 C491.6162,756.0659 488.3811,749.8722 496.5786,742.9226 C489.1261,736.3802 491.327,729.084 500.9083,727.2464" fill="#FEF3C7" style="stroke:#181818;stroke-width:0.5;"/><text fill="#000000" font-family="Monospace" font-size="14" lengthAdjust="spacing" textLength="55.2858" x="506.3" y="747.0562">updated</text></g><g class="entity" data-qualified-name="toolingGraphSummary" data-source-line="71" id="ent0065"><path d="M91.47,463.9203 L91.47,509.3323 L298.9812,509.3323 L298.9812,473.9203 L288.9812,463.9203 L91.47,463.9203" fill="#FEFFDD" style="stroke:#181818;stroke-width:0.5;"/><path d="M288.9812,463.9203 L288.9812,473.9203 L298.9812,473.9203 L288.9812,463.9203" fill="#FEFFDD" style="stroke:#181818;stroke-width:1;"/><text fill="#000000" font-family="Monospace" font-size="13" lengthAdjust="spacing" textLength="186.5112" x="97.47" y="482.8173">Scanned&#160;4&#160;tooling&#160;entrypoints.</text><text fill="#000000" font-family="Monospace" font-size="13" lengthAdjust="spacing" textLength="179.2182" x="97.47" y="500.5233">Detected&#160;27&#160;third-party&#160;tools.</text></g><!--link source_github_workflows_ci_yml to tool_actions_checkout--><g class="link" data-entity-1="ent0002" data-entity-2="ent0007" data-link-type="dependency" data-source-line="38" id="lnk33"><path d="M280.44,2098.0803 C280.44,2060.8403 280.44,2001.6303 280.44,2001.6303 C280.44,2001.6303 381.68,2001.6303 456.66,2001.6303" fill="none" id="source_github_workflows_ci_yml-to-tool_actions_checkout" style="stroke:#181818;stroke-width:1;"/><polygon fill="#181818" points="462.66,2001.6303,453.66,1997.6303,457.66,2001.6303,453.66,2005.6303,462.66,2001.6303" style="stroke:#181818;stroke-width:1;"/></g><!--link source_github_workflows_ci_yml to tool_actions_setup_python--><g class="link" data-entity-1="ent0002" data-entity-2="ent0008" data-link-type="dependency" data-source-line="39" id="lnk34"><path d="M286.89,2104.3603 C337.14,2104.3603 393.05,2104.3603 442.32,2104.3603" fill="none" id="source_github_workflows_ci_yml-to-tool_actions_setup_python" style="stroke:#181818;stroke-width:1;"/><polygon fill="#181818" points="448.32,2104.3603,439.32,2100.3603,443.32,2104.3603,439.32,2108.3603,448.32,2104.3603" style="stroke:#181818;stroke-width:1;"/></g><!--link source_github_workflows_ci_yml to tool_pip--><g class="link" data-entity-1="ent0002" data-entity-2="ent0023" data-link-type="dependency" data-source-line="40" id="lnk35"><path d="M286.89,2148.9603 C361.54,2148.9603 455.89,2148.9603 502.36,2148.9603" fill="none" id="source_github_workflows_ci_yml-to-tool_pip" style="stroke:#181818;stroke-width:1;"/><polygon fill="#181818" points="508.36,2148.9603,499.36,2144.9603,503.36,2148.9603,499.36,2152.9603,508.36,2148.9603" style="stroke:#181818;stroke-width:1;"/></g><!--link source_github_workflows_ci_yml to tool_pre_commit--><g class="link" data-entity-1="ent0002" data-entity-2="ent0025" data-link-type="dependency" data-source-line="41" id="lnk36"><path d="M287.03,2152.8303 C374.99,2152.8303 494.44,2152.8303 494.44,2152.8303 C494.44,2152.8303 494.44,2192.8603 494.44,2222.7103" fill="none" id="source_github_workflows_ci_yml-to-tool_pre_commit" style="stroke:#181818;stroke-width:1;"/><polygon fill="#181818" points="494.44,2228.7103,498.44,2219.7103,494.44,2223.7103,490.44,2219.7103,494.44,2228.7103" style="stroke:#181818;stroke-width:1;"/></g><!--link source_scripts_apply_site_changes_sh to tool_bash--><g class="link" data-entity-1="ent0003" data-entity-2="ent0010" data-link-type="dependency" data-source-line="42" id="lnk37"><path d="M195.44,1132.3603 C195.44,1084.2303 195.44,993.6303 195.44,993.6303 C195.44,993.6303 412.91,993.6303 496.71,993.6303" fill="none" id="source_scripts_apply_site_changes_sh-to-tool_bash" style="stroke:#181818;stroke-width:1;"/><polygon fill="#181818" points="502.71,993.6303,493.71,989.6303,497.71,993.6303,493.71,997.6303,502.71,993.6303" style="stroke:#181818;stroke-width:1;"/></g><!--link source_scripts_apply_site_changes_sh to tool_cat--><g class="link" data-entity-1="ent0003" data-entity-2="ent0011" data-link-type="dependency" data-source-line="43" id="lnk38"><path d="M248.44,1132.2503 C248.44,1108.0203 248.44,1077.6303 248.44,1077.6303 C248.44,1077.6303 433.65,1077.6303 503.11,1077.6303" fill="none" id="source_scripts_apply_site_changes_sh-to-tool_cat" style="stroke:#181818;stroke-width:1;"/><polygon fill="#181818" points="509.11,1077.6303,500.11,1073.6303,504.11,1077.6303,500.11,1081.6303,509.11,1077.6303" style="stroke:#181818;stroke-width:1;"/></g><!--link source_scripts_apply_site_changes_sh to tool_install--><g class="link" data-entity-1="ent0003" data-entity-2="ent0018" data-link-type="dependency" data-source-line="44" id="lnk39"><path d="M141.44,1132.2203 C141.44,1067.3703 141.44,917.8003 141.44,917.8003 C141.44,917.8003 397.05,917.8003 493.12,917.8003" fill="none" id="source_scripts_apply_site_changes_sh-to-tool_install" style="stroke:#181818;stroke-width:1;"/><polygon fill="#181818" points="499.12,917.8003,490.12,913.8003,494.12,917.8003,490.12,921.8003,499.12,917.8003" style="stroke:#181818;stroke-width:1;"/></g><!--link source_scripts_apply_site_changes_sh to tool_mapfile--><g class="link" data-entity-1="ent0003" data-entity-2="ent0019" data-link-type="dependency" data-source-line="45" id="lnk40"><path d="M298.44,1191.0103 C298.44,1215.2303 298.44,1245.6303 298.44,1245.6303 C298.44,1245.6303 420.47,1245.6303 487.73,1245.6303" fill="none" id="source_scripts_apply_site_changes_sh-to-tool_mapfile" style="stroke:#181818;stroke-width:1;"/><polygon fill="#181818" points="493.73,1245.6303,484.73,1241.6303,488.73,1245.6303,484.73,1249.6303,493.73,1245.6303" style="stroke:#181818;stroke-width:1;"/></g><!--link source_scripts_apply_site_changes_sh to tool_python3--><g class="link" data-entity-1="ent0003" data-entity-2="ent0027" data-link-type="dependency" data-source-line="46" id="lnk41"><path d="M290.44,1191.0403 C290.44,1255.8903 290.44,1405.4503 290.44,1405.4503 C290.44,1405.4503 415.42,1405.4503 485.25,1405.4503" fill="none" id="source_scripts_apply_site_changes_sh-to-tool_python3" style="stroke:#181818;stroke-width:1;"/><polygon fill="#181818" points="491.25,1405.4503,482.25,1401.4503,486.25,1405.4503,482.25,1409.4503,491.25,1405.4503" style="stroke:#181818;stroke-width:1;"/></g><!--link source_scripts_apply_site_changes_sh to tool_tail--><g class="link" data-entity-1="ent0003" data-entity-2="ent0031" data-link-type="dependency" data-source-line="47" id="lnk42"><path d="M294.44,1190.8903 C294.44,1239.0203 294.44,1329.6303 294.44,1329.6303 C294.44,1329.6303 441.28,1329.6303 502.77,1329.6303" fill="none" id="source_scripts_apply_site_changes_sh-to-tool_tail" style="stroke:#181818;stroke-width:1;"/><polygon fill="#181818" points="508.77,1329.6303,499.77,1325.6303,503.77,1329.6303,499.77,1333.6303,508.77,1329.6303" style="stroke:#181818;stroke-width:1;"/></g><!--link source_scripts_deploy_snowbridge_filebrowser_fork_image_sh to tool_command_exists--><g class="link" data-entity-1="ent0004" data-entity-2="ent0006" data-link-type="dependency" data-source-line="48" id="lnk43"><path d="M348.44,603.0303 C348.44,669.5003 348.44,825.6303 348.44,825.6303 C348.44,825.6303 403.4,825.6303 455.43,825.6303" fill="none" id="source_scripts_deploy_snowbridge_filebrowser_fork_image_sh-to-tool_command_exists" style="stroke:#181818;stroke-width:1;"/><polygon fill="#181818" points="461.43,825.6303,452.43,821.6303,456.43,825.6303,452.43,829.6303,461.43,825.6303" style="stroke:#181818;stroke-width:1;"/></g><!--link source_scripts_deploy_snowbridge_filebrowser_fork_image_sh to tool_args_container_tool--><g class="link" data-entity-1="ent0004" data-entity-2="ent0009" data-link-type="dependency" data-source-line="49" id="lnk44"><path d="M383.91,565.4503 C423.45,565.4503 453.44,565.4503 453.44,565.4503 C453.44,565.4503 453.44,201.1003 453.44,100.5503" fill="none" id="source_scripts_deploy_snowbridge_filebrowser_fork_image_sh-to-tool_args_container_tool" style="stroke:#181818;stroke-width:1;"/><polygon fill="#181818" points="453.44,94.5503,449.44,103.5503,453.44,99.5503,457.44,103.5503,453.44,94.5503" style="stroke:#181818;stroke-width:1;"/></g><!--link source_scripts_deploy_snowbridge_filebrowser_fork_image_sh to tool_cat--><g class="link" data-entity-1="ent0004" data-entity-2="ent0011" data-link-type="dependency" data-source-line="50" id="lnk45"><path d="M325.44,602.9103 C325.44,708.7703 325.44,1065.3603 325.44,1065.3603 C325.44,1065.3603 447.34,1065.3603 502.8,1065.3603" fill="none" id="source_scripts_deploy_snowbridge_filebrowser_fork_image_sh-to-tool_cat" style="stroke:#181818;stroke-width:1;"/><polygon fill="#181818" points="508.8,1065.3603,499.8,1061.3603,503.8,1065.3603,499.8,1069.3603,508.8,1065.3603" style="stroke:#181818;stroke-width:1;"/></g><!--link source_scripts_deploy_snowbridge_filebrowser_fork_image_sh to tool_docker--><g class="link" data-entity-1="ent0004" data-entity-2="ent0014" data-link-type="dependency" data-source-line="51" id="lnk46"><path d="M313.44,544.0903 C313.44,448.4903 313.44,153.6303 313.44,153.6303 C313.44,153.6303 427,153.6303 490.04,153.6303" fill="none" id="source_scripts_deploy_snowbridge_filebrowser_fork_image_sh-to-tool_docker" style="stroke:#181818;stroke-width:1;"/><polygon fill="#181818" points="496.04,153.6303,487.04,149.6303,491.04,153.6303,487.04,157.6303,496.04,153.6303" style="stroke:#181818;stroke-width:1;"/></g><!--link source_scripts_deploy_snowbridge_filebrowser_fork_image_sh to tool_docker_compose--><g class="link" data-entity-1="ent0004" data-entity-2="ent0015" data-link-type="dependency" data-source-line="52" id="lnk47"><path d="M327.44,544.1003 C327.44,462.1103 327.44,237.6303 327.44,237.6303 C327.44,237.6303 398.37,237.6303 458.32,237.6303" fill="none" id="source_scripts_deploy_snowbridge_filebrowser_fork_image_sh-to-tool_docker_compose" style="stroke:#181818;stroke-width:1;"/><polygon fill="#181818" points="464.32,237.6303,455.32,233.6303,459.32,237.6303,455.32,241.6303,464.32,237.6303" style="stroke:#181818;stroke-width:1;"/></g><!--link source_scripts_deploy_snowbridge_filebrowser_fork_image_sh to tool_docker_compose_2--><g class="link" data-entity-1="ent0004" data-entity-2="ent0016" data-link-type="dependency" data-source-line="53" id="lnk48"><path d="M341.44,544.2303 C341.44,477.7503 341.44,321.6303 341.44,321.6303 C341.44,321.6303 402.86,321.6303 457.9,321.6303" fill="none" id="source_scripts_deploy_snowbridge_filebrowser_fork_image_sh-to-tool_docker_compose_2" style="stroke:#181818;stroke-width:1;"/><polygon fill="#181818" points="463.9,321.6303,454.9,317.6303,458.9,321.6303,454.9,325.6303,463.9,321.6303" style="stroke:#181818;stroke-width:1;"/></g><!--link source_scripts_deploy_snowbridge_filebrowser_fork_image_sh to tool_grep--><g class="link" data-entity-1="ent0004" data-entity-2="ent0017" data-link-type="dependency" data-source-line="54" id="lnk49"><path d="M355.44,544.3603 C355.44,496.2303 355.44,405.6303 355.44,405.6303 C355.44,405.6303 446.22,405.6303 497.26,405.6303" fill="none" id="source_scripts_deploy_snowbridge_filebrowser_fork_image_sh-to-tool_grep" style="stroke:#181818;stroke-width:1;"/><polygon fill="#181818" points="503.26,405.6303,494.26,401.6303,498.26,405.6303,494.26,409.6303,503.26,405.6303" style="stroke:#181818;stroke-width:1;"/></g><!--link source_scripts_deploy_snowbridge_filebrowser_fork_image_sh to tool_install--><g class="link" data-entity-1="ent0004" data-entity-2="ent0018" data-link-type="dependency" data-source-line="55" id="lnk50"><path d="M337.44,603.0103 C337.44,683.4703 337.44,901.4503 337.44,901.4503 C337.44,901.4503 436.86,901.4503 493.27,901.4503" fill="none" id="source_scripts_deploy_snowbridge_filebrowser_fork_image_sh-to-tool_install" style="stroke:#181818;stroke-width:1;"/><polygon fill="#181818" points="499.27,901.4503,490.27,897.4503,494.27,901.4503,490.27,905.4503,499.27,901.4503" style="stroke:#181818;stroke-width:1;"/></g><!--link source_scripts_deploy_snowbridge_filebrowser_fork_image_sh to tool_next--><g class="link" data-entity-1="ent0004" data-entity-2="ent0021" data-link-type="dependency" data-source-line="56" id="lnk51"><path d="M369.44,544.3703 C369.44,519.3003 369.44,487.2103 369.44,487.2103 C369.44,487.2103 450.75,487.2103 498.16,487.2103" fill="none" id="source_scripts_deploy_snowbridge_filebrowser_fork_image_sh-to-tool_next" style="stroke:#181818;stroke-width:1;"/><polygon fill="#181818" points="504.16,487.2103,495.16,483.2103,499.16,487.2103,495.16,491.2103,504.16,487.2103" style="stroke:#181818;stroke-width:1;"/></g><!--link source_scripts_deploy_snowbridge_filebrowser_fork_image_sh to tool_podman_compose--><g class="link" data-entity-1="ent0004" data-entity-2="ent0024" data-link-type="dependency" data-source-line="57" id="lnk52"><path d="M383.9,581.8003 C410.33,581.8003 430.13,581.8003 452.67,581.8003" fill="none" id="source_scripts_deploy_snowbridge_filebrowser_fork_image_sh-to-tool_podman_compose" style="stroke:#181818;stroke-width:1;"/><polygon fill="#181818" points="458.67,581.8003,449.67,577.8003,453.67,581.8003,449.67,585.8003,458.67,581.8003" style="stroke:#181818;stroke-width:1;"/></g><!--link source_scripts_deploy_snowbridge_filebrowser_fork_image_sh to tool_print--><g class="link" data-entity-1="ent0004" data-entity-2="ent0026" data-link-type="dependency" data-source-line="58" id="lnk53"><path d="M371.44,603.0103 C371.44,627.2303 371.44,657.6303 371.44,657.6303 C371.44,657.6303 449.39,657.6303 496.61,657.6303" fill="none" id="source_scripts_deploy_snowbridge_filebrowser_fork_image_sh-to-tool_print" style="stroke:#181818;stroke-width:1;"/><polygon fill="#181818" points="502.61,657.6303,493.61,653.6303,497.61,657.6303,493.61,661.6303,502.61,657.6303" style="stroke:#181818;stroke-width:1;"/></g><!--link source_scripts_deploy_snowbridge_filebrowser_fork_image_sh to tool_rm--><g class="link" data-entity-1="ent0004" data-entity-2="ent0029" data-link-type="dependency" data-source-line="59" id="lnk54"><path d="M313.44,603.1803 C313.44,721.3303 313.44,1153.4503 313.44,1153.4503 C313.44,1153.4503 445.41,1153.4503 503.08,1153.4503" fill="none" id="source_scripts_deploy_snowbridge_filebrowser_fork_image_sh-to-tool_rm" style="stroke:#181818;stroke-width:1;"/><polygon fill="#181818" points="509.08,1153.4503,500.08,1149.4503,504.08,1153.4503,500.08,1157.4503,509.08,1153.4503" style="stroke:#181818;stroke-width:1;"/></g><!--link source_scripts_deploy_snowbridge_filebrowser_fork_image_sh to tool_updated--><g class="link" data-entity-1="ent0004" data-entity-2="ent0032" data-link-type="dependency" data-source-line="60" id="lnk55"><path d="M360.44,602.8903 C360.44,651.0203 360.44,741.6303 360.44,741.6303 C360.44,741.6303 433.68,741.6303 485.06,741.6303" fill="none" id="source_scripts_deploy_snowbridge_filebrowser_fork_image_sh-to-tool_updated" style="stroke:#181818;stroke-width:1;"/><polygon fill="#181818" points="491.06,741.6303,482.06,737.6303,486.06,741.6303,482.06,745.6303,491.06,741.6303" style="stroke:#181818;stroke-width:1;"/></g><!--link source_scripts_setup_mtls_sh to tool_cat--><g class="link" data-entity-1="ent0005" data-entity-2="ent0011" data-link-type="dependency" data-source-line="61" id="lnk56"><path d="M274.24,1569.3603 C333.14,1569.3603 403.44,1569.3603 403.44,1569.3603 C403.44,1569.3603 403.44,1089.8903 403.44,1089.8903 C403.44,1089.8903 464.86,1089.8903 502.78,1089.8903" fill="none" id="source_scripts_setup_mtls_sh-to-tool_cat" style="stroke:#181818;stroke-width:1;"/><polygon fill="#181818" points="508.78,1089.8903,499.78,1085.8903,503.78,1089.8903,499.78,1093.8903,508.78,1089.8903" style="stroke:#181818;stroke-width:1;"/></g><!--link source_scripts_setup_mtls_sh to tool_chmod--><g class="link" data-entity-1="ent0005" data-entity-2="ent0012" data-link-type="dependency" data-source-line="62" id="lnk57"><path d="M211.44,1610.8903 C211.44,1659.0203 211.44,1749.6303 211.44,1749.6303 C211.44,1749.6303 404.26,1749.6303 489.69,1749.6303" fill="none" id="source_scripts_setup_mtls_sh-to-tool_chmod" style="stroke:#181818;stroke-width:1;"/><polygon fill="#181818" points="495.69,1749.6303,486.69,1745.6303,490.69,1749.6303,486.69,1753.6303,495.69,1749.6303" style="stroke:#181818;stroke-width:1;"/></g><!--link source_scripts_setup_mtls_sh to tool_cp--><g class="link" data-entity-1="ent0005" data-entity-2="ent0013" data-link-type="dependency" data-source-line="63" id="lnk58"><path d="M179.44,1611.0303 C179.44,1677.5003 179.44,1833.6303 179.44,1833.6303 C179.44,1833.6303 426.4,1833.6303 504.96,1833.6303" fill="none" id="source_scripts_setup_mtls_sh-to-tool_cp" style="stroke:#181818;stroke-width:1;"/><polygon fill="#181818" points="510.96,1833.6303,501.96,1829.6303,505.96,1833.6303,501.96,1837.6303,510.96,1833.6303" style="stroke:#181818;stroke-width:1;"/></g><!--link source_scripts_setup_mtls_sh to tool_mkdir--><g class="link" data-entity-1="ent0005" data-entity-2="ent0020" data-link-type="dependency" data-source-line="64" id="lnk59"><path d="M148.44,1611.1503 C148.44,1693.1403 148.44,1917.6303 148.44,1917.6303 C148.44,1917.6303 398.77,1917.6303 493.4,1917.6303" fill="none" id="source_scripts_setup_mtls_sh-to-tool_mkdir" style="stroke:#181818;stroke-width:1;"/><polygon fill="#181818" points="499.4,1917.6303,490.4,1913.6303,494.4,1917.6303,490.4,1921.6303,499.4,1917.6303" style="stroke:#181818;stroke-width:1;"/></g><!--link source_scripts_setup_mtls_sh to tool_openssl--><g class="link" data-entity-1="ent0005" data-entity-2="ent0022" data-link-type="dependency" data-source-line="65" id="lnk60"><path d="M221.44,1552.2503 C221.44,1528.0203 221.44,1497.6303 221.44,1497.6303 C221.44,1497.6303 402.86,1497.6303 487.41,1497.6303" fill="none" id="source_scripts_setup_mtls_sh-to-tool_openssl" style="stroke:#181818;stroke-width:1;"/><polygon fill="#181818" points="493.41,1497.6303,484.41,1493.6303,488.41,1497.6303,484.41,1501.6303,493.41,1497.6303" style="stroke:#181818;stroke-width:1;"/></g><!--link source_scripts_setup_mtls_sh to tool_python3--><g class="link" data-entity-1="ent0005" data-entity-2="ent0027" data-link-type="dependency" data-source-line="66" id="lnk61"><path d="M169.44,1552.3103 C169.44,1506.1703 169.44,1421.8003 169.44,1421.8003 C169.44,1421.8003 389.27,1421.8003 485.42,1421.8003" fill="none" id="source_scripts_setup_mtls_sh-to-tool_python3" style="stroke:#181818;stroke-width:1;"/><polygon fill="#181818" points="491.42,1421.8003,482.42,1417.8003,486.42,1421.8003,482.42,1425.8003,491.42,1421.8003" style="stroke:#181818;stroke-width:1;"/></g><!--link source_scripts_setup_mtls_sh to tool_readarray--><g class="link" data-entity-1="ent0005" data-entity-2="ent0028" data-link-type="dependency" data-source-line="67" id="lnk62"><path d="M274.21,1593.8903 C339.9,1593.8903 425.23,1593.8903 480.26,1593.8903" fill="none" id="source_scripts_setup_mtls_sh-to-tool_readarray" style="stroke:#181818;stroke-width:1;"/><polygon fill="#181818" points="486.26,1593.8903,477.26,1589.8903,481.26,1593.8903,477.26,1597.8903,486.26,1593.8903" style="stroke:#181818;stroke-width:1;"/></g><!--link source_scripts_setup_mtls_sh to tool_rm--><g class="link" data-entity-1="ent0005" data-entity-2="ent0029" data-link-type="dependency" data-source-line="68" id="lnk63"><path d="M274.4,1581.6303 C340.32,1581.6303 423.44,1581.6303 423.44,1581.6303 C423.44,1581.6303 423.44,1169.8003 423.44,1169.8003 C423.44,1169.8003 470.57,1169.8003 503.15,1169.8003" fill="none" id="source_scripts_setup_mtls_sh-to-tool_rm" style="stroke:#181818;stroke-width:1;"/><polygon fill="#181818" points="509.15,1169.8003,500.15,1165.8003,504.15,1169.8003,500.15,1173.8003,509.15,1169.8003" style="stroke:#181818;stroke-width:1;"/></g><!--link source_scripts_setup_mtls_sh to tool_systemctl--><g class="link" data-entity-1="ent0005" data-entity-2="ent0030" data-link-type="dependency" data-source-line="69" id="lnk64"><path d="M242.44,1611.0103 C242.44,1635.2303 242.44,1665.6303 242.44,1665.6303 C242.44,1665.6303 399.56,1665.6303 481.76,1665.6303" fill="none" id="source_scripts_setup_mtls_sh-to-tool_systemctl" style="stroke:#181818;stroke-width:1;"/><polygon fill="#181818" points="487.76,1665.6303,478.76,1661.6303,482.76,1665.6303,478.76,1669.6303,487.76,1665.6303" style="stroke:#181818;stroke-width:1;"/></g><?plantuml-src jPTDRzim38Rl_XL2UoamEDtIOaKFssLhXXssItSi82WsOmlH5oGPgV_zgDXn53j9dSuxadnUYhOeqVRS2o0RRhagqf9P1SwHFreBjCbFvQ6mp7EjN29WvOdNnFAYz2Jd5h8GIDoQAyCiayILBDUR85mnuI2AvB1YbV0BhVnl9e7yqaexmxAOoRGqMe7opxx6aa9wfWeH8rWK-De0qTQNEkaGSZKhk2-hvUr6s_LAw8sxpVYibk95tUFY7a78iNWjt1LXZZXTsGne8wATY6QSeeXSFtrSp1TFyG8kiznuTykC4JLrt0FDIeo1cxdoHNq-iqehfKCfTUMvjN8mGgD2wStIyhm0kk82bXOh1KjNM3NbaXMmhU3JtOWIncPyep07lZAfzA9v-CSHAsybD4ZYt9dGLKwkRd3l9LCvXLVkVACFcUYXdrmldXPttnvsChPjGDpg4hArhlnUrqReBd9AsJo8gR6Rr53TrDn41nbiuJvykKdJ37kQOL_QD6YZ90ZGBaY3hvzZoLov5mIhJsGiUYWq1l5IwZmYWZbWJ0IOVZJNsHhidcZiurHpH1tqQThwZwlIDrHqtjSL5gAQWzKdk7AUYUXjjuu-9va93RxdMiU0M-Dz5b71x3CANgFD25QVq0QKSr5LhQFF6Huz7Xg3kCwnwuVlhV6VUjl6Gf187bM9FjhuXZHN1o2Q0sRR-NSHrJZwd0MMCsjPlISxru2L4IJxKLSx3pBpqJliN7qM3rQ41QjFL2PdU2djeTRHSM-CWJJzUlmwkLWOtoIZnTWPuzbkevDHKwSJXbldGWdUGnSgsjDveQezgnUgsXwzK1NQ9_c7ORb_EGSJQvAKHoR9DAKEz_5TUPhhVC9KknlkFwIayqcIXfaqIQ8J9-DTkS98cYJHuPoP9cMOBvDaidAIDEqeICv-ffuxAgV8y0asbZKZmUtto4Ys_UOOIP-uBK_GtLGVoykHO3Va4wKzxEOr_ad-iCoKpnNUgRPEdZEc58xl-rsKuD-YhOt6tdApvFlk9sJ-G7p9RPxYNwElct-IMG8g9o7xNm00?></g></svg>
