<?plantuml 1.2026.2?><svg xmlns="http://www.w3.org/2000/svg" xmlns:xlink="http://www.w3.org/1999/xlink" contentStyleType="text/css" data-diagram-type="DESCRIPTION" height="1949px" preserveAspectRatio="none" style="width:633px;height:1949px;background:#FFFFFF;" version="1.1" viewBox="0 0 633 1949" width="633px" zoomAndPan="magnify"><title>wiring-harness Tooling Integrations</title><defs/><g><g class="title" data-source-line="1"><text fill="#000000" font-family="Monospace" font-size="14" font-weight="bold" lengthAdjust="spacing" textLength="250.0426" x="184.9436" y="24.9659">wiring-harness&#160;Tooling&#160;Integrations</text></g><!--entity source_github_workflows_ci_yml--><g class="entity" data-qualified-name="source_github_workflows_ci_yml" data-source-line="7" id="ent0002"><rect fill="#E0F2FE" height="58.1358" rx="2.5" ry="2.5" style="stroke:#181818;stroke-width:0.5;" width="182.6234" x="103.91" y="1762.509"/><text fill="#000000" font-family="Monospace" font-size="14" lengthAdjust="spacing" textLength="162.6234" x="113.91" y="1787.4749">.github/workflows/ci.yml</text><text fill="#000000" font-family="Monospace" font-size="14" lengthAdjust="spacing" textLength="105.3356" x="113.91" y="1806.5429">4&#160;detected&#160;tools</text></g><!--entity source_scripts_deploy_snowbridge_filebrowser_fork_image_sh--><g class="entity" data-qualified-name="source_scripts_deploy_snowbridge_filebrowser_fork_image_sh" data-source-line="8" id="ent0003"><rect fill="#E0F2FE" height="58.1358" rx="2.5" ry="2.5" style="stroke:#181818;stroke-width:0.5;" width="376.4526" x="7" y="544.509"/><text fill="#000000" font-family="Monospace" font-size="14" lengthAdjust="spacing" textLength="356.4526" x="17" y="569.4749">scripts/deploy_snowbridge_filebrowser_fork_image.sh</text><text fill="#000000" font-family="Monospace" font-size="14" lengthAdjust="spacing" textLength="113.3436" x="17" y="588.5429">13&#160;detected&#160;tools</text></g><!--entity source_scripts_setup_mtls_sh--><g class="entity" data-qualified-name="source_scripts_setup_mtls_sh" data-source-line="9" id="ent0004"><rect fill="#E0F2FE" height="58.1358" rx="2.5" ry="2.5" style="stroke:#181818;stroke-width:0.5;" width="157.3955" x="116.53" y="1300.509"/><text fill="#000000" font-family="Monospace" font-size="14" lengthAdjust="spacing" textLength="137.3955" x="126.53" y="1325.4749">scripts/setup-mtls.sh</text><text fill="#000000" font-family="Monospace" font-size="14" lengthAdjust="spacing" textLength="105.3356" x="126.53" y="1344.5429">7&#160;detected&#160;tools</text></g><!--entity tool_command_exists--><g class="entity" data-qualified-name="tool_command_exists" data-source-line="10" id="ent0005"><path d="M470.8691,54.3501 C474.72,48.6202 480.9468,48.3402 484.2816,54.9127 C487.4605,49.4015 492.9085,48.7071 497.1048,53.6667 C500.2571,47.0547 506.0722,46.9863 510.2426,52.57 C513.7842,46.2395 519.1131,47.4275 522.5929,52.6361 C526.7593,46.5375 532.2526,46.5864 535.8647,53.2141 C540.1937,47.308 543.9689,47.8136 548.061,53.4643 C551.5563,47.9649 557.5438,46.0679 561.3379,53.149 C565.9873,47.676 569.5921,48.2719 572.7649,54.581 C575.891,46.6577 582.3453,47.3307 587.0613,52.8959 C591.726,46.8389 597.1052,48.6483 599.8911,54.8605 C607.9364,58.6604 609.0118,64.5393 601.6172,70.0892 C609.0985,75.978 607.5541,82.8463 599.0713,86.2146 C597.166,92.7145 591.6561,94.5106 587.0027,88.969 C584.0027,95.7346 578.7326,96.3646 573.8768,90.9726 C569.6356,97.3511 564.5134,96.3603 560.4841,90.7361 C557.6595,97.3994 552.3256,97.9477 547.2507,93.3899 C543.9244,98.7759 539.7769,100.5883 535.3656,94.5153 C530.1794,101.1679 525.3294,100.5809 521.2648,93.3742 C516.4806,98.0676 512.5372,96.8734 509.7796,91.1415 C505.8747,96.9834 500.4503,96.911 496.5641,91.1203 C491.364,96.4129 486.817,94.4959 484.6765,88.0277 C481.251,94.5036 475.1993,94.1894 471.7885,88.0128 C462.3634,84.5849 463.1842,77.2776 469.4288,71.5972 C461.8069,65.962 462.5299,58.6524 470.8691,54.3501" fill="#FEF3C7" style="stroke:#181818;stroke-width:0.5;"/><text fill="#000000" font-family="Monospace" font-size="14" lengthAdjust="spacing" textLength="114.2816" x="476.81" y="75.0049">(command_exists</text></g><!--entity tool_actions_checkout--><g class="entity" data-qualified-name="tool_actions_checkout" data-source-line="11" id="ent0006"><path d="M472.4221,1649.4047 C476.2739,1643.2457 481.0165,1643.3862 484.746,1649.5273 C488.0517,1642.7643 493.0534,1644.0133 497.092,1648.7398 C501.7123,1641.5924 505.9729,1641.7172 510.6139,1648.7201 C514.8887,1642.4367 518.7213,1643.4247 522.8173,1648.9056 C526.1488,1644.2197 531.3624,1644.3733 534.1426,1649.5393 C536.8408,1643.8816 543.1073,1643.3897 546.6845,1648.5172 C550.7641,1642.4799 556.0619,1642.5395 560.435,1648.1713 C565.6096,1642.7358 570.3712,1643.2359 573.2216,1650.5096 C576.1926,1644.3856 581.6729,1644.4697 584.7115,1650.4454 C588.6803,1644.6119 593.0644,1645.3689 597.0744,1650.3984 C606.7557,1652.8081 608.0659,1658.9678 603.0682,1666.7561 C608.5131,1675.2133 607.048,1680.3166 597.1047,1683.1896 C594.8571,1688.8609 589.4973,1689.3323 586.3214,1684.1084 C582.7344,1690.6186 576.5723,1691.2079 571.9811,1685.2647 C569.2476,1691.1672 565.2771,1692.7825 560.0471,1688.0719 C556.7662,1694.5758 552.2701,1694.3999 548.1901,1688.8584 C545.6617,1696.2976 539.1443,1696.7645 535.136,1690.2422 C530.2327,1696.64 524.7736,1694.5643 522.2865,1687.8706 C518.3506,1694.6486 512.4289,1694.4932 508.8581,1687.5142 C504.3234,1693.0326 499.6351,1691.554 496.9615,1685.5866 C493.0843,1690.7041 487.7253,1690.3262 485.1814,1684.1909 C480.7205,1689.654 474.4986,1690.3898 471.2371,1682.8997 C464.1391,1678.8482 462.7377,1670.8653 471.3187,1666.8938 C463.0764,1660.8656 464.0235,1654.383 472.4221,1649.4047" fill="#FEF3C7" style="stroke:#181818;stroke-width:0.5;"/><text fill="#000000" font-family="Monospace" font-size="14" lengthAdjust="spacing" textLength="111.9156" x="477.99" y="1671.0049">actions/checkout</text></g><!--entity tool_actions_setup_python--><g class="entity" data-qualified-name="tool_actions_setup_python" data-source-line="12" id="ent0007"><path d="M458.0591,1734.5897 C460.2716,1728.5349 464.4852,1728.4731 468.3039,1733.0406 C473.1676,1727.7109 477.5069,1728.3597 480.8997,1734.6368 C482.7957,1730.0474 487.5936,1728.1932 491.0496,1732.9408 C494.4091,1726.6483 498.0166,1726.7549 502.0851,1732.2787 C505.6653,1726.7922 509.403,1727.6904 512.8527,1732.4163 C516.6914,1728.0747 520.3298,1728.4031 523.106,1733.5629 C526.2814,1727.7584 531.3379,1726.1056 536.0798,1731.7946 C539.1256,1726.8239 542.064,1726.8824 545.185,1731.7249 C549.5181,1725.9822 553.8461,1726.623 557.5753,1732.3759 C561.618,1727.4385 565.4871,1728.1023 568.5486,1733.4254 C571.3171,1728.0524 576.0805,1728.7287 579.1899,1733.0512 C582.2403,1727.4071 587.0418,1728.1222 589.7725,1733.362 C593.9974,1727.7198 597.7972,1728.4033 601.8337,1733.5721 C605.6254,1728.3017 610.0772,1728.6151 613.2776,1734.1956 C622.4226,1736.8969 624.2541,1744.9201 617.734,1751.6263 C624.7689,1759.722 622.3216,1766.2599 611.7314,1767.8239 C608.2494,1773.4146 604.471,1773.3422 601.2867,1767.5506 C599.2418,1773.4264 594.3028,1773.0499 590.8359,1769.0563 C588.089,1774.919 583.4612,1775.0704 579.5638,1770.273 C576.4427,1776.3888 570.6931,1776.1244 567.6238,1770.2215 C565.2005,1775.7872 561.9716,1775.1661 558.0733,1771.7985 C554.9192,1776.9316 550.3585,1777.5675 546.8469,1772.18 C544.4721,1777.5617 538.8119,1778.0357 535.4629,1773.2732 C531.8816,1779.2968 527.3383,1778.9701 523.651,1773.3809 C520.0763,1777.9598 514.8835,1778.6486 512.1866,1772.4475 C508.5368,1776.931 504.2318,1775.4198 502.4853,1770.4867 C498.0332,1774.5174 494.3024,1774.1816 491.1481,1768.9057 C487.0118,1775.0146 483.0978,1773.7107 479.2184,1768.6317 C476.991,1773.0576 472.3623,1772.9241 469.7088,1769.1243 C465.9347,1774.7997 460.3549,1774.186 457.8562,1767.8642 C448.1193,1766.5784 444.5489,1759.4106 449.1211,1750.8 C444.1585,1741.8839 446.6867,1734.499 458.0591,1734.5897" fill="#FEF3C7" style="stroke:#181818;stroke-width:0.5;"/><text fill="#000000" font-family="Monospace" font-size="14" lengthAdjust="spacing" textLength="140.2795" x="463.81" y="1755.0049">actions/setup-python</text></g><!--entity tool_args_container_tool--><g class="entity" data-qualified-name="tool_args_container_tool" data-source-line="13" id="ent0008"><path d="M451.8111,139.0234 C455.9278,131.9485 459.9771,131.69 465.2171,137.889 C469,132.7194 472.9512,132.5783 476.0071,138.5905 C479.4881,131.8261 483.7952,131.8372 488.4013,137.4653 C491.7552,131.5782 497.3995,131.7579 500.064,138.1216 C503.1284,132.1877 507.8043,132.0728 512.059,136.7798 C514.5599,131.649 519.8539,130.0167 523.3265,135.7743 C526.9662,131.1202 531.5297,131.5367 533.9694,137.0325 C537.6231,131.4541 543.2775,130.8487 546.3546,137.6112 C549.9754,131.4654 554.8138,132.5113 558.1278,137.9237 C562.2445,131.9742 566.2945,131.5097 570.2761,138.055 C573.7261,131.9844 578.681,130.1296 583.3195,136.8422 C586.7821,132.0207 591.345,131.8723 593.8812,137.7562 C597.0016,133.4029 602.473,132.5859 604.7137,138.6693 C608.2396,133.1142 612.9802,132.3579 616.9599,138.1807 C626.0357,140.922 626.9298,148.807 620.1683,154.6362 C625.927,160.3746 626.473,167.7921 617.2496,170.8302 C614.291,176.7151 609.3764,178.2922 605.1773,172.0669 C601.617,176.697 597.1976,176.9516 593.9953,171.6633 C590.6844,177.4778 584.6642,178.3783 581.4119,171.6046 C578.023,176.0006 575.016,176.5224 571.418,171.8348 C567.7176,177.7981 562.0046,178.0858 557.807,172.4166 C555.3958,177.1052 550.4718,177.0625 547.7398,172.7765 C543.2529,178.7592 539.0255,177.9877 535.8508,171.5232 C532.2202,177.4268 528.3649,178.0493 523.6103,172.7515 C520.7667,177.3897 515.7108,177.7813 512.5748,173.0977 C508.6915,178.99 503.2631,176.754 500.7397,171.636 C497.1264,177.7282 492.8331,177.3787 488.5291,172.3978 C484.2584,177.0306 479.8091,176.3061 476.8691,170.8587 C473.9277,176.8279 469.1189,177.858 464.7627,172.3511 C460.4011,176.9129 455.5971,177.2237 452.5944,170.8403 C442.0543,170.0984 439.5969,162.1545 444.3288,153.9423 C439.8531,146.5118 442.0916,139.3346 451.8111,139.0234" fill="#FEF3C7" style="stroke:#181818;stroke-width:0.5;"/><text fill="#000000" font-family="Monospace" font-size="14" lengthAdjust="spacing" textLength="150.9894" x="458.45" y="159.0049">args+=(--container-tool</text></g><!--entity tool_cat--><g class="entity" data-qualified-name="tool_cat" data-source-line="14" id="ent0009"><path d="M518.0482,222.0531 C521.9319,211.9431 528.7992,212.348 535.5621,219.0544 C543.0459,212.3621 547.4046,215.2216 551.0138,223.1494 C559.6292,226.3022 560.1173,231.7944 554.8119,238.4114 C560.7594,244.5685 560.3812,252.4656 550.9311,255.0263 C548.6083,264.842 541.3267,265.8413 533.9682,260.7607 C526.1532,266.8525 520.9019,264.1275 518.4927,255.1933 C507.7325,253.9437 506.3203,248.4977 510.9437,239.7354 C505.234,231.6647 506.7807,223.3026 518.0482,222.0531" fill="#FEF3C7" style="stroke:#181818;stroke-width:0.5;"/><text fill="#000000" font-family="Monospace" font-size="14" lengthAdjust="spacing" textLength="19.6279" x="524.13" y="243.0049">cat</text></g><!--entity tool_chmod--><g class="entity" data-qualified-name="tool_chmod" data-source-line="15" id="ent0010"><path d="M505.9023,1145.5789 C510.148,1138.674 516.1893,1139.0206 520.7588,1145.2116 C525.0993,1138.4721 529.9693,1139.0566 534.6434,1144.8419 C540.2984,1137.8909 545.8401,1137.5495 551.0119,1145.3771 C556.5356,1138.2873 561.6456,1139.617 565.8349,1146.7662 C575.6894,1148.1357 578.1328,1153.1029 574.5106,1162.0983 C578.5246,1170.8724 575.1223,1179.2614 564.0944,1178.4586 C561.1304,1186.733 555.5332,1186.535 549.8691,1181.3024 C546.5686,1188.4959 542.0226,1191.2898 535.577,1184.522 C530.1225,1192.0437 523.3075,1192.0383 519.5451,1182.8942 C513.4248,1188.9669 507.2766,1187.4951 505.4293,1178.8077 C497.6088,1176.1966 496.6756,1169.097 502.136,1163.6083 C495.88,1157.4882 497.1011,1148.5536 505.9023,1145.5789" fill="#FEF3C7" style="stroke:#181818;stroke-width:0.5;"/><text fill="#000000" font-family="Monospace" font-size="14" lengthAdjust="spacing" textLength="45.5418" x="511.18" y="1167.0049">chmod</text></g><!--entity tool_cp--><g class="entity" data-qualified-name="tool_cp" data-source-line="16" id="ent0011"><path d="M519.6422,1229.9834 C523.0214,1221.3839 529.9068,1221.0442 535.3515,1227.8814 C540.3342,1221.3668 547.048,1222.9833 549.3024,1230.5789 C557.5103,1234.4011 558.1638,1240.6085 551.0557,1246.1547 C557.7978,1252.391 558.2058,1258.9318 549.0502,1263.3095 C548.1466,1271.8577 543.3232,1275.0119 535.1371,1272.3402 C524.985,1277.8131 520.1423,1273.3851 519.6554,1262.9399 C509.7919,1259.2854 510.1994,1252.1165 517.0754,1245.9239 C511.4839,1239.9534 510.3432,1233.5563 519.6422,1229.9834" fill="#FEF3C7" style="stroke:#181818;stroke-width:0.5;"/><text fill="#000000" font-family="Monospace" font-size="14" lengthAdjust="spacing" textLength="15.3299" x="526.28" y="1251.0049">cp</text></g><!--entity tool_docker--><g class="entity" data-qualified-name="tool_docker" data-source-line="17" id="ent0012"><path d="M505.1113,307.1429 C508.9845,299.2335 514.029,300.0673 519.4648,305.4562 C522.9331,298.1452 530.146,297.9839 534.6805,304.2624 C540.9966,296.4385 545.7345,298.5605 550.5641,305.8272 C554.6545,298.6314 560.2345,299.6675 564.1435,306.0091 C574.5226,306.7622 577.3401,314.7453 572.8758,323.0878 C577.5416,332.1738 574.3344,337.7607 564.7163,339.9243 C559.1692,347.8479 554.2471,348.2031 548.8266,339.8011 C546.4303,347.0294 540.3405,346.8035 535.7718,342.1975 C530.232,350.6324 524.0646,348.5754 519.5869,341.116 C513.7595,346.6453 508.7111,346.5386 505.2355,338.6084 C496.7743,337.5683 493.2785,330.4127 498.8737,323.4668 C494.1079,315.4546 494.7899,309.39 505.1113,307.1429" fill="#FEF3C7" style="stroke:#181818;stroke-width:0.5;"/><text fill="#000000" font-family="Monospace" font-size="14" lengthAdjust="spacing" textLength="44.9538" x="511.47" y="327.0049">docker</text></g><!--entity tool_docker_compose--><g class="entity" data-qualified-name="tool_docker_compose" data-source-line="18" id="ent0013"><path d="M472.9831,390.0408 C476.2278,384.1448 481.3965,384.0013 485.327,389.2834 C488.6274,383.5816 494.7915,383.7113 498.0588,389.3206 C500.948,381.8368 507.6512,382.3389 511.5827,388.2698 C514.5956,382.4001 519.9909,382.0796 523.1808,388.097 C527.3532,383.4611 531.1179,383.3921 534.8997,388.5638 C539.4049,382.9066 543.6324,382.5002 547.5591,389.1584 C550.857,383.3206 555.2922,383.5106 558.8431,388.9043 C562.1909,383.3733 567.1938,382.5317 570.9051,388.5238 C575.6326,382.9161 580.1552,383.2429 583.1687,390.197 C586.8094,384.2114 591.6569,383.3414 595.8865,389.5846 C606.8915,390.9456 607.7198,399.5434 602.277,406.9554 C607.7013,414.044 604.8328,421.7327 595.5663,422.4647 C593.032,427.8984 588.6773,430.1365 584.1732,424.4902 C581.0701,431.4665 576.9855,431.3593 572.3216,425.9883 C569.9338,432.6651 563.8988,433.6761 559.2575,428.4646 C556.4888,434.4172 551.1986,436.7569 546.5171,430.4528 C544.0582,435.7692 538.8245,435.413 535.8158,431.0615 C531.0331,438.0664 526.307,437.3481 522.4581,430.1813 C518.1449,435.6073 514.2741,433.8408 511.5052,428.5962 C506.6023,433.5015 501.3861,431.7216 498.8978,425.7877 C494.4873,431.7101 488.1579,429.8098 485.6408,423.7013 C481.8427,430.0497 477.826,428.8729 473.7112,424.039 C465.923,420.815 463.0674,412.599 470.869,406.8041 C464.6107,400.2916 464.6023,394.7071 472.9831,390.0408" fill="#FEF3C7" style="stroke:#181818;stroke-width:0.5;"/><text fill="#000000" font-family="Monospace" font-size="14" lengthAdjust="spacing" textLength="108.5556" x="479.67" y="411.0049">docker&#160;compose</text></g><!--entity tool_docker_compose_2--><g class="entity" data-qualified-name="tool_docker_compose_2" data-source-line="19" id="ent0014"><path d="M473.6342,474.6768 C476.4628,468.8985 482.0153,466.5037 486.4207,473.0396 C490.4327,467.4289 494.6079,468.2146 497.7613,473.9015 C500.9704,467.6001 506.4292,467.5455 509.51,474.0195 C513.2302,467.2728 518.9084,467.4934 523.1255,473.4885 C525.978,466.1395 530.9956,466.9799 535.6608,471.5882 C540.2527,466.853 544.1379,468.2422 546.6605,473.7996 C550.6811,467.7533 556.1434,468.1977 560.3008,473.6372 C563.0679,468.508 568.4695,467.0868 572.0609,472.738 C576.302,466.7481 582.4854,466.5381 585.5212,473.9487 C589.2885,469.2677 593.9633,469.5489 596.8165,474.9707 C606.1774,477.278 607.9402,483.1031 603.6038,491.1548 C609.4134,499.0929 606.4173,507.1469 596.1459,507.9399 C592.3288,514.3921 588.4085,514.0335 583.7202,508.8721 C581.3431,515.5254 575.7954,515.028 571.7345,510.7119 C568.9302,517.6186 564.1185,517.5067 559.3175,512.8573 C556.7607,518.6558 550.9267,518.8075 547.4709,513.8472 C544.8615,519.9288 538.7134,521.4869 534.2995,515.8807 C530.2472,522.0092 524.7492,519.6847 522.2109,514.2921 C519.1617,518.799 513.5926,519.4276 511.1107,513.6782 C505.2873,520.1325 499.3046,518.018 497.3698,509.9889 C493.4383,515.2494 489.9617,515.013 486.6131,509.4116 C481.8758,514.7061 476.5112,513.5419 474.0754,506.9782 C464.6144,504.647 464.0393,496.5387 470.5094,490.7144 C463.4528,485.0374 465.5342,477.4007 473.6342,474.6768" fill="#FEF3C7" style="stroke:#181818;stroke-width:0.5;"/><text fill="#000000" font-family="Monospace" font-size="14" lengthAdjust="spacing" textLength="109.4236" x="479.24" y="495.0049">docker-compose</text></g><!--entity tool_grep--><g class="entity" data-qualified-name="tool_grep" data-source-line="20" id="ent0015"><path d="M512.8292,558.0357 C515.506,553.6272 520.0281,552.4864 523.1897,557.5027 C526.4203,550.5271 530.3701,549.6125 535.9339,555.1209 C539.0721,550.3567 544.3202,551.5258 546.5912,556.1096 C550.9709,552.1454 554.8313,552.8278 557.1698,558.379 C567.0874,561.1498 566.9825,567.5263 561.4852,574.4392 C568.3046,582.318 565.4641,587.5175 556.9245,591.2228 C554.7651,597.3743 551.208,599.1933 545.6464,594.8945 C543.8657,599.7763 539.0678,601.8239 535.1085,597.3477 C529.2088,600.9167 525.2193,600.204 522.8392,593.2457 C518.906,597.8095 513.7625,595.9979 512.1988,590.6914 C502.484,588.5698 499.8977,580.8316 507.248,573.7292 C501.5033,566.8021 503.9603,559.7657 512.8292,558.0357" fill="#FEF3C7" style="stroke:#181818;stroke-width:0.5;"/><text fill="#000000" font-family="Monospace" font-size="14" lengthAdjust="spacing" textLength="30.8979" x="518.5" y="579.0049">grep</text></g><!--entity tool_head--><g class="entity" data-qualified-name="tool_head" data-source-line="21" id="ent0016"><path d="M510.6882,1313.3996 C514.8288,1307.5752 519.6125,1307.4159 523.4212,1313.7473 C526.4978,1307.6127 531.9191,1306.6938 535.972,1312.7415 C538.7758,1308.2297 543.848,1307.0442 546.8198,1312.5597 C550.8345,1307.148 556.0098,1307.6069 559.0304,1313.6219 C569.8988,1315.7453 569.4495,1325.152 563.4024,1331.4286 C569.8548,1338.1515 567.4168,1344.2429 558.8984,1346.4885 C557.0698,1352.0461 551.7913,1353.5926 547.4805,1349.3932 C544.4712,1355.6916 539.8909,1356.5074 535.3043,1351.0232 C531.2699,1356.5533 524.9522,1356.5872 522.2065,1349.6675 C517.4588,1353.5733 512.7993,1352.0567 510.655,1346.492 C500.3363,1346.0719 497.561,1337.3102 502.6357,1329.5877 C496.8528,1321.634 499.9548,1313.1374 510.6882,1313.3996" fill="#FEF3C7" style="stroke:#181818;stroke-width:0.5;"/><text fill="#000000" font-family="Monospace" font-size="14" lengthAdjust="spacing" textLength="33.0119" x="517.44" y="1335.0049">head</text></g><!--entity tool_install--><g class="entity" data-qualified-name="tool_install" data-source-line="22" id="ent0017"><path d="M508.3763,641.2696 C512.5249,636.0613 517.4656,634.8581 521.1268,641.7819 C525.4122,633.3067 530.5642,634.642 536.0826,640.4948 C539.5918,635.8561 544.4271,635.2882 547.3998,641.0771 C552.8296,634.1067 557.3647,634.2969 562.0771,641.8043 C572.2388,641.6952 576.6849,649.7678 570.7152,658.1721 C575.3327,667.0525 571.0156,673.1244 561.7278,674.2149 C559.1724,682.204 553.4218,683.1022 548.1201,676.8366 C544.3011,684.8546 539.4025,684.8652 533.9779,678.405 C529.5733,684.2623 525.0669,683.6459 521.9559,677.1464 C518.0278,682.0855 511.6963,681.3492 508.9719,675.6739 C498.0009,673.5249 497.1695,667.7874 501.8576,658.9693 C494.5376,649.4585 496.6558,643.768 508.3763,641.2696" fill="#FEF3C7" style="stroke:#181818;stroke-width:0.5;"/><text fill="#000000" font-family="Monospace" font-size="14" lengthAdjust="spacing" textLength="39.1019" x="514.4" y="663.0049">install</text></g><!--entity tool_mkdir--><g class="entity" data-qualified-name="tool_mkdir" data-source-line="23" id="ent0018"><path d="M508.9713,1397.5964 C512.7959,1391.7603 518.1233,1391.7592 521.4487,1398.1076 C524.9758,1391.2442 530.5426,1391.5217 535.2747,1396.7272 C539.2126,1390.6942 543.4604,1391.2183 547.7556,1396.327 C552.1027,1390.9849 557.3554,1390.5424 560.4607,1397.5995 C573.0644,1397.8191 575.6008,1405.0084 571.2045,1415.4563 C575.7929,1424.2096 570.2985,1430.6401 561.3893,1430.7054 C558.4507,1436.9688 554.5779,1439.2224 548.7334,1433.8721 C545.8857,1440.5584 539.6946,1442.2026 534.3739,1436.8125 C528.9432,1441.3304 525.0574,1439.1786 522.985,1433.1768 C517.3031,1440.3988 510.8904,1438.4208 507.8383,1430.5394 C498.4884,1428.4765 494.1133,1423.9809 499.9715,1414.4719 C494.5152,1404.0376 498.7796,1399.6855 508.9713,1397.5964" fill="#FEF3C7" style="stroke:#181818;stroke-width:0.5;"/><text fill="#000000" font-family="Monospace" font-size="14" lengthAdjust="spacing" textLength="38.5699" x="514.66" y="1419.0049">mkdir</text></g><!--entity tool_next--><g class="entity" data-qualified-name="tool_next" data-source-line="24" id="ent0019"><path d="M513.3962,726.981 C518.8219,714.8702 525.9268,713.5356 534.8882,723.5459 C543.2457,714.4846 551.4015,713.699 556.7402,726.5557 C564.6059,730.4637 566.332,736.6749 558.5286,742.3564 C564.3583,748.9166 564.8113,754.1525 556.3069,758.7727 C551.8538,769.4761 542.6086,769.5177 535.947,761.1277 C527.9568,769.6322 521.0974,771.2419 514.534,759.6104 C506.032,756.822 503.2579,748.9397 509.464,741.9329 C502.6435,735.3158 504.0219,729.3391 513.3962,726.981" fill="#FEF3C7" style="stroke:#181818;stroke-width:0.5;"/><text fill="#000000" font-family="Monospace" font-size="14" lengthAdjust="spacing" textLength="29.0079" x="519.44" y="747.0049">next</text></g><!--entity tool_openssl--><g class="entity" data-qualified-name="tool_openssl" data-source-line="25" id="ent0020"><path d="M503.0073,1481.2522 C507.9923,1472.204 513.9277,1473.5546 519.2814,1480.8859 C523.2743,1471.9523 531.1745,1473.5915 535.4402,1480.6095 C540.9775,1472.2613 547.8939,1472.7927 551.7897,1482.1272 C556.432,1476.0532 563.5798,1476.1212 567.5293,1482.9711 C576.731,1483.6373 581.7373,1490.3448 576.2993,1499.014 C582.833,1509.4231 578.2066,1515.8367 566.7109,1516.168 C562.3973,1524.1823 554.7946,1523.422 550.3892,1516.2668 C546.9512,1522.8935 540.1962,1524.5704 535.17,1518.1145 C529.9861,1525.8245 523.3029,1524.4651 519.5605,1516.6638 C514.6567,1526.032 506.2334,1524.3516 502.0629,1515.9421 C491.4824,1512.2298 491.8013,1504.1962 499.5221,1497.9057 C493.5662,1490.6152 495.0802,1485.6373 503.0073,1481.2522" fill="#FEF3C7" style="stroke:#181818;stroke-width:0.5;"/><text fill="#000000" font-family="Monospace" font-size="14" lengthAdjust="spacing" textLength="50.6518" x="508.62" y="1503.0049">openssl</text></g><!--entity tool_pip--><g class="entity" data-qualified-name="tool_pip" data-source-line="26" id="ent0021"><path d="M517.8212,1817.1077 C522.1655,1809.4798 529.6307,1808.0172 535.0851,1815.8696 C542.4931,1807.7558 548.6018,1809.7033 552.8905,1819.0505 C562.2619,1820.3026 566.3219,1825.1952 561.487,1834.4023 C567.5778,1844.129 561.9044,1850.5531 552.0161,1851.3507 C549.1061,1861.3263 543.4152,1863.6936 535.0333,1856.8885 C526.7173,1864.0008 518.9026,1860.0976 516.9146,1850.1628 C509.102,1845.8841 506.67,1841.2619 514.1787,1834.335 C507.1108,1827.117 507.9957,1820.7539 517.8212,1817.1077" fill="#FEF3C7" style="stroke:#181818;stroke-width:0.5;"/><text fill="#000000" font-family="Monospace" font-size="14" lengthAdjust="spacing" textLength="20.8319" x="523.53" y="1839.0049">pip</text></g><!--entity tool_podman_compose--><g class="entity" data-qualified-name="tool_podman_compose" data-source-line="27" id="ent0022"><path d="M468.3502,810.093 C471.7683,803.8232 476.1785,803.846 479.8764,809.8299 C482.5202,804.4177 486.6193,805.0739 489.9524,809.0935 C494.1068,802.891 498.9881,802.7611 502.5329,809.6781 C505.6036,804.7844 509.8787,804.3586 513.3363,809.2511 C516.6494,803.3405 520.6794,802.9931 524.6531,808.6022 C527.879,803.6899 532.0492,804.3531 534.9776,808.926 C538.7956,803.8794 542.1506,803.7931 545.6388,809.2604 C549.3128,802.4635 554.9443,803.2933 558.271,809.5952 C561.7824,804.6592 565.4591,805.0852 568.394,810.1772 C572.6181,804.1505 576.3945,804.8072 580.3937,810.4093 C583.6418,805.6409 586.8381,804.7132 591.1276,809.2017 C594.8196,804.6912 599.7799,804.8824 602.4386,810.3706 C611.3026,813.66 612.6382,821.266 606.0204,827.7466 C611.4847,834.2807 609.6888,840.852 600.8722,842.3524 C599.736,847.5824 595.7144,848.9672 591.8545,845.0325 C588.7857,850.5313 585.2252,851.3339 580.4876,846.9524 C576.4794,853.4499 571.3252,853.2986 567.4129,846.8554 C564.7799,852.0741 561.6701,851.9816 558.0553,847.8365 C555.2531,854.8221 551.5517,856.2707 545.5883,851.0709 C542.5056,855.5657 538.6884,855.7746 535.563,851.1176 C531.4754,856.3084 527.4013,856.3663 523.925,850.4755 C519.8112,854.3315 515.1784,853.2633 513.7749,847.5889 C510.452,852.7505 505.1102,853.0698 501.6158,847.7886 C496.5563,852.8442 492.6416,852.0465 489.9658,845.4128 C486.3418,850.8087 482.9489,850.8842 479.0744,845.6699 C474.2709,849.6696 469.9878,847.9072 468.3732,842.1665 C460.7764,837.7263 460.7017,830.7976 467.8625,825.8942 C460.2856,821.0849 460.537,814.4274 468.3502,810.093" fill="#FEF3C7" style="stroke:#181818;stroke-width:0.5;"/><text fill="#000000" font-family="Monospace" font-size="14" lengthAdjust="spacing" textLength="119.7556" x="474.07" y="831.0049">podman-compose</text></g><!--entity tool_pre_commit--><g class="entity" data-qualified-name="tool_pre_commit" data-source-line="28" id="ent0023"><path d="M490.1072,1901.4918 C492.8931,1896.3955 497.469,1896.7571 500.2129,1901.5349 C504.3071,1895.2876 509.6735,1896.7171 513.1436,1902.2217 C516.477,1896.7119 519.7473,1896.284 523.5043,1901.8246 C526.4095,1894.897 530.9797,1894.8611 535.7278,1899.9499 C539.5556,1894.6878 543.9672,1896.793 546.2608,1901.561 C549.4078,1896.4103 553.4537,1896.1956 556.989,1901.1485 C560.8436,1895.2837 565.766,1896.4091 568.8461,1901.9534 C571.9273,1896.2255 576.5881,1897.5297 579.5763,1902.0508 C587.8048,1905.8621 588.4861,1912.8758 581.3236,1918.3382 C589.344,1923.3017 588.825,1928.9834 581.4924,1934.1112 C578.296,1939.5337 573.9913,1940.2761 570.0497,1934.9009 C567.3779,1941.5892 562.2986,1941.8456 557.771,1936.8513 C553.7897,1942.2576 550.458,1941.5187 546.7246,1936.5863 C544.305,1942.2972 539.0188,1942.4389 536.0036,1937.1677 C532.5817,1941.9232 527.4644,1942.3423 524.3358,1936.8343 C520.2978,1940.6316 515.5695,1940.9163 513.4236,1934.7601 C510.4116,1941.8021 504.2541,1941.0365 500.2027,1935.8874 C496.6468,1940.3841 490.9987,1940.0209 488.6347,1934.5098 C479.8279,1933.3608 476.8725,1925.1154 481.7487,1918.1922 C477.0321,1908.7893 478.4516,1902.7005 490.1072,1901.4918" fill="#FEF3C7" style="stroke:#181818;stroke-width:0.5;"/><text fill="#000000" font-family="Monospace" font-size="14" lengthAdjust="spacing" textLength="76.8317" x="495.53" y="1923.0049">pre-commit</text></g><!--entity tool_print--><g class="entity" data-qualified-name="tool_print" data-source-line="29" id="ent0024"><path d="M512.0842,893.7089 C515.0397,888.1701 519.2819,887.6413 522.7878,893.177 C525.0904,887.7933 530.1358,885.5301 534.5317,890.8885 C538.9918,886.5293 543.621,886.563 546.2955,892.8598 C550.507,887.2 556.2735,888.7587 558.9162,894.5838 C568.2046,899.2618 568.4973,904.4819 561.1259,911.3549 C567.4949,917.1999 564.8135,924.2345 557.3931,926.7322 C555.749,931.7452 551.7714,934.0016 547.293,929.859 C543.962,936.7999 539.1913,937.481 534.7025,930.9402 C530.3106,934.9655 526.6623,935.5551 523.9301,929.2153 C519.7135,934.3821 515.9428,933.9226 513.1824,927.8258 C503.7251,925.6536 501.3353,917.8181 506.7841,910.2266 C500.041,903.1772 503.4712,895.831 512.0842,893.7089" fill="#FEF3C7" style="stroke:#181818;stroke-width:0.5;"/><text fill="#000000" font-family="Monospace" font-size="14" lengthAdjust="spacing" textLength="31.7099" x="518.09" y="915.0049">print</text></g><!--entity tool_rm--><g class="entity" data-qualified-name="tool_rm" data-source-line="30" id="ent0025"><path d="M519.6992,1062.9288 C522.9626,1054.2703 529.1068,1053.268 535.8315,1059.0662 C542.2368,1051.538 549.1247,1054.4085 552.0016,1062.6778 C561.5475,1065.4651 561.0332,1071.9281 555.5565,1078.1639 C562.7719,1084.6853 560.6441,1091.2097 552.5412,1094.9851 C552.1366,1107.8784 543.6744,1109.7206 534.075,1104.2123 C526.5768,1108.2929 518.8756,1105.7061 518.8636,1095.9703 C509.3482,1093.6366 506.3574,1086.9081 513.6703,1079.3243 C506.971,1071.7743 511.4191,1064.9707 519.6992,1062.9288" fill="#FEF3C7" style="stroke:#181818;stroke-width:0.5;"/><text fill="#000000" font-family="Monospace" font-size="14" lengthAdjust="spacing" textLength="18.8719" x="524.51" y="1083.0049">rm</text></g><!--entity tool_systemctl--><g class="entity" data-qualified-name="tool_systemctl" data-source-line="31" id="ent0026"><path d="M496.1143,1565.3045 C499.5548,1559.3857 506.0793,1558.7039 509.18,1565.6494 C512.9216,1558.9387 517.9585,1558.862 522.4923,1564.8166 C526.5241,1558.5695 531.0624,1559.0621 535.5076,1564.3501 C539.0515,1558.316 542.7175,1558.8988 546.6613,1563.9477 C551.6221,1557.2884 556.0937,1558.2492 559.9066,1565.0752 C563.494,1559.7148 569.7325,1558.8071 572.7865,1565.6386 C581.4828,1568.3713 584.4791,1576.5787 577.9998,1583.6933 C583.3352,1589.498 581.552,1596.28 573.9704,1598.591 C571.401,1607.1296 565.8683,1607.8007 559.561,1602.4761 C556.8989,1608.0762 552.7598,1608.8238 548.1065,1604.8612 C545.2441,1611.4842 539.9262,1613.4767 534.9794,1606.9406 C529.538,1612.5108 525.1052,1611.1825 522.6095,1604.068 C518.2127,1609.3616 512.4929,1609.7365 509.5761,1602.5255 C504.6575,1606.5947 500.238,1607.3242 497.6784,1600.0511 C486.9143,1596.9328 486.7723,1591.0653 492.6476,1583.0293 C485.8674,1575.7711 486.1547,1569.2886 496.1143,1565.3045" fill="#FEF3C7" style="stroke:#181818;stroke-width:0.5;"/><text fill="#000000" font-family="Monospace" font-size="14" lengthAdjust="spacing" textLength="61.9778" x="502.96" y="1587.0049">systemctl</text></g><!--entity tool_updated--><g class="entity" data-qualified-name="tool_updated" data-source-line="32" id="ent0027"><path d="M500.9083,979.1952 C503.5309,973.3125 508.7662,972.6626 512.3627,978.22 C515.0536,972.4233 518.3948,971.7567 522.8409,976.4701 C526.1119,969.792 532.022,970.3055 535.6995,976.0493 C539.2005,971.5928 543.5742,972.477 545.5583,977.6089 C549.9279,970.7906 555.5258,972.4832 558.908,978.6258 C562.1559,973.8695 565.7481,973.012 569.13,978.492 C579.771,981.5532 581.0121,986.9594 574.6989,995.5543 C581.9512,1003.3786 578.6497,1009.9371 569.0193,1011.8924 C566.3026,1017.6749 562.3553,1017.8228 558.1252,1013.5287 C556.5261,1020.8003 551.3106,1022.602 545.7092,1017.5662 C544.1768,1022.4721 539.4269,1024.2573 535.8396,1019.7122 C531.3302,1024.311 524.9557,1023.2595 523.0799,1016.7006 C517.6103,1021.875 514.2119,1020.276 511.2646,1014.0797 C506.5203,1018.7729 502.3795,1018.6916 499.7175,1011.9727 C491.6162,1008.0147 488.3811,1001.8209 496.5786,994.8713 C489.1261,988.3289 491.327,981.0328 500.9083,979.1952" fill="#FEF3C7" style="stroke:#181818;stroke-width:0.5;"/><text fill="#000000" font-family="Monospace" font-size="14" lengthAdjust="spacing" textLength="55.2858" x="506.3" y="999.0049">updated</text></g><g class="entity" data-qualified-name="toolingGraphSummary" data-source-line="58" id="ent0052"><path d="M91.47,463.869 L91.47,509.281 L298.9812,509.281 L298.9812,473.869 L288.9812,463.869 L91.47,463.869" fill="#FEFFDD" style="stroke:#181818;stroke-width:0.5;"/><path d="M288.9812,463.869 L288.9812,473.869 L298.9812,473.869 L288.9812,463.869" fill="#FEFFDD" style="stroke:#181818;stroke-width:1;"/><text fill="#000000" font-family="Monospace" font-size="13" lengthAdjust="spacing" textLength="186.5112" x="97.47" y="482.766">Scanned&#160;3&#160;tooling&#160;entrypoints.</text><text fill="#000000" font-family="Monospace" font-size="13" lengthAdjust="spacing" textLength="179.2182" x="97.47" y="500.472">Detected&#160;23&#160;third-party&#160;tools.</text></g><!--link source_github_workflows_ci_yml to tool_actions_checkout--><g class="link" data-entity-1="ent0002" data-entity-2="ent0006" data-link-type="dependency" data-source-line="33" id="lnk28"><path d="M280.44,1762.029 C280.44,1724.789 280.44,1665.579 280.44,1665.579 C280.44,1665.579 381.68,1665.579 456.66,1665.579" fill="none" id="source_github_workflows_ci_yml-to-tool_actions_checkout" style="stroke:#181818;stroke-width:1;"/><polygon fill="#181818" points="462.66,1665.579,453.66,1661.579,457.66,1665.579,453.66,1669.579,462.66,1665.579" style="stroke:#181818;stroke-width:1;"/></g><!--link source_github_workflows_ci_yml to tool_actions_setup_python--><g class="link" data-entity-1="ent0002" data-entity-2="ent0007" data-link-type="dependency" data-source-line="34" id="lnk29"><path d="M286.89,1768.309 C337.14,1768.309 393.05,1768.309 442.32,1768.309" fill="none" id="source_github_workflows_ci_yml-to-tool_actions_setup_python" style="stroke:#181818;stroke-width:1;"/><polygon fill="#181818" points="448.32,1768.309,439.32,1764.309,443.32,1768.309,439.32,1772.309,448.32,1768.309" style="stroke:#181818;stroke-width:1;"/></g><!--link source_github_workflows_ci_yml to tool_pip--><g class="link" data-entity-1="ent0002" data-entity-2="ent0021" data-link-type="dependency" data-source-line="35" id="lnk30"><path d="M286.89,1812.909 C361.54,1812.909 455.89,1812.909 502.36,1812.909" fill="none" id="source_github_workflows_ci_yml-to-tool_pip" style="stroke:#181818;stroke-width:1;"/><polygon fill="#181818" points="508.36,1812.909,499.36,1808.909,503.36,1812.909,499.36,1816.909,508.36,1812.909" style="stroke:#181818;stroke-width:1;"/></g><!--link source_github_workflows_ci_yml to tool_pre_commit--><g class="link" data-entity-1="ent0002" data-entity-2="ent0023" data-link-type="dependency" data-source-line="36" id="lnk31"><path d="M287.03,1816.779 C374.99,1816.779 494.44,1816.779 494.44,1816.779 C494.44,1816.779 494.44,1856.809 494.44,1886.659" fill="none" id="source_github_workflows_ci_yml-to-tool_pre_commit" style="stroke:#181818;stroke-width:1;"/><polygon fill="#181818" points="494.44,1892.659,498.44,1883.659,494.44,1887.659,490.44,1883.659,494.44,1892.659" style="stroke:#181818;stroke-width:1;"/></g><!--link source_scripts_deploy_snowbridge_filebrowser_fork_image_sh to tool_command_exists--><g class="link" data-entity-1="ent0003" data-entity-2="ent0005" data-link-type="dependency" data-source-line="37" id="lnk32"><path d="M315.44,544.299 C315.44,436.729 315.44,69.579 315.44,69.579 C315.44,69.579 391.89,69.579 455.49,69.579" fill="none" id="source_scripts_deploy_snowbridge_filebrowser_fork_image_sh-to-tool_command_exists" style="stroke:#181818;stroke-width:1;"/><polygon fill="#181818" points="461.49,69.579,452.49,65.579,456.49,69.579,452.49,73.579,461.49,69.579" style="stroke:#181818;stroke-width:1;"/></g><!--link source_scripts_deploy_snowbridge_filebrowser_fork_image_sh to tool_args_container_tool--><g class="link" data-entity-1="ent0003" data-entity-2="ent0008" data-link-type="dependency" data-source-line="38" id="lnk33"><path d="M383.91,558.859 C423.45,558.859 453.44,558.859 453.44,558.859 C453.44,558.859 453.44,272.309 453.44,184.319" fill="none" id="source_scripts_deploy_snowbridge_filebrowser_fork_image_sh-to-tool_args_container_tool" style="stroke:#181818;stroke-width:1;"/><polygon fill="#181818" points="453.44,178.319,449.44,187.319,453.44,183.319,457.44,187.319,453.44,178.319" style="stroke:#181818;stroke-width:1;"/></g><!--link source_scripts_deploy_snowbridge_filebrowser_fork_image_sh to tool_cat--><g class="link" data-entity-1="ent0003" data-entity-2="ent0009" data-link-type="dependency" data-source-line="39" id="lnk34"><path d="M332.44,544.049 C332.44,462.059 332.44,237.579 332.44,237.579 C332.44,237.579 448.82,237.579 502.83,237.579" fill="none" id="source_scripts_deploy_snowbridge_filebrowser_fork_image_sh-to-tool_cat" style="stroke:#181818;stroke-width:1;"/><polygon fill="#181818" points="508.83,237.579,499.83,233.579,503.83,237.579,499.83,241.579,508.83,237.579" style="stroke:#181818;stroke-width:1;"/></g><!--link source_scripts_deploy_snowbridge_filebrowser_fork_image_sh to tool_docker--><g class="link" data-entity-1="ent0003" data-entity-2="ent0012" data-link-type="dependency" data-source-line="40" id="lnk35"><path d="M349.44,544.179 C349.44,477.699 349.44,321.579 349.44,321.579 C349.44,321.579 436.19,321.579 490.16,321.579" fill="none" id="source_scripts_deploy_snowbridge_filebrowser_fork_image_sh-to-tool_docker" style="stroke:#181818;stroke-width:1;"/><polygon fill="#181818" points="496.16,321.579,487.16,317.579,491.16,321.579,487.16,325.579,496.16,321.579" style="stroke:#181818;stroke-width:1;"/></g><!--link source_scripts_deploy_snowbridge_filebrowser_fork_image_sh to tool_docker_compose--><g class="link" data-entity-1="ent0003" data-entity-2="ent0013" data-link-type="dependency" data-source-line="41" id="lnk36"><path d="M366.44,544.309 C366.44,496.179 366.44,405.579 366.44,405.579 C366.44,405.579 412.34,405.579 458.37,405.579" fill="none" id="source_scripts_deploy_snowbridge_filebrowser_fork_image_sh-to-tool_docker_compose" style="stroke:#181818;stroke-width:1;"/><polygon fill="#181818" points="464.37,405.579,455.37,401.579,459.37,405.579,455.37,409.579,464.37,405.579" style="stroke:#181818;stroke-width:1;"/></g><!--link source_scripts_deploy_snowbridge_filebrowser_fork_image_sh to tool_docker_compose_2--><g class="link" data-entity-1="ent0003" data-entity-2="ent0014" data-link-type="dependency" data-source-line="42" id="lnk37"><path d="M383.59,568.669 C440.14,568.669 487.44,568.669 487.44,568.669 C487.44,568.669 487.44,543.769 487.44,520.599" fill="none" id="source_scripts_deploy_snowbridge_filebrowser_fork_image_sh-to-tool_docker_compose_2" style="stroke:#181818;stroke-width:1;"/><polygon fill="#181818" points="487.44,514.599,483.44,523.599,487.44,519.599,491.44,523.599,487.44,514.599" style="stroke:#181818;stroke-width:1;"/></g><!--link source_scripts_deploy_snowbridge_filebrowser_fork_image_sh to tool_grep--><g class="link" data-entity-1="ent0003" data-entity-2="ent0015" data-link-type="dependency" data-source-line="43" id="lnk38"><path d="M383.9,578.479 C430.38,578.479 468.9,578.479 497.2,578.479" fill="none" id="source_scripts_deploy_snowbridge_filebrowser_fork_image_sh-to-tool_grep" style="stroke:#181818;stroke-width:1;"/><polygon fill="#181818" points="503.2,578.479,494.2,574.479,498.2,578.479,494.2,582.479,503.2,578.479" style="stroke:#181818;stroke-width:1;"/></g><!--link source_scripts_deploy_snowbridge_filebrowser_fork_image_sh to tool_install--><g class="link" data-entity-1="ent0003" data-entity-2="ent0017" data-link-type="dependency" data-source-line="44" id="lnk39"><path d="M367.44,602.959 C367.44,627.179 367.44,657.579 367.44,657.579 C367.44,657.579 444.22,657.579 493.04,657.579" fill="none" id="source_scripts_deploy_snowbridge_filebrowser_fork_image_sh-to-tool_install" style="stroke:#181818;stroke-width:1;"/><polygon fill="#181818" points="499.04,657.579,490.04,653.579,494.04,657.579,490.04,661.579,499.04,657.579" style="stroke:#181818;stroke-width:1;"/></g><!--link source_scripts_deploy_snowbridge_filebrowser_fork_image_sh to tool_next--><g class="link" data-entity-1="ent0003" data-entity-2="ent0019" data-link-type="dependency" data-source-line="45" id="lnk40"><path d="M351.44,602.839 C351.44,650.969 351.44,741.579 351.44,741.579 C351.44,741.579 446.5,741.579 498.22,741.579" fill="none" id="source_scripts_deploy_snowbridge_filebrowser_fork_image_sh-to-tool_next" style="stroke:#181818;stroke-width:1;"/><polygon fill="#181818" points="504.22,741.579,495.22,737.579,499.22,741.579,495.22,745.579,504.22,741.579" style="stroke:#181818;stroke-width:1;"/></g><!--link source_scripts_deploy_snowbridge_filebrowser_fork_image_sh to tool_podman_compose--><g class="link" data-entity-1="ent0003" data-entity-2="ent0022" data-link-type="dependency" data-source-line="46" id="lnk41"><path d="M383.58,588.299 C434.81,588.299 476.44,588.299 476.44,588.299 C476.44,588.299 476.44,733.709 476.44,794.629" fill="none" id="source_scripts_deploy_snowbridge_filebrowser_fork_image_sh-to-tool_podman_compose" style="stroke:#181818;stroke-width:1;"/><polygon fill="#181818" points="476.44,800.629,480.44,791.629,476.44,795.629,472.44,791.629,476.44,800.629" style="stroke:#181818;stroke-width:1;"/></g><!--link source_scripts_deploy_snowbridge_filebrowser_fork_image_sh to tool_print--><g class="link" data-entity-1="ent0003" data-entity-2="ent0024" data-link-type="dependency" data-source-line="47" id="lnk42"><path d="M335.44,603.099 C335.44,685.089 335.44,909.579 335.44,909.579 C335.44,909.579 441.1,909.579 496.93,909.579" fill="none" id="source_scripts_deploy_snowbridge_filebrowser_fork_image_sh-to-tool_print" style="stroke:#181818;stroke-width:1;"/><polygon fill="#181818" points="502.93,909.579,493.93,905.579,497.93,909.579,493.93,913.579,502.93,909.579" style="stroke:#181818;stroke-width:1;"/></g><!--link source_scripts_deploy_snowbridge_filebrowser_fork_image_sh to tool_rm--><g class="link" data-entity-1="ent0003" data-entity-2="ent0025" data-link-type="dependency" data-source-line="48" id="lnk43"><path d="M302.44,603.109 C302.44,709.849 302.44,1069.399 302.44,1069.399 C302.44,1069.399 443.45,1069.399 503.17,1069.399" fill="none" id="source_scripts_deploy_snowbridge_filebrowser_fork_image_sh-to-tool_rm" style="stroke:#181818;stroke-width:1;"/><polygon fill="#181818" points="509.17,1069.399,500.17,1065.399,504.17,1069.399,500.17,1073.399,509.17,1069.399" style="stroke:#181818;stroke-width:1;"/></g><!--link source_scripts_deploy_snowbridge_filebrowser_fork_image_sh to tool_updated--><g class="link" data-entity-1="ent0003" data-entity-2="ent0027" data-link-type="dependency" data-source-line="49" id="lnk44"><path d="M318.44,603.109 C318.44,698.709 318.44,993.579 318.44,993.579 C318.44,993.579 421.96,993.579 484.85,993.579" fill="none" id="source_scripts_deploy_snowbridge_filebrowser_fork_image_sh-to-tool_updated" style="stroke:#181818;stroke-width:1;"/><polygon fill="#181818" points="490.85,993.579,481.85,989.579,485.85,993.579,481.85,997.579,490.85,993.579" style="stroke:#181818;stroke-width:1;"/></g><!--link source_scripts_setup_mtls_sh to tool_chmod--><g class="link" data-entity-1="ent0004" data-entity-2="ent0010" data-link-type="dependency" data-source-line="50" id="lnk45"><path d="M195.44,1300.309 C195.44,1252.179 195.44,1161.579 195.44,1161.579 C195.44,1161.579 401.25,1161.579 489.77,1161.579" fill="none" id="source_scripts_setup_mtls_sh-to-tool_chmod" style="stroke:#181818;stroke-width:1;"/><polygon fill="#181818" points="495.77,1161.579,486.77,1157.579,490.77,1161.579,486.77,1165.579,495.77,1161.579" style="stroke:#181818;stroke-width:1;"/></g><!--link source_scripts_setup_mtls_sh to tool_cp--><g class="link" data-entity-1="ent0004" data-entity-2="ent0011" data-link-type="dependency" data-source-line="51" id="lnk46"><path d="M234.44,1300.199 C234.44,1275.969 234.44,1245.579 234.44,1245.579 C234.44,1245.579 434.81,1245.579 504.94,1245.579" fill="none" id="source_scripts_setup_mtls_sh-to-tool_cp" style="stroke:#181818;stroke-width:1;"/><polygon fill="#181818" points="510.94,1245.579,501.94,1241.579,505.94,1245.579,501.94,1249.579,510.94,1245.579" style="stroke:#181818;stroke-width:1;"/></g><!--link source_scripts_setup_mtls_sh to tool_head--><g class="link" data-entity-1="ent0004" data-entity-2="ent0016" data-link-type="dependency" data-source-line="52" id="lnk47"><path d="M274.21,1329.579 C346.74,1329.579 444.54,1329.579 496.2,1329.579" fill="none" id="source_scripts_setup_mtls_sh-to-tool_head" style="stroke:#181818;stroke-width:1;"/><polygon fill="#181818" points="502.2,1329.579,493.2,1325.579,497.2,1329.579,493.2,1333.579,502.2,1329.579" style="stroke:#181818;stroke-width:1;"/></g><!--link source_scripts_setup_mtls_sh to tool_mkdir--><g class="link" data-entity-1="ent0004" data-entity-2="ent0018" data-link-type="dependency" data-source-line="53" id="lnk48"><path d="M234.44,1358.959 C234.44,1383.179 234.44,1413.579 234.44,1413.579 C234.44,1413.579 414.46,1413.579 493.3,1413.579" fill="none" id="source_scripts_setup_mtls_sh-to-tool_mkdir" style="stroke:#181818;stroke-width:1;"/><polygon fill="#181818" points="499.3,1413.579,490.3,1409.579,494.3,1413.579,490.3,1417.579,499.3,1413.579" style="stroke:#181818;stroke-width:1;"/></g><!--link source_scripts_setup_mtls_sh to tool_openssl--><g class="link" data-entity-1="ent0004" data-entity-2="ent0020" data-link-type="dependency" data-source-line="54" id="lnk49"><path d="M195.44,1358.839 C195.44,1406.969 195.44,1497.579 195.44,1497.579 C195.44,1497.579 397.6,1497.579 487.45,1497.579" fill="none" id="source_scripts_setup_mtls_sh-to-tool_openssl" style="stroke:#181818;stroke-width:1;"/><polygon fill="#181818" points="493.45,1497.579,484.45,1493.579,488.45,1497.579,484.45,1501.579,493.45,1497.579" style="stroke:#181818;stroke-width:1;"/></g><!--link source_scripts_setup_mtls_sh to tool_rm--><g class="link" data-entity-1="ent0004" data-entity-2="ent0025" data-link-type="dependency" data-source-line="55" id="lnk50"><path d="M155.44,1300.169 C155.44,1235.319 155.44,1085.749 155.44,1085.749 C155.44,1085.749 418.91,1085.749 503.11,1085.749" fill="none" id="source_scripts_setup_mtls_sh-to-tool_rm" style="stroke:#181818;stroke-width:1;"/><polygon fill="#181818" points="509.11,1085.749,500.11,1081.749,504.11,1085.749,500.11,1089.749,509.11,1085.749" style="stroke:#181818;stroke-width:1;"/></g><!--link source_scripts_setup_mtls_sh to tool_systemctl--><g class="link" data-entity-1="ent0004" data-entity-2="ent0026" data-link-type="dependency" data-source-line="56" id="lnk51"><path d="M155.44,1358.979 C155.44,1425.449 155.44,1581.579 155.44,1581.579 C155.44,1581.579 380.46,1581.579 481.54,1581.579" fill="none" id="source_scripts_setup_mtls_sh-to-tool_systemctl" style="stroke:#181818;stroke-width:1;"/><polygon fill="#181818" points="487.54,1581.579,478.54,1577.579,482.54,1581.579,478.54,1585.579,487.54,1581.579" style="stroke:#181818;stroke-width:1;"/></g><?plantuml-src jPOzRzim48Pt_GeYMG8KSbgdGATsQUEYGxkaOm228SyIONw1fE3et_TeoJ8jEOcAgkFTFU_B3ub7HXaLaBtqqbHbpRo14CXlQnN6v8U9K7aMfJMXKB2D95hYPLL78gG7dWf5s4dZc6UQX9e9kq_2BLC1ieg0BMjKt5WJVp4DvASrDZZ6SuPRxQm14nzYYrDAzinKAaTmKX1R1yJwMDjYGCZLgfAnRfvkzzRljihkmosNgrQhH_CH1uy8Wi39MnMk20iasCPpe9s83YBA9KKHkRv_lrblxlC10lVInN0hm2dRqc3i_ibBKG7TIWLF7jNWwHQTgDIiWbMe7ys7krS6xntfN4SQwjSc5Y0shjHHXSFGdsQCV93G9CczkRAD85St-3qqCuB2imonqoSdUfudrvlxpTtNJqSPE_mKkFqry9rjuadNL-YnyfAoMuXhyGkRgRgRSrUTEFWglFjyKvOS_pE6_uelapOpGO0EHPfoOm_EiYbZCAdNsegCIE64SHdWnbLX-GxyYUZYorHtA0ACQThdBwlADrHqFTPL7h8vfsXCrC2oPQTeJ4WJ8bFPRlU9CQTts3jEr24SCmQUiy-GeZ5X7PWGij7wn9XpCbiO1fEw5VWtJtUiox-qpyv3acYPpH9pjCjDQMdEG0p7ZDSdmEjnDRGXWkOnM--G6hED4moF_Odi4mFtHlChoo-N3-nV2_EpEbkCtsW-EsnvyGzDTR0xxsoBM5xeECjCbIspvAunB6XrF37_mPAk5p5DtMqHexw_BUALMjmYHkTzQndBrAyMSV9w4Pk-eHMlFcTEHoLTqNDPDnDC5-1Cz731pMJxIsmcFTtE5y3XhYYCZN2y6F2X_jqpLpyqsFPyMpnmPWpU4tV7Ai77k6-TnSyVLiMtutjoZK0jlIZnKHxRxdcvAi08ajp_0000?></g></svg>
